<svg width="26" height="23" viewBox="0 0 26 23" fill="none" xmlns="http://www.w3.org/2000/svg">
<path d="M6.89438 2.04494C6.89438 1.22697 7.53708 0.58427 8.35506 0.58427H24.5393C25.3573 0.58427 26 1.22697 26 2.04494C26 2.86292 25.3573 3.50562 24.5393 3.50562H8.35506C7.53708 3.50562 6.89438 2.86292 6.89438 2.04494ZM24.5393 9.93258H8.35506C7.53708 9.93258 6.89438 10.5753 6.89438 11.3933C6.89438 12.2112 7.53708 12.8539 8.35506 12.8539H24.5393C25.3573 12.8539 26 12.2112 26 11.3933C26 10.5753 25.3573 9.93258 24.5393 9.93258ZM24.5393 19.2809H8.35506C7.53708 19.2809 6.89438 19.9236 6.89438 20.7416C6.89438 21.5595 7.53708 22.2022 8.35506 22.2022H24.5393C25.3573 22.2022 26 21.5595 26 20.7416C26 19.9236 25.3573 19.2809 24.5393 19.2809ZM2.04494 9.46517C0.905618 9.46517 0 10.4 0 11.5393C0 12.6787 0.905618 13.6135 2.04494 13.6135C3.18427 13.6135 4.08989 12.6787 4.08989 11.5393C4.08989 10.4 3.15506 9.46517 2.04494 9.46517ZM2.04494 0C0.905618 0 0 0.934832 0 2.07416C0 3.21348 0.905618 4.14831 2.04494 4.14831C3.18427 4.14831 4.08989 3.21348 4.08989 2.07416C4.08989 0.934832 3.15506 0 2.04494 0ZM2.04494 18.6382C0.905618 18.6382 0 19.573 0 20.7124C0 21.8517 0.905618 22.7865 2.04494 22.7865C3.18427 22.7865 4.08989 21.8517 4.08989 20.7124C4.08989 19.573 3.15506 18.6382 2.04494 18.6382Z" fill="black"/>
</svg>
