<svg width="104" height="104" viewBox="0 0 104 104" fill="none" xmlns="http://www.w3.org/2000/svg">
<g filter="url(#filter0_d_374_33271)">
<path fill-rule="evenodd" clip-rule="evenodd" d="M51.9706 101C79.5372 101 102 78.5448 102 50.9657C102 23.4552 79.5372 1 51.9706 1C24.453 1 2 23.4552 2 50.9755C2 78.5448 24.453 101 51.9706 101Z" fill="#F0F4FF"/>
<path fill-rule="evenodd" clip-rule="evenodd" d="M51.8531 92.8677C74.9526 92.8677 93.7516 74.0767 93.7516 50.9651C93.7516 27.9123 74.9526 9.0625 51.8531 9.0625C28.8123 9.0625 9.95459 27.9123 9.95459 50.9651C9.95459 74.0767 28.8026 92.8677 51.8531 92.8677Z" fill="url(#paint0_radial_374_33271)"/>
<path fill-rule="evenodd" clip-rule="evenodd" d="M44.6602 35.8689C38.1065 38.2497 31.5626 46.4891 33.2769 56.2863C34.7072 64.467 41.1237 70.9429 49.666 72.0304C59.6582 73.2844 67.0936 66.9163 69.7679 60.068C73.0693 51.6424 69.9149 42.5017 62.6167 37.5345C61.3921 36.7017 58.5316 34.6541 57.2385 36.3882C55.534 38.6807 59.5994 39.7976 60.6378 40.4932C63.3514 42.3253 66.2707 45.6661 67.2013 50.0749C69.2487 59.7839 62.2836 67.4159 54.2801 68.6112C44.8561 70.022 37.1269 62.7329 36.5783 54.562C36.1178 47.655 39.9188 42.051 45.4537 39.3959C46.4235 38.9355 47.4031 38.5534 47.1582 37.0838C46.9427 35.9277 45.8063 35.4575 44.6602 35.8689ZM51.782 29.8927C49.6465 30.3335 50.2342 32.6849 50.244 36.4862V52.6418C50.244 54.8069 49.4603 59.2059 52.4776 58.5984C54.3682 58.2164 53.8294 54.7579 53.8197 51.8776V35.7122C53.8197 33.547 54.5054 29.344 51.782 29.8927Z" fill="#969696"/>
<path fill-rule="evenodd" clip-rule="evenodd" d="M44.6602 34.8885C38.1065 37.2692 31.5626 45.5086 33.2769 55.3058C34.7072 63.4865 41.1237 69.9624 49.666 71.0499C59.6582 72.304 67.0936 65.9358 69.7679 59.0876C73.0693 50.662 69.9149 41.5212 62.6167 36.554C61.3921 35.7212 58.5316 33.6736 57.2385 35.4077C55.534 37.7003 59.5994 38.8172 60.6378 39.5128C63.3514 41.3448 66.2707 44.6857 67.2013 49.0944C69.2487 58.8034 62.2836 66.4355 54.2801 67.6307C44.8561 69.0415 37.1269 61.7524 36.5783 53.5815C36.1178 46.6745 39.9188 41.0705 45.4537 38.4155C46.4235 37.955 47.4031 37.5729 47.1582 36.1033C46.9427 34.9473 45.8063 34.477 44.6602 34.8885ZM51.782 28.9122C49.6465 29.3531 50.2342 31.7044 50.244 35.5057V51.6613C50.244 53.8265 49.4603 58.2254 52.4776 57.618C54.3682 57.2359 53.8294 53.7775 53.8197 50.8971V34.7317C53.8197 32.5665 54.5054 28.3635 51.782 28.9122Z" fill="white"/>
</g>
<defs>
<filter id="filter0_d_374_33271" x="0" y="0" width="104" height="104" filterUnits="userSpaceOnUse" color-interpolation-filters="sRGB">
<feFlood flood-opacity="0" result="BackgroundImageFix"/>
<feColorMatrix in="SourceAlpha" type="matrix" values="0 0 0 0 0 0 0 0 0 0 0 0 0 0 0 0 0 0 127 0" result="hardAlpha"/>
<feOffset dy="1"/>
<feGaussianBlur stdDeviation="1"/>
<feComposite in2="hardAlpha" operator="out"/>
<feColorMatrix type="matrix" values="0 0 0 0 0 0 0 0 0 0 0 0 0 0 0 0 0 0 0.25 0"/>
<feBlend mode="normal" in2="BackgroundImageFix" result="effect1_dropShadow_374_33271"/>
<feBlend mode="normal" in="SourceGraphic" in2="effect1_dropShadow_374_33271" result="shape"/>
</filter>
<radialGradient id="paint0_radial_374_33271" cx="0" cy="0" r="1" gradientUnits="userSpaceOnUse" gradientTransform="translate(50.7087 49.8699) scale(47.8426 47.8473)">
<stop stop-color="#D3E6AC"/>
<stop offset="0.5215" stop-color="#7CBA18"/>
<stop offset="1" stop-color="#09470E"/>
</radialGradient>
</defs>
</svg>
