<svg width="40" height="40" viewBox="0 0 40 40" fill="none" xmlns="http://www.w3.org/2000/svg">
<circle cx="20" cy="20" r="20" fill="#3360E9" fill-opacity="0.5"/>
<circle cx="19.9997" cy="20.0007" r="14.6667" fill="#2C037E"/>
<path d="M14.624 26.16C13.8453 26.16 13.0987 26.048 12.384 25.824C11.6693 25.5893 11.0827 25.2693 10.624 24.864L11.296 23.312C11.7973 23.696 12.3147 23.9787 12.848 24.16C13.392 24.3413 13.9627 24.432 14.56 24.432C15.2853 24.432 15.8347 24.288 16.208 24C16.5813 23.712 16.768 23.2907 16.768 22.736C16.768 22.2027 16.5813 21.8027 16.208 21.536C15.8453 21.2587 15.312 21.12 14.608 21.12H12.784V19.472H14.432C15.04 19.472 15.5253 19.3227 15.888 19.024C16.2507 18.7253 16.432 18.3147 16.432 17.792C16.432 17.3013 16.2613 16.928 15.92 16.672C15.5893 16.416 15.1093 16.288 14.48 16.288C13.3493 16.288 12.352 16.672 11.488 17.44L10.816 15.904C11.2747 15.4773 11.84 15.1467 12.512 14.912C13.1947 14.6773 13.9093 14.56 14.656 14.56C15.8293 14.56 16.7467 14.8267 17.408 15.36C18.08 15.8827 18.416 16.6133 18.416 17.552C18.416 18.224 18.224 18.8053 17.84 19.296C17.4667 19.776 16.9493 20.096 16.288 20.256V20.064C17.0667 20.192 17.6693 20.512 18.096 21.024C18.5333 21.5253 18.752 22.1547 18.752 22.912C18.752 23.9147 18.384 24.7093 17.648 25.296C16.912 25.872 15.904 26.16 14.624 26.16ZM24.3938 26.16C23.0711 26.16 22.0524 25.6587 21.3378 24.656C20.6231 23.6427 20.2658 22.2027 20.2658 20.336C20.2658 18.448 20.6231 17.0133 21.3378 16.032C22.0524 15.0507 23.0711 14.56 24.3938 14.56C25.7271 14.56 26.7458 15.0507 27.4498 16.032C28.1644 17.0133 28.5218 18.4427 28.5218 20.32C28.5218 22.1973 28.1644 23.6427 27.4498 24.656C26.7458 25.6587 25.7271 26.16 24.3938 26.16ZM24.3938 24.464C25.1191 24.464 25.6578 24.1333 26.0098 23.472C26.3618 22.8 26.5378 21.7493 26.5378 20.32C26.5378 18.8907 26.3618 17.856 26.0098 17.216C25.6578 16.5653 25.1191 16.24 24.3938 16.24C23.6791 16.24 23.1404 16.5653 22.7778 17.216C22.4258 17.856 22.2498 18.8907 22.2498 20.32C22.2498 21.7493 22.4258 22.8 22.7778 23.472C23.1404 24.1333 23.6791 24.464 24.3938 24.464Z" fill="white"/>
</svg>
