<svg width="100" height="124" viewBox="0 0 100 124" fill="none" xmlns="http://www.w3.org/2000/svg">
<path fill-rule="evenodd" clip-rule="evenodd" d="M49.9706 100C77.5372 100 100 77.5448 100 49.9657C100 22.4552 77.5372 0 49.9706 0C22.453 0 0 22.4552 0 49.9755C0 77.5448 22.453 100 49.9706 100Z" fill="#F0F4FF"/>
<path fill-rule="evenodd" clip-rule="evenodd" d="M49.8531 91.8677C72.9526 91.8677 91.7516 73.0767 91.7516 49.9651C91.7516 26.9123 72.9526 8.0625 49.8531 8.0625C26.8123 8.0625 7.95459 26.9123 7.95459 49.9651C7.95459 73.0767 26.8026 91.8677 49.8531 91.8677Z" fill="url(#paint0_radial_595_43319)"/>
<path d="M22.0669 121V112.54H27.7669V113.752H23.5549V116.092H27.4909V117.316H23.5549V119.776H27.7669V121H22.0669ZM29.0836 121V116.452C29.0836 116.204 29.0756 115.952 29.0596 115.696C29.0436 115.44 29.0196 115.188 28.9876 114.94H30.4396L30.5596 116.14H30.4156C30.6076 115.716 30.8916 115.392 31.2676 115.168C31.6436 114.936 32.0796 114.82 32.5756 114.82C33.2876 114.82 33.8236 115.02 34.1836 115.42C34.5436 115.82 34.7236 116.444 34.7236 117.292V121H33.2236V117.364C33.2236 116.876 33.1276 116.528 32.9356 116.32C32.7516 116.104 32.4716 115.996 32.0956 115.996C31.6316 115.996 31.2636 116.14 30.9916 116.428C30.7196 116.716 30.5836 117.1 30.5836 117.58V121H29.0836ZM38.666 121.12C38.138 121.12 37.67 120.996 37.262 120.748C36.862 120.492 36.55 120.128 36.326 119.656C36.102 119.184 35.99 118.62 35.99 117.964C35.99 117.308 36.102 116.748 36.326 116.284C36.55 115.812 36.862 115.452 37.262 115.204C37.67 114.948 38.138 114.82 38.666 114.82C39.17 114.82 39.614 114.944 39.998 115.192C40.39 115.432 40.65 115.76 40.778 116.176H40.622V112.168H42.122V121H40.646V119.716H40.79C40.662 120.148 40.402 120.492 40.01 120.748C39.626 120.996 39.178 121.12 38.666 121.12ZM39.086 119.968C39.558 119.968 39.938 119.804 40.226 119.476C40.514 119.14 40.658 118.636 40.658 117.964C40.658 117.292 40.514 116.792 40.226 116.464C39.938 116.136 39.558 115.972 39.086 115.972C38.614 115.972 38.23 116.136 37.934 116.464C37.646 116.792 37.502 117.292 37.502 117.964C37.502 118.636 37.646 119.14 37.934 119.476C38.23 119.804 38.614 119.968 39.086 119.968ZM49.1604 121V113.812H46.3644V112.54H53.5044V113.812H50.7084V121H49.1604ZM54.4781 121V114.94H55.9781V121H54.4781ZM54.3941 113.8V112.336H56.0621V113.8H54.3941ZM57.607 121V116.452C57.607 116.204 57.599 115.952 57.583 115.696C57.567 115.44 57.543 115.188 57.511 114.94H58.963L59.083 116.14H58.939C59.107 115.724 59.363 115.4 59.707 115.168C60.059 114.936 60.475 114.82 60.955 114.82C61.435 114.82 61.831 114.936 62.143 115.168C62.463 115.392 62.687 115.744 62.815 116.224H62.623C62.791 115.792 63.067 115.452 63.451 115.204C63.835 114.948 64.275 114.82 64.771 114.82C65.451 114.82 65.959 115.02 66.295 115.42C66.631 115.82 66.799 116.444 66.799 117.292V121H65.299V117.352C65.299 116.872 65.219 116.528 65.059 116.32C64.899 116.104 64.643 115.996 64.291 115.996C63.875 115.996 63.547 116.144 63.307 116.44C63.067 116.728 62.947 117.12 62.947 117.616V121H61.447V117.352C61.447 116.872 61.367 116.528 61.207 116.32C61.047 116.104 60.791 115.996 60.439 115.996C60.023 115.996 59.695 116.144 59.455 116.44C59.223 116.728 59.107 117.12 59.107 117.616V121H57.607ZM71.328 121.12C70.312 121.12 69.516 120.84 68.94 120.28C68.364 119.72 68.076 118.952 68.076 117.976C68.076 117.344 68.2 116.792 68.448 116.32C68.696 115.848 69.04 115.48 69.48 115.216C69.928 114.952 70.448 114.82 71.04 114.82C71.624 114.82 72.112 114.944 72.504 115.192C72.896 115.44 73.192 115.788 73.392 116.236C73.6 116.684 73.704 117.208 73.704 117.808V118.204H69.288V117.412H72.636L72.432 117.58C72.432 117.02 72.312 116.592 72.072 116.296C71.84 116 71.5 115.852 71.052 115.852C70.556 115.852 70.172 116.028 69.9 116.38C69.636 116.732 69.504 117.224 69.504 117.856V118.012C69.504 118.668 69.664 119.16 69.984 119.488C70.312 119.808 70.772 119.968 71.364 119.968C71.708 119.968 72.028 119.924 72.324 119.836C72.628 119.74 72.916 119.588 73.188 119.38L73.632 120.388C73.344 120.62 73 120.8 72.6 120.928C72.2 121.056 71.776 121.12 71.328 121.12ZM74.9622 121V116.488C74.9622 116.232 74.9542 115.972 74.9382 115.708C74.9302 115.444 74.9102 115.188 74.8782 114.94H76.3302L76.4982 116.596H76.2582C76.3382 116.196 76.4702 115.864 76.6542 115.6C76.8462 115.336 77.0782 115.14 77.3502 115.012C77.6222 114.884 77.9182 114.82 78.2382 114.82C78.3822 114.82 78.4982 114.828 78.5862 114.844C78.6742 114.852 78.7622 114.872 78.8502 114.904L78.8382 116.224C78.6862 116.16 78.5542 116.12 78.4422 116.104C78.3382 116.088 78.2062 116.08 78.0462 116.08C77.7022 116.08 77.4102 116.152 77.1702 116.296C76.9382 116.44 76.7622 116.64 76.6422 116.896C76.5302 117.152 76.4742 117.444 76.4742 117.772V121H74.9622Z" fill="white"/>
<path d="M41.4463 63.9468C39.9587 65.3462 37.562 65.3462 36.124 63.9468C34.6364 62.4991 34.6364 60.2149 36.124 58.7672L44.7025 50.4186L36.1157 42.0781C34.6281 40.6304 34.6281 38.298 36.1157 36.8905C37.5537 35.4428 39.9504 35.4428 41.438 36.8905L50.0165 45.239L58.595 36.8905C60.0826 35.4428 62.4298 35.4428 63.9174 36.8905C65.3554 38.2899 65.3554 40.6224 63.9174 42.0781L55.3471 50.4267L63.9174 58.7752C65.3554 60.231 65.3554 62.5071 63.9174 63.9548C62.4298 65.3543 60.0826 65.3543 58.595 63.9548L50.0248 55.6063L41.4463 63.9468Z" fill="#969696"/>
<path d="M41.4463 63.1421C39.9587 64.5416 37.562 64.5416 36.124 63.1421C34.6364 61.6944 34.6364 59.4102 36.124 57.9625L44.7025 49.6139L36.1157 41.2735C34.6281 39.8257 34.6281 37.4933 36.1157 36.0858C37.5537 34.6381 39.9504 34.6381 41.438 36.0858L50.0165 44.4343L58.595 36.0858C60.0826 34.6381 62.4298 34.6381 63.9174 36.0858C65.3554 37.4853 65.3554 39.8177 63.9174 41.2735L55.3471 49.622L63.9174 57.9705C65.3554 59.4263 65.3554 61.7024 63.9174 63.1501C62.4298 64.5496 60.0826 64.5496 58.595 63.1501L50.0248 54.8016L41.4463 63.1421Z" fill="white"/>
<defs>
<radialGradient id="paint0_radial_595_43319" cx="0" cy="0" r="1" gradientUnits="userSpaceOnUse" gradientTransform="translate(48.7088 48.8699) scale(47.8426 47.8473)">
<stop stop-color="#FDBFAC"/>
<stop offset="0.5215" stop-color="#EE230A"/>
<stop offset="1" stop-color="#411308"/>
</radialGradient>
</defs>
</svg>
