<svg width="50" height="50" viewBox="0 0 50 50" fill="none" xmlns="http://www.w3.org/2000/svg">
<circle cx="25" cy="25" r="25" fill="#C4C4C4"/>
<path d="M12.0132 31L6.98919 19.72H9.21319L13.2612 29.192H12.5892L16.6372 19.72H18.7812L13.7572 31H12.0132ZM18.6374 31V28.776H20.8774V31H18.6374ZM22.0547 31L27.1587 19.72H28.8867L34.0547 31H31.9587L30.5827 27.832L31.4147 28.392H24.6467L25.5107 27.832L24.1347 31H22.0547ZM28.0067 21.928L25.7507 27.272L25.3347 26.776H30.7107L30.3747 27.272L28.0707 21.928H28.0067ZM35.2312 31V28.776H37.4712V31H35.2312ZM39.5839 31V19.72H41.6479V31H39.5839Z" fill="black"/>
</svg>
