<svg width="226" height="30" viewBox="0 0 226 30" fill="none" xmlns="http://www.w3.org/2000/svg">
<circle cx="15" cy="15" r="15" fill="#02227E" fill-opacity="0.3"/>
<circle cx="15" cy="15" r="11" fill="#02227E"/>
<path d="M12.524 18V17.148H14.516V10.392H15.044L12.716 11.844V10.848L14.792 9.54H15.512V17.148H17.384V18H12.524Z" fill="white"/>
<path d="M33 15L95 15" stroke="#6A6868"/>
<path d="M131 15L193 15" stroke="#6A6868"/>
<circle cx="113" cy="15" r="14.25" stroke="#D9D9D9" stroke-width="1.5"/>
<circle cx="113" cy="15" r="14.25" stroke="black" stroke-opacity="0.2" stroke-width="1.5"/>
<circle cx="113" cy="15" r="10.25" fill="#AEAEAE" stroke="#AEAEAE" stroke-width="1.5"/>
<path d="M110.032 18V17.256L113.032 14.124C113.424 13.716 113.716 13.328 113.908 12.96C114.108 12.584 114.208 12.196 114.208 11.796C114.208 11.308 114.056 10.94 113.752 10.692C113.448 10.436 113.008 10.308 112.432 10.308C111.984 10.308 111.568 10.388 111.184 10.548C110.808 10.7 110.444 10.944 110.092 11.28L109.732 10.5C110.052 10.18 110.46 9.924 110.956 9.732C111.452 9.532 111.976 9.432 112.528 9.432C113.384 9.432 114.044 9.632 114.508 10.032C114.972 10.424 115.204 10.984 115.204 11.712C115.204 12.248 115.072 12.76 114.808 13.248C114.552 13.728 114.176 14.224 113.68 14.736L111.028 17.424V17.148H115.564V18H110.032Z" fill="black"/>
<circle cx="211" cy="15" r="14.25" stroke="#D9D9D9" stroke-width="1.5"/>
<circle cx="211" cy="15" r="14.25" stroke="black" stroke-opacity="0.2" stroke-width="1.5"/>
<circle cx="211" cy="15" r="10.25" fill="#AEAEAE" stroke="#AEAEAE" stroke-width="1.5"/>
<path d="M210.552 18.108C209.984 18.108 209.44 18.02 208.92 17.844C208.4 17.668 207.964 17.416 207.612 17.088L207.984 16.32C208.376 16.64 208.78 16.872 209.196 17.016C209.612 17.16 210.06 17.232 210.54 17.232C211.172 17.232 211.652 17.1 211.98 16.836C212.308 16.564 212.472 16.168 212.472 15.648C212.472 15.152 212.304 14.776 211.968 14.52C211.632 14.256 211.14 14.124 210.492 14.124H209.22V13.296H210.408C210.968 13.296 211.412 13.152 211.74 12.864C212.068 12.576 212.232 12.184 212.232 11.688C212.232 11.24 212.08 10.9 211.776 10.668C211.48 10.428 211.052 10.308 210.492 10.308C209.58 10.308 208.792 10.632 208.128 11.28L207.756 10.5C208.084 10.164 208.496 9.904 208.992 9.72C209.488 9.528 210.008 9.432 210.552 9.432C211.384 9.432 212.036 9.624 212.508 10.008C212.98 10.392 213.216 10.924 213.216 11.604C213.216 12.124 213.068 12.572 212.772 12.948C212.476 13.316 212.076 13.568 211.572 13.704V13.572C212.172 13.668 212.636 13.908 212.964 14.292C213.292 14.668 213.456 15.144 213.456 15.72C213.456 16.456 213.196 17.04 212.676 17.472C212.164 17.896 211.456 18.108 210.552 18.108Z" fill="black"/>
</svg>
