<svg width="199" height="46" viewBox="0 0 199 46" fill="none" xmlns="http://www.w3.org/2000/svg">
<path d="M18.2579 9.12434C18.2579 9.12434 12.2648 6.7511 8.54636 11.6777C6.76471 14.0349 6.13636 17.1085 6.84823 19.978C7.27773 21.7069 8.22423 23.5799 10.2365 24.7925C11.4734 25.5369 12.6426 26.3893 13.6646 27.4099C16.6115 30.3594 21.2764 36.1424 20.1191 42.3057C20.1191 42.3057 19.1329 37.5112 6.67722 29.1708C5.09441 28.1102 3.67864 26.8016 2.56113 25.2528C0.405651 22.2672 -1.61461 17.4007 1.93278 11.8578C1.93278 11.8578 8.48273 2.03264 18.2579 9.12434Z" fill="white"/>
<path d="M21.2565 10.1819C21.2565 10.1819 28.5422 2.65 35.0603 6.58406C37.4505 8.02881 38.914 10.6102 39.1565 13.4076C39.431 16.5533 38.9378 21.2757 34.7462 25.1297C34.7462 25.1297 23.2569 35.9674 23.8654 44.4718C23.8654 44.4718 26.2634 38.9169 30.9045 34.7067C31.167 34.4706 31.4374 34.2465 31.7118 34.0224C33.7639 32.3575 44.1953 23.5969 46.3985 16.125C46.4621 15.9169 46.5178 15.7048 46.5854 15.4967C47.0944 13.8599 49.6436 3.90266 37.7805 0.5329C34.4797 -0.403589 30.9244 -0.127445 27.9178 1.53342C25.3766 2.93415 22.7638 5.49949 21.2565 10.1819Z" fill="white"/>
<path d="M64.0797 39.1008C60.4647 49.8104 42.9783 43.7792 42.9783 43.7792C34.0462 40.2414 23.9171 46.0044 23.9171 46.0044C23.9171 46.0044 26.164 37.2918 42.8908 39.0328C44.8872 39.2409 46.8518 39.6451 48.7846 40.1733C51.7673 40.9898 58.3252 42.1944 64.0797 39.1008Z" fill="white"/>
<path d="M22.8473 28.7165C17.8245 28.7165 13.7362 24.6023 13.7362 19.5477C13.7362 14.4931 17.8245 10.3789 22.8473 10.3789C27.8701 10.3789 31.9623 14.4891 31.9623 19.5437C31.9623 24.5983 27.8741 28.7165 22.8473 28.7165ZM22.8473 11.9957C18.7113 11.9957 15.3468 15.3815 15.3468 19.5437C15.3468 23.7059 18.7113 27.0916 22.8473 27.0916C26.9833 27.0916 30.3477 23.7059 30.3477 19.5437C30.3477 15.3815 26.9833 11.9957 22.8473 11.9957Z" fill="white"/>
<path d="M22.8473 24.7494C19.9958 24.7494 17.6733 22.4162 17.6733 19.5427C17.6733 16.6732 19.9919 14.3359 22.8473 14.3359C25.6987 14.3359 28.0212 16.6692 28.0212 19.5427C28.0212 22.4162 25.7027 24.7494 22.8473 24.7494ZM22.8473 15.9608C20.8827 15.9608 19.284 17.5696 19.284 19.5467C19.284 21.5237 20.8827 23.1325 22.8473 23.1325C24.8119 23.1325 26.4106 21.5237 26.4106 19.5467C26.4106 17.5656 24.8119 15.9608 22.8473 15.9608Z" fill="white"/>
<path d="M23.1575 20.7998L21.3162 19.1309C20.9861 18.8307 20.9582 18.3185 21.2565 17.9863C21.5548 17.6541 22.0638 17.6261 22.3939 17.9263L23.5035 18.9308C23.6784 19.0909 23.9409 19.1029 24.1318 18.9668L34.078 11.8191C34.4399 11.5589 34.941 11.643 35.1995 12.0072C35.458 12.3714 35.3745 12.8756 35.0126 13.1358L24.271 20.8598C23.933 21.1079 23.4677 21.0799 23.1575 20.7998Z" fill="white"/>
<path d="M22.8473 37.3204C22.4019 37.3204 22.04 36.9562 22.04 36.508V23.9414H23.6506V36.512C23.6546 36.9562 23.2927 37.3204 22.8473 37.3204Z" fill="white"/>
<path d="M53.2029 20.5109C53.1274 20.3468 53.0916 20.1787 53.0916 20.0107C53.0916 19.8426 53.1274 19.6825 53.199 19.5344C53.2705 19.3863 53.37 19.2503 53.4972 19.1262C53.6245 19.0061 53.7756 18.9141 53.9506 18.8501C54.1256 18.786 54.2886 18.754 54.4477 18.754C54.7142 18.754 54.9568 18.822 55.1755 18.9541C55.3942 19.0862 55.5612 19.2783 55.6805 19.5304L60.1267 29.3715L64.561 19.5304C64.6683 19.2863 64.8354 19.0982 65.0581 18.9581C65.2808 18.822 65.5273 18.75 65.7898 18.75C65.9489 18.75 66.1119 18.782 66.2869 18.8461C66.4619 18.9101 66.6091 18.9981 66.7363 19.1182C66.8596 19.2343 66.955 19.3703 67.0227 19.5184C67.0903 19.6665 67.1221 19.8266 67.13 19.9946C67.134 20.1627 67.0982 20.3308 67.0227 20.4949L61.3556 33.0335C61.2402 33.2856 61.0692 33.4777 60.8386 33.6178C60.6119 33.7538 60.3653 33.8259 60.0989 33.8259C60.0233 33.8259 59.9676 33.8219 59.9239 33.8139C59.9159 33.8139 59.908 33.8139 59.9 33.8099C59.8921 33.8059 59.8801 33.8059 59.8642 33.8059L59.741 33.7698C59.5501 33.7218 59.3791 33.6378 59.2319 33.5177C59.0808 33.3976 58.9615 33.2376 58.87 33.0415L53.2029 20.5109Z" fill="white"/>
<path d="M76.6229 30.9405H69.5162L68.5856 33.0616C68.4702 33.3137 68.3032 33.5018 68.0805 33.6339C67.8618 33.7619 67.6192 33.83 67.3527 33.83C67.1698 33.83 66.9749 33.7899 66.7681 33.7139C66.5852 33.6419 66.438 33.5458 66.3227 33.4258C66.2074 33.3017 66.1199 33.1696 66.0682 33.0175C66.0125 32.8695 65.9926 32.7054 66.0046 32.5333C66.0165 32.3612 66.0602 32.1931 66.1358 32.025L71.8148 19.5225C71.9301 19.2704 72.0972 19.0783 72.3119 18.9462C72.5267 18.8141 72.7772 18.7461 73.0596 18.7461C73.326 18.7461 73.5646 18.8141 73.7794 18.9462C73.9942 19.0783 74.1612 19.2664 74.2765 19.5105L79.9913 32.025C80.1424 32.3532 80.1623 32.6814 80.0589 33.0015C79.9555 33.3257 79.7288 33.5618 79.3828 33.7099C79.2079 33.7899 79.017 33.826 78.8102 33.826C78.5437 33.826 78.3011 33.7579 78.0784 33.6259C77.8557 33.4938 77.6847 33.3017 77.5694 33.0616L76.6229 30.9405ZM70.5979 28.3831H75.5054L73.0715 22.8322L70.5979 28.3831Z" fill="white"/>
<path d="M85.4198 32.5654C85.4198 32.7375 85.384 32.9016 85.3124 33.0617C85.2408 33.2177 85.1454 33.3538 85.0221 33.4619C84.8988 33.5739 84.7556 33.662 84.5926 33.726C84.4295 33.794 84.2546 33.8261 84.0637 33.8261C83.8807 33.8261 83.7057 33.794 83.5427 33.726C83.3796 33.658 83.2325 33.5699 83.1132 33.4619C82.9939 33.3538 82.8984 33.2177 82.8268 33.0617C82.7553 32.9056 82.7195 32.7415 82.7195 32.5654V20.0028C82.7195 19.8228 82.7553 19.6547 82.8268 19.5026C82.8984 19.3505 82.9939 19.2144 83.1132 19.1024C83.2325 18.9903 83.3757 18.9023 83.5427 18.8382C83.7097 18.7742 83.8807 18.7422 84.0637 18.7422C84.2546 18.7422 84.4295 18.7742 84.5926 18.8382C84.7556 18.9023 84.8988 18.9903 85.0221 19.1024C85.1454 19.2184 85.2448 19.3505 85.3124 19.5026C85.384 19.6547 85.4198 19.8228 85.4198 20.0028V32.5654Z" fill="white"/>
<path d="M90.3034 19.2504C90.3034 19.1023 90.3551 18.9782 90.4585 18.8862C90.5619 18.7901 90.6892 18.7461 90.8363 18.7461H95.4217C96.2012 18.7461 96.9329 18.8782 97.6209 19.1423C98.3089 19.4064 98.9054 19.7706 99.4145 20.2309C99.9235 20.6951 100.329 21.2434 100.627 21.8757C100.926 22.5081 101.073 23.1924 101.073 23.9328C101.073 24.5051 100.981 25.0414 100.798 25.5336C100.616 26.0299 100.361 26.4741 100.035 26.8703C99.7088 27.2665 99.319 27.6107 98.8657 27.9029C98.4123 28.195 97.9192 28.4231 97.3823 28.5872L100.838 32.9375C100.962 33.0536 101.017 33.1896 101.001 33.3457C100.985 33.4978 100.914 33.6179 100.79 33.7059C100.691 33.7779 100.584 33.814 100.468 33.814C100.317 33.814 100.19 33.7619 100.083 33.6619L96.2171 28.8314C96.0779 28.8474 95.9387 28.8594 95.7995 28.8674C95.6603 28.8754 95.5251 28.8794 95.3819 28.8794H91.3692V33.3337C91.3692 33.4738 91.3175 33.5938 91.2141 33.6939C91.1107 33.7939 90.9835 33.842 90.8363 33.842C90.6892 33.842 90.5619 33.7939 90.4585 33.6939C90.3551 33.5938 90.3034 33.4778 90.3034 33.3337V19.2504ZM91.3692 19.7666V27.8508H95.3938C96.0659 27.8508 96.6824 27.7508 97.2431 27.5507C97.8038 27.3506 98.289 27.0744 98.6986 26.7183C99.1043 26.3661 99.4224 25.9499 99.6491 25.4696C99.8758 24.9894 99.9911 24.4771 99.9911 23.9248C99.9911 23.3685 99.8798 22.8402 99.6571 22.34C99.4344 21.8397 99.1202 21.3995 98.7185 21.0153C98.3169 20.6311 97.8357 20.3269 97.2789 20.1028C96.7182 19.8787 96.1097 19.7666 95.4455 19.7666H91.3692Z" fill="white"/>
<path d="M106.056 33.3177C106.056 33.4578 106.004 33.5778 105.901 33.6779C105.797 33.7779 105.67 33.826 105.523 33.826C105.376 33.826 105.249 33.7779 105.145 33.6779C105.042 33.5778 104.99 33.4618 104.99 33.3177V19.2504C104.99 19.1023 105.042 18.9782 105.145 18.8862C105.249 18.7901 105.376 18.7461 105.523 18.7461C105.67 18.7461 105.797 18.7941 105.901 18.8862C106.004 18.9822 106.056 19.1023 106.056 19.2504V33.3177Z" fill="white"/>
<path d="M120.504 18.7422C120.643 18.7422 120.77 18.7902 120.878 18.8823C120.985 18.9783 121.041 19.0984 121.041 19.2464C121.041 19.4025 120.989 19.5306 120.886 19.6226C120.782 19.7187 120.655 19.7627 120.508 19.7627H111.922V26.4342H118.619C118.786 26.4342 118.917 26.4862 119.017 26.5943C119.116 26.6983 119.168 26.8224 119.168 26.9665C119.168 27.0985 119.116 27.2146 119.017 27.3147C118.917 27.4147 118.786 27.4627 118.619 27.4627H111.922V33.3178C111.922 33.4659 111.87 33.5899 111.767 33.682C111.663 33.778 111.536 33.8221 111.389 33.8221C111.23 33.8221 111.103 33.774 111.003 33.674C110.904 33.5739 110.856 33.4579 110.856 33.3138V19.2384C110.856 19.1264 110.896 19.0183 110.979 18.9063C111.063 18.7982 111.198 18.7422 111.389 18.7422H120.504Z" fill="white"/>
<path d="M130.172 25.8375L135.986 18.9219C136.093 18.8098 136.225 18.7578 136.384 18.7578C136.515 18.7578 136.618 18.7898 136.694 18.8539C136.809 18.9339 136.885 19.042 136.917 19.178C136.948 19.3141 136.905 19.4622 136.781 19.6183L130.717 26.734V33.3214C130.717 33.4615 130.661 33.5815 130.554 33.6816C130.446 33.7817 130.319 33.8297 130.168 33.8297C130.029 33.8297 129.901 33.7817 129.794 33.6816C129.687 33.5815 129.631 33.4655 129.631 33.3214V26.73L123.507 19.6143C123.407 19.5022 123.359 19.3781 123.371 19.2381C123.379 19.098 123.447 18.9739 123.57 18.8739C123.662 18.7938 123.773 18.7578 123.904 18.7578C123.98 18.7578 124.055 18.7738 124.127 18.8058C124.202 18.8379 124.262 18.8859 124.314 18.9459L130.172 25.8375Z" fill="white"/>
<path d="M140.086 31.6328H141.228V33.826H140.086V31.6328Z" fill="white"/>
<path d="M145.69 19.2504C145.69 19.1023 145.741 18.9782 145.845 18.8862C145.948 18.7901 146.075 18.7461 146.223 18.7461H150.868C151.603 18.7461 152.311 18.8381 152.991 19.0182C153.671 19.1983 154.308 19.4545 154.9 19.7826C155.493 20.1108 156.034 20.511 156.523 20.9713C157.012 21.4315 157.429 21.9478 157.779 22.5081C158.129 23.0683 158.396 23.6727 158.587 24.317C158.778 24.9613 158.873 25.6297 158.873 26.322C158.873 27.3586 158.662 28.3351 158.241 29.2436C157.819 30.152 157.247 30.9485 156.519 31.6288C155.791 32.3092 154.948 32.8454 153.978 33.2377C153.007 33.6299 151.973 33.826 150.872 33.826H146.227C146.075 33.826 145.952 33.7779 145.849 33.6779C145.745 33.5778 145.694 33.4618 145.694 33.3177V19.2504H145.69ZM146.755 19.7666V32.8014H150.856C151.874 32.8014 152.812 32.6173 153.663 32.2531C154.518 31.8889 155.25 31.4007 155.863 30.7964C156.475 30.1921 156.952 29.4997 157.29 28.7233C157.628 27.9469 157.799 27.1465 157.799 26.3301C157.799 25.7818 157.724 25.2375 157.569 24.7052C157.418 24.1729 157.195 23.6607 156.905 23.1724C156.614 22.6841 156.264 22.2359 155.855 21.8157C155.445 21.3995 154.984 21.0393 154.471 20.7391C153.958 20.435 153.397 20.1989 152.792 20.0268C152.188 19.8547 151.548 19.7666 150.868 19.7666H146.755Z" fill="white"/>
<path d="M170.935 30.0442H162.249L160.683 33.522C160.643 33.626 160.575 33.7021 160.484 33.7501C160.392 33.8021 160.293 33.8262 160.185 33.8262C160.11 33.8262 160.034 33.8141 159.963 33.7901C159.824 33.7261 159.728 33.6301 159.676 33.502C159.625 33.3739 159.637 33.2418 159.7 33.1058L166.087 19.0464C166.195 18.8423 166.366 18.7383 166.596 18.7383C166.827 18.7383 166.99 18.8423 167.081 19.0464L173.48 33.1178C173.54 33.2499 173.548 33.3819 173.504 33.506C173.464 33.6301 173.377 33.7261 173.242 33.7901C173.174 33.8222 173.098 33.8382 173.007 33.8382C172.776 33.8382 172.605 33.7381 172.498 33.53L170.935 30.0442ZM162.683 29.0196H170.486L166.596 20.3711L162.683 29.0196Z" fill="white"/>
<path d="M179.756 19.7667V33.3058C179.756 33.4459 179.704 33.5699 179.601 33.67C179.497 33.77 179.366 33.8221 179.211 33.8221C179.056 33.8221 178.925 33.77 178.825 33.67C178.726 33.5699 178.678 33.4459 178.678 33.3058V19.7667H173.608C173.46 19.7667 173.329 19.7147 173.222 19.6146C173.114 19.5146 173.059 19.3905 173.059 19.2505C173.059 19.1104 173.11 18.9903 173.222 18.8903C173.329 18.7902 173.456 18.7422 173.608 18.7422H184.826C184.993 18.7422 185.125 18.7942 185.224 18.8943C185.323 18.9983 185.371 19.1184 185.371 19.2585C185.371 19.4065 185.323 19.5306 185.224 19.6226C185.125 19.7187 184.993 19.7627 184.826 19.7627H179.756V19.7667Z" fill="white"/>
<path d="M188.688 33.8261C188.529 33.81 188.41 33.75 188.322 33.65C188.235 33.5499 188.191 33.4258 188.191 33.2858V19.2505C188.191 19.0944 188.246 18.9703 188.358 18.8783C188.469 18.7862 188.6 18.7422 188.748 18.7422H198.463C198.614 18.7422 198.738 18.7902 198.841 18.8823C198.944 18.9743 198.996 19.0984 198.996 19.2464C198.996 19.3865 198.944 19.5106 198.841 19.6106C198.738 19.7107 198.61 19.7627 198.463 19.7627H189.261V25.6138H196.204C196.363 25.6058 196.491 25.6538 196.59 25.7619C196.689 25.8659 196.741 25.99 196.741 26.134C196.741 26.2741 196.689 26.3942 196.59 26.4862C196.491 26.5783 196.363 26.6263 196.204 26.6263H189.261V32.8015H198.467C198.618 32.8015 198.742 32.8495 198.845 32.9496C198.948 33.0497 199 33.1657 199 33.3098C199 33.4579 198.948 33.5859 198.845 33.686C198.742 33.79 198.614 33.8341 198.467 33.8261H188.688Z" fill="white"/>
<path d="M69.8622 41.7624L69.202 37.4922H69.8184L70.0968 39.4212L70.2678 40.7819H70.2837L70.4309 39.4212L70.6615 37.4922H71.266L70.6615 41.7624H69.8622Z" fill="white"/>
<path d="M71.9898 41.7623V41.166H72.5307V41.7623H71.9898Z" fill="white"/>
<path d="M73.4772 41.7624L74.0816 37.4922H74.9367L75.5809 41.7624H74.9764L74.877 41.002H74.193L74.1015 41.7624H73.4772ZM74.2527 40.4777H74.8054L74.5231 38.3326H74.5151L74.2527 40.4777Z" fill="white"/>
<path d="M76.4996 41.7623V41.166H77.0405V41.7623H76.4996Z" fill="white"/>
<path d="M78.2494 41.7624V37.4922H78.8977V41.7624H78.2494Z" fill="white"/>
<path d="M80.0788 41.7623V41.166H80.6197V41.7623H80.0788Z" fill="white"/>
<path d="M83.4154 41.7625V38.0526H82.9183V37.4883H84.5369V38.0526H84.0597V41.7625H83.4154Z" fill="white"/>
<path d="M85.392 41.7624V37.4922H86.8157V38.0525H86.0402V39.2931H86.7799V39.8414H86.0402V41.2021H86.8475V41.7624H85.392Z" fill="white"/>
<path d="M88.6848 41.8097C88.478 41.8097 88.307 41.7617 88.1718 41.6657C88.0366 41.5696 87.9332 41.4295 87.8656 41.2454C87.798 41.0613 87.7622 40.8412 87.7622 40.5771V38.7161C87.7622 38.52 87.7781 38.3439 87.8099 38.1878C87.8417 38.0318 87.8934 37.8957 87.965 37.7836C88.0366 37.6716 88.132 37.5875 88.2553 37.5275C88.3746 37.4675 88.5257 37.4395 88.7007 37.4395C88.8598 37.4395 88.999 37.4675 89.1104 37.5195C89.2257 37.5715 89.3171 37.6476 89.3887 37.7476C89.4603 37.8477 89.512 37.9637 89.5438 38.1038C89.5756 38.2439 89.5916 38.4 89.5916 38.576V39.1644H88.9672V38.6201C88.9672 38.408 88.9513 38.2559 88.9155 38.1558C88.8797 38.0558 88.8081 38.0077 88.7047 38.0077C88.5894 38.0077 88.5098 38.0598 88.4701 38.1678C88.4303 38.2759 88.4104 38.424 88.4104 38.6201V40.6131C88.4104 40.7612 88.4184 40.8852 88.4343 40.9773C88.4502 41.0733 88.478 41.1414 88.5178 41.1854C88.5576 41.2294 88.6132 41.2534 88.6848 41.2534C88.7922 41.2534 88.8678 41.2014 88.9075 41.0974C88.9473 40.9933 88.9672 40.8292 88.9672 40.6051V39.9928H89.5995V40.5971C89.5995 40.8652 89.5677 41.0934 89.5041 41.2735C89.4404 41.4535 89.341 41.5896 89.2058 41.6777C89.0785 41.7657 88.9035 41.8097 88.6848 41.8097Z" fill="white"/>
<path d="M90.6454 41.7624V37.4922H91.2937V39.2211H91.8743V37.4922H92.5225V41.7624H91.8743V39.7774H91.2937V41.7624H90.6454Z" fill="white"/>
<path d="M93.648 41.7624V37.4922H94.1531L95.0518 40.0535L95.0041 38.8889V37.4922H95.5847V41.7624H95.1274L94.2048 39.109L94.2406 40.2296V41.7624H93.648Z" fill="white"/>
<path d="M97.609 41.8097C97.3902 41.8097 97.2073 41.7617 97.0681 41.6697C96.9289 41.5776 96.8255 41.4375 96.7619 41.2534C96.6943 41.0693 96.6625 40.8412 96.6625 40.5691V38.6161C96.6625 38.3679 96.6943 38.1598 96.7579 37.9837C96.8216 37.8076 96.925 37.6756 97.0641 37.5795C97.2033 37.4835 97.3863 37.4395 97.613 37.4395C97.784 37.4395 97.9271 37.4675 98.0425 37.5195C98.1578 37.5715 98.2532 37.6516 98.3288 37.7516C98.4004 37.8517 98.4521 37.9757 98.4879 38.1198C98.5197 38.2639 98.5396 38.428 98.5396 38.6121V40.5651C98.5396 40.8372 98.5078 41.0653 98.4441 41.2494C98.3805 41.4335 98.2811 41.5736 98.1419 41.6657C98.0106 41.7657 97.8317 41.8097 97.609 41.8097ZM97.609 41.2494C97.6885 41.2494 97.7482 41.2254 97.7919 41.1774C97.8317 41.1294 97.8595 41.0533 97.8715 40.9573C97.8834 40.8572 97.8913 40.7332 97.8913 40.5811V38.5921C97.8913 38.408 97.8754 38.2639 97.8396 38.1598C97.8038 38.0558 97.7323 38.0077 97.6169 38.0077C97.4976 38.0077 97.4181 38.0558 97.3783 38.1558C97.3346 38.2519 97.3147 38.4 97.3147 38.5881V40.5811C97.3147 40.7372 97.3226 40.8652 97.3346 40.9653C97.3465 41.0653 97.3783 41.1374 97.4181 41.1854C97.4618 41.2254 97.5255 41.2494 97.609 41.2494Z" fill="white"/>
<path d="M99.6213 41.7624V37.4922H100.27V41.2101H101.089V41.7624H99.6213Z" fill="white"/>
<path d="M102.771 41.8097C102.552 41.8097 102.369 41.7617 102.23 41.6697C102.091 41.5776 101.988 41.4375 101.924 41.2534C101.856 41.0693 101.824 40.8412 101.824 40.5691V38.6161C101.824 38.3679 101.856 38.1598 101.92 37.9837C101.984 37.8076 102.087 37.6756 102.226 37.5795C102.365 37.4835 102.548 37.4395 102.775 37.4395C102.946 37.4395 103.089 37.4675 103.204 37.5195C103.32 37.5715 103.415 37.6516 103.491 37.7516C103.562 37.8517 103.614 37.9757 103.65 38.1198C103.682 38.2639 103.702 38.428 103.702 38.6121V40.5651C103.702 40.8372 103.67 41.0653 103.606 41.2494C103.543 41.4335 103.443 41.5736 103.304 41.6657C103.173 41.7657 102.994 41.8097 102.771 41.8097ZM102.771 41.2494C102.851 41.2494 102.91 41.2254 102.954 41.1774C102.994 41.1294 103.022 41.0533 103.033 40.9573C103.045 40.8572 103.053 40.7332 103.053 40.5811V38.5921C103.053 38.408 103.037 38.2639 103.002 38.1598C102.966 38.0558 102.894 38.0077 102.779 38.0077C102.66 38.0077 102.58 38.0558 102.54 38.1558C102.497 38.2519 102.477 38.4 102.477 38.5881V40.5811C102.477 40.7372 102.485 40.8652 102.497 40.9653C102.509 41.0653 102.54 41.1374 102.58 41.1854C102.624 41.2254 102.687 41.2494 102.771 41.2494Z" fill="white"/>
<path d="M105.583 41.8056C105.328 41.8056 105.121 41.7056 104.966 41.5015C104.811 41.2974 104.732 40.9692 104.732 40.513V38.656C104.732 38.4639 104.751 38.2958 104.787 38.1437C104.823 37.9916 104.879 37.8676 104.954 37.7595C105.03 37.6555 105.129 37.5754 105.253 37.5234C105.376 37.4674 105.523 37.4434 105.694 37.4434C105.881 37.4434 106.032 37.4714 106.151 37.5274C106.271 37.5834 106.358 37.6635 106.422 37.7715C106.485 37.8756 106.529 38.0077 106.553 38.1597C106.577 38.3118 106.589 38.4879 106.589 38.68V38.9842H105.984V38.5359C105.984 38.3438 105.964 38.2078 105.925 38.1277C105.885 38.0477 105.809 38.0077 105.702 38.0077C105.583 38.0077 105.499 38.0557 105.451 38.1477C105.404 38.2438 105.38 38.4119 105.38 38.652V40.505C105.38 40.7731 105.4 40.9652 105.439 41.0813C105.479 41.1973 105.563 41.2533 105.686 41.2533C105.809 41.2533 105.893 41.1933 105.945 41.0733C105.996 40.9532 106.02 40.7571 106.02 40.4769V39.9006H105.694V39.4284H106.585V41.7616H106.295L106.195 41.3414C106.159 41.4895 106.084 41.6015 105.968 41.6816C105.853 41.7616 105.726 41.8056 105.583 41.8056Z" fill="white"/>
<path d="M108.124 41.7624V40.0575L107.412 37.4922H108.028L108.45 39.089H108.458L108.832 37.4922H109.448L108.772 40.0575V41.7624H108.124Z" fill="white"/>
<path d="M111.679 41.7624V37.4922H113.135V38.0565H112.324V39.1931H113.075V39.7614H112.324V41.7624H111.679Z" fill="white"/>
<path d="M114.972 41.8097C114.753 41.8097 114.57 41.7617 114.431 41.6697C114.292 41.5776 114.189 41.4375 114.125 41.2534C114.057 41.0693 114.026 40.8412 114.026 40.5691V38.6161C114.026 38.3679 114.057 38.1598 114.121 37.9837C114.185 37.8076 114.288 37.6756 114.427 37.5795C114.566 37.4835 114.749 37.4395 114.976 37.4395C115.147 37.4395 115.29 37.4675 115.406 37.5195C115.521 37.5715 115.616 37.6516 115.692 37.7516C115.764 37.8517 115.815 37.9757 115.851 38.1198C115.883 38.2639 115.903 38.428 115.903 38.6121V40.5651C115.903 40.8372 115.871 41.0653 115.807 41.2494C115.744 41.4335 115.644 41.5736 115.505 41.6657C115.37 41.7657 115.191 41.8097 114.972 41.8097ZM114.972 41.2494C115.052 41.2494 115.111 41.2254 115.155 41.1774C115.195 41.1294 115.223 41.0533 115.235 40.9573C115.247 40.8572 115.254 40.7332 115.254 40.5811V38.5921C115.254 38.408 115.239 38.2639 115.203 38.1598C115.167 38.0558 115.095 38.0077 114.98 38.0077C114.861 38.0077 114.781 38.0558 114.741 38.1558C114.698 38.2519 114.678 38.4 114.678 38.5881V40.5811C114.678 40.7372 114.686 40.8652 114.698 40.9653C114.71 41.0653 114.741 41.1374 114.781 41.1854C114.825 41.2254 114.889 41.2494 114.972 41.2494Z" fill="white"/>
<path d="M116.984 41.7624V37.4922H118.054C118.277 37.4922 118.44 37.5362 118.551 37.6243C118.663 37.7123 118.734 37.8404 118.766 38.0085C118.802 38.1765 118.818 38.3807 118.818 38.6248C118.818 38.8769 118.794 39.073 118.742 39.2171C118.691 39.3612 118.587 39.4572 118.432 39.5052C118.508 39.5172 118.567 39.5493 118.619 39.5973C118.671 39.6453 118.71 39.7133 118.738 39.8054C118.77 39.8974 118.79 40.0135 118.806 40.1576C118.822 40.3017 118.826 40.4777 118.826 40.6819C118.826 40.6979 118.826 40.7419 118.826 40.8179C118.826 40.894 118.826 40.982 118.826 41.0821C118.826 41.1821 118.826 41.2822 118.83 41.3822C118.83 41.4823 118.834 41.5663 118.838 41.6384C118.842 41.7104 118.846 41.7504 118.85 41.7664H118.201C118.197 41.7584 118.193 41.7184 118.189 41.6424C118.185 41.5663 118.185 41.4703 118.181 41.3542C118.178 41.2381 118.178 41.1141 118.178 40.978C118.178 40.8419 118.178 40.7099 118.178 40.5818C118.178 40.4537 118.178 40.3377 118.178 40.2376C118.178 40.1096 118.17 40.0135 118.15 39.9495C118.13 39.8854 118.098 39.8374 118.05 39.8134C118.003 39.7894 117.931 39.7734 117.839 39.7654L117.633 39.7534V41.7704H116.984V41.7624ZM117.633 39.2411H117.891C117.971 39.2411 118.03 39.2251 118.07 39.1891C118.11 39.1531 118.138 39.089 118.154 38.993C118.17 38.8969 118.178 38.7608 118.178 38.5808V38.5527C118.178 38.4007 118.17 38.2846 118.158 38.2046C118.142 38.1245 118.114 38.0685 118.066 38.0365C118.018 38.0045 117.951 37.9884 117.851 37.9884H117.633V39.2411Z" fill="white"/>
<path d="M120.993 41.7624L121.598 37.4922H122.453L123.097 41.7624H122.492L122.393 41.002H121.709L121.618 41.7624H120.993ZM121.773 40.4777H122.325L122.043 38.3326H122.035L121.773 40.4777Z" fill="white"/>
<path d="M126.127 41.8096C125.948 41.8096 125.801 41.7816 125.686 41.7256C125.567 41.6696 125.475 41.5895 125.407 41.4815C125.34 41.3734 125.292 41.2413 125.26 41.0893C125.233 40.9332 125.217 40.7571 125.217 40.561V40.1808H125.829V40.609C125.829 40.8371 125.849 41.0052 125.889 41.1053C125.928 41.2053 126.004 41.2573 126.119 41.2573C126.195 41.2573 126.255 41.2413 126.294 41.2013C126.334 41.1653 126.362 41.1053 126.374 41.0252C126.386 40.9452 126.394 40.8411 126.394 40.7091C126.394 40.549 126.362 40.4009 126.294 40.2688C126.227 40.1368 126.127 39.9967 125.992 39.8566L125.678 39.5324C125.59 39.4404 125.511 39.3444 125.443 39.2443C125.376 39.1442 125.316 39.0282 125.276 38.9041C125.236 38.7801 125.213 38.64 125.213 38.4839C125.213 38.2598 125.24 38.0677 125.296 37.9156C125.352 37.7595 125.443 37.6435 125.575 37.5634C125.706 37.4834 125.885 37.4434 126.111 37.4434C126.282 37.4434 126.422 37.4714 126.533 37.5234C126.644 37.5754 126.728 37.6515 126.791 37.7555C126.855 37.8556 126.899 37.9796 126.923 38.1237C126.947 38.2678 126.962 38.4359 126.962 38.62V38.8841H126.366V38.58C126.366 38.4519 126.358 38.3438 126.346 38.2558C126.334 38.1717 126.306 38.1037 126.27 38.0637C126.235 38.0197 126.179 37.9996 126.107 37.9996C126.04 37.9996 125.984 38.0157 125.944 38.0437C125.905 38.0757 125.873 38.1197 125.853 38.1837C125.833 38.2478 125.825 38.3278 125.825 38.4239C125.825 38.5119 125.837 38.588 125.857 38.656C125.881 38.72 125.913 38.7841 125.96 38.8441C126.008 38.9041 126.064 38.9722 126.135 39.0442L126.485 39.4244C126.652 39.6045 126.784 39.7926 126.875 39.9887C126.966 40.1848 127.014 40.4009 127.014 40.645C127.014 40.9012 126.986 41.1173 126.931 41.2894C126.875 41.4615 126.784 41.5935 126.656 41.6856C126.525 41.7656 126.35 41.8096 126.127 41.8096Z" fill="white"/>
<path d="M127.706 41.7624L128.311 37.4922H129.166L129.81 41.7624H129.205L129.106 41.002H128.422L128.331 41.7624H127.706ZM128.482 40.4777H129.034L128.752 38.3326H128.744L128.482 40.4777Z" fill="white"/>
<path d="M130.685 41.7624V37.4922H132.14V38.0565H131.329V39.1931H132.081V39.7614H131.329V41.7624H130.685Z" fill="white"/>
<path d="M133.087 41.7624V37.4922H134.511V38.0525H133.735V39.2931H134.475V39.8414H133.735V41.2021H134.542V41.7624H133.087Z" fill="white"/>
<path d="M135.513 41.7624V37.4922H136.583C136.805 37.4922 136.968 37.5362 137.08 37.6243C137.191 37.7123 137.263 37.8404 137.294 38.0085C137.33 38.1765 137.346 38.3807 137.346 38.6248C137.346 38.8769 137.322 39.073 137.271 39.2171C137.219 39.3612 137.115 39.4572 136.96 39.5052C137.036 39.5172 137.096 39.5493 137.147 39.5973C137.199 39.6453 137.239 39.7133 137.267 39.8054C137.298 39.8974 137.318 40.0135 137.334 40.1576C137.35 40.3017 137.354 40.4777 137.354 40.6819C137.354 40.6979 137.354 40.7419 137.354 40.8179C137.354 40.894 137.354 40.982 137.354 41.0821C137.354 41.1821 137.354 41.2822 137.358 41.3822C137.358 41.4823 137.362 41.5663 137.366 41.6384C137.37 41.7104 137.374 41.7504 137.378 41.7664H136.73C136.726 41.7584 136.722 41.7184 136.718 41.6424C136.714 41.5663 136.714 41.4703 136.71 41.3542C136.706 41.2381 136.706 41.1141 136.706 40.978C136.706 40.8419 136.706 40.7099 136.706 40.5818C136.706 40.4537 136.706 40.3377 136.706 40.2376C136.706 40.1096 136.698 40.0135 136.678 39.9495C136.658 39.8854 136.626 39.8374 136.579 39.8134C136.531 39.7894 136.459 39.7734 136.368 39.7654L136.161 39.7534V41.7704H135.513V41.7624ZM136.161 39.2411H136.42C136.499 39.2411 136.559 39.2251 136.598 39.1891C136.638 39.1531 136.666 39.089 136.682 38.993C136.698 38.8969 136.706 38.7608 136.706 38.5808V38.5527C136.706 38.4007 136.698 38.2846 136.686 38.2046C136.67 38.1245 136.642 38.0685 136.595 38.0365C136.547 38.0045 136.479 37.9884 136.38 37.9884H136.161V39.2411Z" fill="white"/>
<path d="M140.667 41.8097C140.448 41.8097 140.265 41.7617 140.126 41.6697C139.987 41.5776 139.883 41.4375 139.82 41.2534C139.752 41.0693 139.72 40.8412 139.72 40.5691V38.6161C139.72 38.3679 139.752 38.1598 139.816 37.9837C139.879 37.8076 139.983 37.6756 140.122 37.5795C140.261 37.4835 140.444 37.4395 140.671 37.4395C140.842 37.4395 140.985 37.4675 141.1 37.5195C141.216 37.5715 141.311 37.6516 141.387 37.7516C141.458 37.8517 141.51 37.9757 141.546 38.1198C141.578 38.2639 141.597 38.428 141.597 38.6121V40.5651C141.597 40.8372 141.566 41.0653 141.502 41.2494C141.438 41.4335 141.339 41.5736 141.2 41.6657C141.065 41.7657 140.886 41.8097 140.667 41.8097ZM140.667 41.2494C140.746 41.2494 140.806 41.2254 140.85 41.1774C140.89 41.1294 140.917 41.0533 140.929 40.9573C140.941 40.8572 140.949 40.7332 140.949 40.5811V38.5921C140.949 38.408 140.933 38.2639 140.898 38.1598C140.862 38.0558 140.79 38.0077 140.675 38.0077C140.555 38.0077 140.476 38.0558 140.436 38.1558C140.392 38.2519 140.373 38.4 140.373 38.5881V40.5811C140.373 40.7372 140.381 40.8652 140.392 40.9653C140.404 41.0653 140.436 41.1374 140.476 41.1854C140.52 41.2254 140.583 41.2494 140.667 41.2494Z" fill="white"/>
<path d="M142.675 41.7624V37.4922H143.18L144.079 40.0535L144.031 38.8889V37.4922H144.612V41.7624H144.155L143.232 39.109L143.268 40.2296V41.7624H142.675Z" fill="white"/>
<path d="M145.749 41.7624V37.4922H146.398V41.2101H147.217V41.7624H145.749Z" fill="white"/>
<path d="M148.072 41.7624V37.4922H148.72V41.7624H148.072Z" fill="white"/>
<path d="M149.857 41.7624V37.4922H150.363L151.261 40.0535L151.214 38.8889V37.4922H151.794V41.7624H151.337L150.414 39.109L150.45 40.2296V41.7624H149.857Z" fill="white"/>
<path d="M152.932 41.7624V37.4922H154.355V38.0525H153.58V39.2931H154.32V39.8414H153.58V41.2021H154.387V41.7624H152.932Z" fill="white"/>
<path d="M156.734 41.7624V37.4922H157.684C157.899 37.4922 158.074 37.5362 158.201 37.6203C158.332 37.7083 158.428 37.8324 158.483 37.9965C158.539 38.1605 158.571 38.3566 158.571 38.5888L158.575 40.5138C158.575 40.7939 158.543 41.026 158.483 41.2101C158.424 41.3942 158.324 41.5343 158.193 41.6223C158.058 41.7144 157.883 41.7584 157.66 41.7584H156.734V41.7624ZM157.378 41.2582H157.589C157.664 41.2582 157.728 41.2421 157.779 41.2141C157.831 41.1821 157.867 41.1301 157.891 41.05C157.915 40.97 157.927 40.8619 157.927 40.7179L157.923 38.6088C157.923 38.3887 157.895 38.2326 157.843 38.1365C157.791 38.0405 157.696 37.9924 157.565 37.9924H157.374V41.2582H157.378Z" fill="white"/>
<path d="M159.406 41.7624L160.01 37.4922H160.866L161.51 41.7624H160.905L160.806 41.002H160.122L160.03 41.7624H159.406ZM160.181 40.4777H160.734L160.452 38.3326H160.444L160.181 40.4777Z" fill="white"/>
<path d="M162.488 41.7625V38.0526H161.991V37.4883H163.61V38.0526H163.132V41.7625H162.488Z" fill="white"/>
<path d="M164.481 41.7624V37.4922H165.129V41.7624H164.481Z" fill="white"/>
<path d="M166.266 41.7624V37.4922H166.771L167.67 40.0535L167.622 38.8889V37.4922H168.203V41.7624H167.746L166.823 39.109L166.859 40.2296V41.7624H166.266Z" fill="white"/>
<path d="M170.136 41.8056C169.881 41.8056 169.674 41.7056 169.519 41.5015C169.364 41.2974 169.285 40.9692 169.285 40.513V38.656C169.285 38.4639 169.304 38.2958 169.34 38.1437C169.376 37.9916 169.432 37.8676 169.507 37.7595C169.583 37.6555 169.682 37.5754 169.806 37.5234C169.929 37.4674 170.076 37.4434 170.247 37.4434C170.434 37.4434 170.585 37.4714 170.704 37.5274C170.824 37.5834 170.911 37.6635 170.975 37.7715C171.038 37.8756 171.082 38.0077 171.106 38.1597C171.13 38.3118 171.142 38.4879 171.142 38.68V38.9842H170.537V38.5359C170.537 38.3438 170.517 38.2078 170.478 38.1277C170.438 38.0477 170.362 38.0077 170.255 38.0077C170.136 38.0077 170.052 38.0557 170.004 38.1477C169.957 38.2438 169.933 38.4119 169.933 38.652V40.505C169.933 40.7731 169.953 40.9652 169.993 41.0813C170.032 41.1973 170.116 41.2533 170.239 41.2533C170.362 41.2533 170.446 41.1933 170.498 41.0733C170.549 40.9532 170.573 40.7571 170.573 40.4769V39.9006H170.247V39.4284H171.138V41.7616H170.848L170.748 41.3414C170.712 41.4895 170.637 41.6015 170.521 41.6816C170.406 41.7616 170.283 41.8056 170.136 41.8056Z" fill="white"/>
<path d="M173.623 41.7624V37.4922H175.047V38.0525H174.272V39.2931H175.011V39.8414H174.272V41.2021H175.079V41.7624H173.623Z" fill="white"/>
<path d="M175.827 41.7624L176.479 39.4732L175.827 37.4922H176.371L176.793 38.7608L177.131 37.4922H177.736L177.095 39.6773L177.787 41.7624H177.226L176.793 40.4497L176.443 41.7624H175.827Z" fill="white"/>
<path d="M178.706 41.7624V37.4922H179.68C179.847 37.4922 179.99 37.5162 180.102 37.5682C180.213 37.6203 180.301 37.6963 180.364 37.8003C180.428 37.9004 180.476 38.0285 180.499 38.1765C180.527 38.3246 180.539 38.5007 180.539 38.6928V38.7809C180.539 39.057 180.515 39.2891 180.468 39.4852C180.42 39.6813 180.336 39.8254 180.213 39.9255C180.09 40.0255 179.919 40.0775 179.696 40.0775H179.346V41.7624H178.706ZM179.35 39.5413H179.573C179.668 39.5413 179.74 39.5172 179.784 39.4692C179.827 39.4212 179.863 39.3412 179.875 39.2291C179.891 39.117 179.899 38.965 179.899 38.7809V38.6968C179.899 38.4647 179.879 38.2886 179.839 38.1725C179.8 38.0525 179.712 37.9924 179.577 37.9924H179.35V39.5413Z" fill="white"/>
<path d="M181.47 41.7624V37.4922H182.894V38.0525H182.118V39.2931H182.858V39.8414H182.118V41.2021H182.925V41.7624H181.47Z" fill="white"/>
<path d="M183.896 41.7624V37.4922H184.966C185.188 37.4922 185.351 37.5362 185.463 37.6243C185.574 37.7123 185.646 37.8404 185.677 38.0085C185.713 38.1765 185.729 38.3807 185.729 38.6248C185.729 38.8769 185.705 39.073 185.654 39.2171C185.602 39.3612 185.498 39.4572 185.343 39.5052C185.419 39.5172 185.479 39.5493 185.53 39.5973C185.582 39.6453 185.622 39.7133 185.65 39.8054C185.681 39.8974 185.701 40.0135 185.717 40.1576C185.733 40.3017 185.737 40.4777 185.737 40.6819C185.737 40.6979 185.737 40.7419 185.737 40.8179C185.737 40.894 185.737 40.982 185.737 41.0821C185.737 41.1821 185.737 41.2822 185.741 41.3822C185.741 41.4823 185.745 41.5663 185.749 41.6384C185.753 41.7104 185.757 41.7504 185.761 41.7664H185.113C185.109 41.7584 185.105 41.7184 185.101 41.6424C185.097 41.5663 185.097 41.4703 185.093 41.3542C185.089 41.2381 185.089 41.1141 185.089 40.978C185.089 40.8419 185.089 40.7099 185.089 40.5818C185.089 40.4537 185.089 40.3377 185.089 40.2376C185.089 40.1096 185.081 40.0135 185.061 39.9495C185.041 39.8854 185.009 39.8374 184.962 39.8134C184.914 39.7894 184.842 39.7734 184.751 39.7654L184.544 39.7534V41.7704H183.896V41.7624ZM184.544 39.2411H184.802C184.882 39.2411 184.942 39.2251 184.981 39.1891C185.021 39.1531 185.049 39.089 185.065 38.993C185.081 38.8969 185.089 38.7608 185.089 38.5808V38.5527C185.089 38.4007 185.081 38.2846 185.069 38.2046C185.053 38.1245 185.025 38.0685 184.977 38.0365C184.93 38.0045 184.862 37.9884 184.763 37.9884H184.544V39.2411Z" fill="white"/>
<path d="M186.791 41.7624V37.4922H187.439V41.7624H186.791Z" fill="white"/>
<path d="M188.581 41.7624V37.4922H190.004V38.0525H189.229V39.2931H189.968V39.8414H189.229V41.2021H190.036V41.7624H188.581Z" fill="white"/>
<path d="M191.006 41.7624V37.4922H191.512L192.41 40.0535L192.363 38.8889V37.4922H192.943V41.7624H192.486L191.563 39.109L191.599 40.2296V41.7624H191.006Z" fill="white"/>
<path d="M194.948 41.8097C194.741 41.8097 194.57 41.7617 194.435 41.6657C194.299 41.5696 194.196 41.4295 194.128 41.2454C194.061 41.0613 194.025 40.8412 194.025 40.5771V38.7161C194.025 38.52 194.041 38.3439 194.073 38.1878C194.104 38.0318 194.156 37.8957 194.228 37.7836C194.299 37.6716 194.395 37.5875 194.518 37.5275C194.637 37.4675 194.788 37.4395 194.963 37.4395C195.123 37.4395 195.262 37.4675 195.373 37.5195C195.488 37.5715 195.58 37.6476 195.651 37.7476C195.723 37.8477 195.775 37.9637 195.807 38.1038C195.838 38.2439 195.854 38.4 195.854 38.576V39.1644H195.23V38.6201C195.23 38.408 195.214 38.2559 195.178 38.1558C195.142 38.0558 195.071 38.0077 194.967 38.0077C194.852 38.0077 194.773 38.0598 194.733 38.1678C194.693 38.2759 194.673 38.424 194.673 38.6201V40.6131C194.673 40.7612 194.681 40.8852 194.697 40.9773C194.713 41.0733 194.741 41.1414 194.78 41.1854C194.82 41.2294 194.876 41.2534 194.948 41.2534C195.055 41.2534 195.13 41.2014 195.17 41.0974C195.21 40.9933 195.23 40.8292 195.23 40.6051V39.9928H195.862V40.5971C195.862 40.8652 195.83 41.0934 195.767 41.2735C195.703 41.4535 195.604 41.5896 195.469 41.6777C195.341 41.7657 195.162 41.8097 194.948 41.8097Z" fill="white"/>
<path d="M196.908 41.7624V37.4922H198.332V38.0525H197.556V39.2931H198.296V39.8414H197.556V41.2021H198.364V41.7624H196.908Z" fill="white"/>
</svg>
