<svg width="40" height="40" viewBox="0 0 40 40" fill="none" xmlns="http://www.w3.org/2000/svg">
<circle cx="20" cy="20" r="20" fill="#3360E9" fill-opacity="0.5"/>
<circle cx="19.9997" cy="20.0007" r="14.6667" fill="#2C037E"/>
<path d="M11.248 26V24.48L14.992 20.576C15.4613 20.0853 15.808 19.632 16.032 19.216C16.256 18.8 16.368 18.3733 16.368 17.936C16.368 17.392 16.1973 16.9813 15.856 16.704C15.5147 16.4267 15.0187 16.288 14.368 16.288C13.8453 16.288 13.344 16.384 12.864 16.576C12.384 16.7573 11.9147 17.0453 11.456 17.44L10.784 15.904C11.2427 15.4987 11.808 15.1733 12.48 14.928C13.1627 14.6827 13.8773 14.56 14.624 14.56C15.84 14.56 16.7733 14.832 17.424 15.376C18.0747 15.92 18.4 16.6987 18.4 17.712C18.4 18.416 18.2347 19.088 17.904 19.728C17.5733 20.3573 17.0613 21.0187 16.368 21.712L13.248 24.832V24.288H18.848V26H11.248ZM24.4738 26.16C23.9831 26.16 23.4924 26.1067 23.0018 26C22.5218 25.8933 22.0684 25.744 21.6418 25.552C21.2258 25.36 20.8684 25.1307 20.5698 24.864L21.2418 23.312C21.7431 23.6853 22.2551 23.968 22.7778 24.16C23.3111 24.3413 23.8658 24.432 24.4418 24.432C25.1351 24.432 25.6738 24.2613 26.0578 23.92C26.4524 23.568 26.6498 23.0987 26.6498 22.512C26.6498 21.9147 26.4631 21.4347 26.0898 21.072C25.7164 20.6987 25.2044 20.512 24.5538 20.512C24.0951 20.512 23.6738 20.6027 23.2898 20.784C22.9164 20.9547 22.5804 21.2213 22.2818 21.584H20.9218V14.72H27.9298V16.416H22.8738V20H22.3778C22.6551 19.6267 23.0231 19.3387 23.4818 19.136C23.9511 18.9333 24.4738 18.832 25.0498 18.832C25.7751 18.832 26.4044 18.9813 26.9378 19.28C27.4711 19.5787 27.8871 20 28.1858 20.544C28.4844 21.0773 28.6337 21.7067 28.6337 22.432C28.6337 23.168 28.4631 23.8187 28.1218 24.384C27.7911 24.9387 27.3111 25.376 26.6818 25.696C26.0631 26.0053 25.3271 26.16 24.4738 26.16Z" fill="white"/>
</svg>
