<svg width="304" height="304" viewBox="0 0 304 304" fill="none" xmlns="http://www.w3.org/2000/svg">
<g filter="url(#filter0_d_672_16)">
<rect width="300" height="300" rx="5" fill="#1E2233"/>
</g>
<path d="M248.785 173.683C261.606 119.385 227.982 64.9733 173.684 52.1519C119.386 39.3305 64.9746 72.9542 52.1532 127.253C39.3319 181.551 72.9556 235.962 127.254 248.783C181.552 261.605 235.963 227.981 248.785 173.683Z" stroke="#3A3D4C" stroke-width="7.2789" stroke-miterlimit="10" stroke-dasharray="2.09 2.09"/>
<path d="M150.47 235.004C197.166 235.004 235.021 197.15 235.021 150.453C235.021 103.757 197.166 65.9023 150.47 65.9023C103.774 65.9023 65.9188 103.757 65.9188 150.453C65.9188 197.15 103.774 235.004 150.47 235.004Z" stroke="white" stroke-width="1.5339" stroke-miterlimit="10"/>
<path d="M169.546 51.2246C216.221 60.1413 251.493 101.174 251.493 150.453C251.493 206.241 206.258 251.476 150.47 251.476C143.644 251.476 136.976 250.805 130.545 249.503" stroke="#05B7FD" stroke-width="7.2789" stroke-miterlimit="10" stroke-dasharray="2.08 2.08"/>
<path d="M103.61 158.2C102.144 158.2 100.884 157.907 99.8302 157.32C98.7902 156.72 97.9902 155.88 97.4302 154.8C96.8702 153.707 96.5902 152.42 96.5902 150.94C96.5902 149.46 96.8702 148.18 97.4302 147.1C97.9902 146.02 98.7902 145.187 99.8302 144.6C100.884 144 102.144 143.7 103.61 143.7C104.597 143.7 105.484 143.84 106.27 144.12C107.07 144.4 107.757 144.813 108.33 145.36L107.49 147.4C106.864 146.893 106.257 146.533 105.67 146.32C105.097 146.093 104.437 145.98 103.69 145.98C102.264 145.98 101.17 146.413 100.41 147.28C99.6636 148.133 99.2902 149.353 99.2902 150.94C99.2902 152.527 99.6636 153.753 100.41 154.62C101.17 155.487 102.264 155.92 103.69 155.92C104.437 155.92 105.097 155.813 105.67 155.6C106.257 155.373 106.864 155 107.49 154.48L108.33 156.52C107.757 157.053 107.07 157.467 106.27 157.76C105.484 158.053 104.597 158.2 103.61 158.2ZM114.399 158.2C113.359 158.2 112.459 157.987 111.699 157.56C110.939 157.133 110.345 156.527 109.919 155.74C109.505 154.953 109.299 154.02 109.299 152.94C109.299 151.86 109.505 150.933 109.919 150.16C110.345 149.373 110.939 148.767 111.699 148.34C112.459 147.913 113.359 147.7 114.399 147.7C115.439 147.7 116.339 147.913 117.099 148.34C117.872 148.767 118.465 149.373 118.879 150.16C119.305 150.933 119.519 151.86 119.519 152.94C119.519 154.02 119.305 154.953 118.879 155.74C118.465 156.527 117.872 157.133 117.099 157.56C116.339 157.987 115.439 158.2 114.399 158.2ZM114.399 156.28C115.185 156.28 115.812 156.007 116.279 155.46C116.745 154.9 116.979 154.06 116.979 152.94C116.979 151.82 116.745 150.987 116.279 150.44C115.812 149.893 115.185 149.62 114.399 149.62C113.612 149.62 112.985 149.893 112.519 150.44C112.052 150.987 111.819 151.82 111.819 152.94C111.819 154.06 112.052 154.9 112.519 155.46C112.985 156.007 113.612 156.28 114.399 156.28ZM125.314 158.2C124.074 158.2 123.148 157.86 122.534 157.18C121.921 156.5 121.614 155.46 121.614 154.06V147.9H124.114V154.04C124.114 154.787 124.268 155.34 124.574 155.7C124.881 156.047 125.348 156.22 125.974 156.22C126.681 156.22 127.254 155.98 127.694 155.5C128.148 155.02 128.374 154.387 128.374 153.6V147.9H130.874V158H128.434V155.94H128.714C128.421 156.66 127.974 157.22 127.374 157.62C126.788 158.007 126.101 158.2 125.314 158.2ZM133.589 158V150.42C133.589 150.007 133.575 149.587 133.549 149.16C133.522 148.733 133.482 148.313 133.429 147.9H135.849L136.049 149.9H135.809C136.129 149.193 136.602 148.653 137.229 148.28C137.855 147.893 138.582 147.7 139.409 147.7C140.595 147.7 141.489 148.033 142.089 148.7C142.689 149.367 142.989 150.407 142.989 151.82V158H140.489V151.94C140.489 151.127 140.329 150.547 140.009 150.2C139.702 149.84 139.235 149.66 138.609 149.66C137.835 149.66 137.222 149.9 136.769 150.38C136.315 150.86 136.089 151.5 136.089 152.3V158H133.589ZM149.959 158.2C148.759 158.2 147.853 157.887 147.239 157.26C146.626 156.633 146.319 155.693 146.319 154.44V149.78H144.379V147.9H146.319V145.32L148.819 144.68V147.9H151.519V149.78H148.819V154.28C148.819 154.973 148.953 155.46 149.219 155.74C149.486 156.02 149.853 156.16 150.319 156.16C150.573 156.16 150.786 156.14 150.959 156.1C151.146 156.06 151.326 156.007 151.499 155.94V157.92C151.273 158.013 151.019 158.08 150.739 158.12C150.473 158.173 150.213 158.2 149.959 158.2ZM157.04 158.2C156.16 158.2 155.38 157.993 154.7 157.58C154.033 157.153 153.513 156.547 153.14 155.76C152.766 154.973 152.58 154.033 152.58 152.94C152.58 151.847 152.766 150.913 153.14 150.14C153.513 149.353 154.033 148.753 154.7 148.34C155.38 147.913 156.16 147.7 157.04 147.7C157.88 147.7 158.62 147.907 159.26 148.32C159.913 148.72 160.346 149.267 160.56 149.96H160.3V143.28H162.8V158H160.34V155.86H160.58C160.366 156.58 159.933 157.153 159.28 157.58C158.64 157.993 157.893 158.2 157.04 158.2ZM157.74 156.28C158.526 156.28 159.16 156.007 159.64 155.46C160.12 154.9 160.36 154.06 160.36 152.94C160.36 151.82 160.12 150.987 159.64 150.44C159.16 149.893 158.526 149.62 157.74 149.62C156.953 149.62 156.313 149.893 155.82 150.44C155.34 150.987 155.1 151.82 155.1 152.94C155.1 154.06 155.34 154.9 155.82 155.46C156.313 156.007 156.953 156.28 157.74 156.28ZM170.082 158.2C169.042 158.2 168.142 157.987 167.382 157.56C166.622 157.133 166.029 156.527 165.602 155.74C165.189 154.953 164.982 154.02 164.982 152.94C164.982 151.86 165.189 150.933 165.602 150.16C166.029 149.373 166.622 148.767 167.382 148.34C168.142 147.913 169.042 147.7 170.082 147.7C171.122 147.7 172.022 147.913 172.782 148.34C173.555 148.767 174.149 149.373 174.562 150.16C174.989 150.933 175.202 151.86 175.202 152.94C175.202 154.02 174.989 154.953 174.562 155.74C174.149 156.527 173.555 157.133 172.782 157.56C172.022 157.987 171.122 158.2 170.082 158.2ZM170.082 156.28C170.869 156.28 171.495 156.007 171.962 155.46C172.429 154.9 172.662 154.06 172.662 152.94C172.662 151.82 172.429 150.987 171.962 150.44C171.495 149.893 170.869 149.62 170.082 149.62C169.295 149.62 168.669 149.893 168.202 150.44C167.735 150.987 167.502 151.82 167.502 152.94C167.502 154.06 167.735 154.9 168.202 155.46C168.669 156.007 169.295 156.28 170.082 156.28ZM179.963 158L176.023 147.9H178.603L181.443 155.76H180.923L183.803 147.9H185.583L188.443 155.76H187.983L190.803 147.9H193.243L189.303 158H187.103L184.083 149.96H185.143L182.183 158H179.963ZM194.819 158V150.42C194.819 150.007 194.806 149.587 194.779 149.16C194.752 148.733 194.712 148.313 194.659 147.9H197.079L197.279 149.9H197.039C197.359 149.193 197.832 148.653 198.459 148.28C199.086 147.893 199.812 147.7 200.639 147.7C201.826 147.7 202.719 148.033 203.319 148.7C203.919 149.367 204.219 150.407 204.219 151.82V158H201.719V151.94C201.719 151.127 201.559 150.547 201.239 150.2C200.932 149.84 200.466 149.66 199.839 149.66C199.066 149.66 198.452 149.9 197.999 150.38C197.546 150.86 197.319 151.5 197.319 152.3V158H194.819Z" fill="white"/>
<defs>
<filter id="filter0_d_672_16" x="0" y="0" width="304" height="304" filterUnits="userSpaceOnUse" color-interpolation-filters="sRGB">
<feFlood flood-opacity="0" result="BackgroundImageFix"/>
<feColorMatrix in="SourceAlpha" type="matrix" values="0 0 0 0 0 0 0 0 0 0 0 0 0 0 0 0 0 0 127 0" result="hardAlpha"/>
<feOffset dx="2" dy="2"/>
<feGaussianBlur stdDeviation="1"/>
<feComposite in2="hardAlpha" operator="out"/>
<feColorMatrix type="matrix" values="0 0 0 0 0 0 0 0 0 0 0 0 0 0 0 0 0 0 0.25 0"/>
<feBlend mode="normal" in2="BackgroundImageFix" result="effect1_dropShadow_672_16"/>
<feBlend mode="normal" in="SourceGraphic" in2="effect1_dropShadow_672_16" result="shape"/>
</filter>
</defs>
</svg>
