<svg width="237" height="194" viewBox="0 0 237 194" fill="none" xmlns="http://www.w3.org/2000/svg">
<path d="M99.0519 151.864C99.0658 153.598 99.7668 155.255 101.001 156.473C102.235 157.69 103.902 158.368 105.635 158.357L217.807 157.552C219.54 157.539 221.196 156.838 222.413 155.603C223.629 154.368 224.305 152.7 224.293 150.966C224.28 149.232 223.58 147.574 222.346 146.356C221.112 145.139 219.446 144.461 217.713 144.473L105.541 145.277C103.808 145.291 102.152 145.993 100.935 147.227C99.7182 148.462 99.041 150.13 99.0519 151.864Z" fill="#F2F2F2"/>
<path d="M112.507 150.297C112.507 150.187 112.55 150.082 112.628 150.004C112.705 149.926 112.811 149.882 112.921 149.881L141.893 149.777C141.948 149.777 142.002 149.788 142.052 149.808C142.103 149.829 142.148 149.859 142.187 149.898C142.226 149.936 142.256 149.982 142.277 150.032C142.298 150.082 142.309 150.136 142.31 150.191C142.31 150.245 142.299 150.299 142.279 150.35C142.258 150.4 142.227 150.446 142.189 150.485C142.151 150.523 142.105 150.554 142.055 150.575C142.005 150.596 141.951 150.607 141.896 150.607L112.924 150.711C112.814 150.711 112.708 150.668 112.63 150.59C112.552 150.513 112.508 150.408 112.507 150.297Z" fill="#CCCCCC"/>
<path d="M112.541 154.105C112.54 153.995 112.584 153.89 112.661 153.812C112.739 153.734 112.844 153.689 112.954 153.689L187.55 153.246C187.604 153.246 187.658 153.256 187.709 153.277C187.759 153.297 187.805 153.328 187.844 153.366C187.882 153.404 187.913 153.45 187.934 153.5C187.956 153.55 187.967 153.604 187.967 153.659C187.967 153.713 187.957 153.767 187.936 153.818C187.916 153.868 187.885 153.914 187.847 153.953C187.809 153.992 187.763 154.023 187.713 154.044C187.663 154.065 187.609 154.076 187.554 154.076H187.553L112.957 154.519C112.847 154.519 112.741 154.476 112.663 154.398C112.585 154.321 112.541 154.215 112.541 154.105Z" fill="#CCCCCC"/>
<path d="M99.0519 126.967C99.0658 128.701 99.7668 130.359 101.001 131.576C102.235 132.794 103.902 133.471 105.635 133.46L217.807 132.656C219.54 132.643 221.196 131.941 222.413 130.706C223.629 129.471 224.305 127.803 224.293 126.069C224.28 124.335 223.58 122.677 222.346 121.46C221.112 120.242 219.446 119.565 217.713 119.576L105.541 120.381C103.808 120.395 102.152 121.096 100.935 122.331C99.7182 123.566 99.041 125.233 99.0519 126.967Z" fill="#F2F2F2"/>
<path d="M111.275 129.211C111.275 129.101 111.318 128.995 111.396 128.917C111.473 128.839 111.579 128.795 111.689 128.794L186.285 128.352C186.339 128.351 186.393 128.362 186.443 128.383C186.494 128.403 186.54 128.434 186.578 128.472C186.617 128.51 186.648 128.556 186.669 128.606C186.69 128.657 186.701 128.711 186.701 128.765C186.701 128.82 186.69 128.874 186.67 128.924C186.649 128.974 186.619 129.02 186.58 129.059C186.542 129.098 186.496 129.128 186.446 129.149C186.396 129.171 186.342 129.181 186.288 129.182L111.692 129.624C111.582 129.625 111.476 129.581 111.398 129.504C111.32 129.426 111.276 129.321 111.275 129.211Z" fill="#CCCCCC"/>
<path d="M111.275 124.99C111.275 124.88 111.318 124.774 111.396 124.696C111.473 124.618 111.579 124.574 111.689 124.574L186.285 124.131C186.339 124.131 186.393 124.141 186.443 124.162C186.494 124.183 186.54 124.213 186.578 124.251C186.617 124.29 186.648 124.335 186.669 124.386C186.69 124.436 186.701 124.49 186.701 124.544C186.701 124.599 186.69 124.653 186.67 124.703C186.649 124.754 186.619 124.8 186.58 124.838C186.542 124.877 186.496 124.908 186.446 124.929C186.396 124.95 186.342 124.961 186.288 124.961L111.692 125.404C111.582 125.404 111.476 125.361 111.398 125.283C111.32 125.206 111.276 125.1 111.275 124.99Z" fill="#CCCCCC"/>
<path d="M131.88 180.721L19.7089 179.916C17.976 179.905 16.3093 180.582 15.0755 181.8C13.8416 183.017 13.1415 184.675 13.1291 186.409C13.1167 188.143 13.7929 189.811 15.0092 191.046C16.2255 192.281 17.8823 192.983 19.6152 192.996L131.787 193.8C133.52 193.812 135.186 193.134 136.42 191.917C137.654 190.699 138.354 189.041 138.367 187.307C138.379 185.573 137.703 183.905 136.486 182.67C135.27 181.435 133.613 180.734 131.88 180.721Z" fill="#F2F2F2"/>
<path d="M54.9172 186.154L25.9446 186.051C25.8901 186.051 25.8362 186.04 25.786 186.019C25.7357 185.998 25.6901 185.967 25.6517 185.928C25.6133 185.889 25.5829 185.844 25.5623 185.793C25.5416 185.743 25.5311 185.689 25.5313 185.634C25.5314 185.58 25.5424 185.526 25.5634 185.476C25.5844 185.425 25.6151 185.38 25.6538 185.341C25.6924 185.303 25.7383 185.272 25.7887 185.252C25.8391 185.231 25.8931 185.221 25.9475 185.221L54.9202 185.324C54.9748 185.324 55.0288 185.335 55.0792 185.356C55.1296 185.377 55.1753 185.408 55.2138 185.447C55.2523 185.485 55.2828 185.531 55.3036 185.582C55.3243 185.632 55.3349 185.686 55.3347 185.741C55.3345 185.795 55.3235 185.85 55.3024 185.9C55.2813 185.95 55.2505 185.996 55.2117 186.034C55.173 186.073 55.127 186.103 55.0765 186.124C55.0259 186.144 54.9718 186.155 54.9172 186.154Z" fill="#CCCCCC"/>
<path d="M100.85 189.96L26.2537 189.518C26.1992 189.517 26.1453 189.506 26.095 189.485C26.0448 189.464 25.9992 189.434 25.9608 189.395C25.9224 189.356 25.892 189.31 25.8713 189.26C25.8507 189.21 25.8401 189.156 25.8403 189.101C25.8405 189.047 25.8514 188.993 25.8725 188.942C25.8935 188.892 25.9242 188.846 25.9629 188.808C26.0015 188.77 26.0474 188.739 26.0978 188.719C26.1482 188.698 26.2021 188.687 26.2566 188.688L100.852 189.13C100.907 189.13 100.961 189.141 101.011 189.162C101.061 189.183 101.107 189.214 101.145 189.253C101.184 189.292 101.214 189.337 101.235 189.388C101.255 189.438 101.266 189.492 101.266 189.547C101.266 189.601 101.255 189.655 101.234 189.706C101.213 189.756 101.182 189.801 101.143 189.84C101.105 189.878 101.059 189.909 101.008 189.929C100.958 189.95 100.904 189.961 100.85 189.96Z" fill="#CCCCCC"/>
<path d="M234.048 129.395C235.678 129.395 237 128.073 237 126.442C237 124.811 235.678 123.488 234.048 123.488C232.418 123.488 231.096 124.811 231.096 126.442C231.096 128.073 232.418 129.395 234.048 129.395Z" fill="#F2F2F2"/>
<path d="M234.048 154.288C235.678 154.288 237 152.966 237 151.334C237 149.703 235.678 148.381 234.048 148.381C232.418 148.381 231.096 149.703 231.096 151.334C231.096 152.966 232.418 154.288 234.048 154.288Z" fill="#F2F2F2"/>
<path d="M101.517 170.035L20.3612 182.198C19.6999 182.298 19.0254 182.266 18.3763 182.105C17.7273 181.944 17.1164 181.656 16.5785 181.258C16.0406 180.861 15.5863 180.361 15.2416 179.787C14.8969 179.214 14.6684 178.578 14.5694 177.917C14.4703 177.255 14.5025 176.58 14.6642 175.931C14.8259 175.282 15.1139 174.67 15.5117 174.133C15.9095 173.595 16.4093 173.141 16.9826 172.796C17.5559 172.452 18.1915 172.223 18.8529 172.125L100.009 159.961C100.67 159.861 101.345 159.893 101.994 160.054C102.643 160.216 103.254 160.504 103.792 160.901C104.329 161.299 104.784 161.799 105.129 162.372C105.473 162.945 105.702 163.581 105.801 164.243C105.9 164.905 105.868 165.579 105.706 166.229C105.544 166.878 105.256 167.489 104.858 168.027C104.461 168.565 103.961 169.019 103.388 169.363C102.814 169.708 102.179 169.936 101.517 170.035Z" fill="#0183FE"/>
<path d="M45.0504 172.938L24.1005 176.155C24.0209 176.167 23.9398 176.147 23.8749 176.099C23.81 176.052 23.7667 175.98 23.7545 175.901C23.7423 175.821 23.7622 175.74 23.8098 175.675C23.8574 175.61 23.9289 175.567 24.0084 175.554L44.9583 172.337C45.0378 172.325 45.119 172.345 45.1839 172.393C45.2488 172.44 45.2921 172.512 45.3043 172.592C45.3165 172.671 45.2966 172.752 45.249 172.817C45.2014 172.882 45.1299 172.926 45.0504 172.938Z" fill="white"/>
<path d="M78.6773 170.469L24.7177 178.625C24.6381 178.637 24.557 178.617 24.4921 178.569C24.4272 178.522 24.3839 178.45 24.3717 178.371C24.3595 178.291 24.3794 178.21 24.427 178.145C24.4746 178.08 24.546 178.037 24.6256 178.025L78.5852 169.869C78.6247 169.863 78.6649 169.864 78.7037 169.874C78.7425 169.883 78.779 169.9 78.8112 169.924C78.8434 169.947 78.8707 169.977 78.8914 170.011C78.9121 170.045 78.9259 170.083 78.9319 170.123C78.938 170.162 78.9362 170.203 78.9267 170.241C78.9172 170.28 78.9001 170.317 78.8764 170.349C78.8528 170.381 78.823 170.408 78.7888 170.429C78.7547 170.449 78.7168 170.463 78.6773 170.469Z" fill="white"/>
<path d="M82.6642 163.912C82.3495 163.894 82.0424 163.807 81.7644 163.659C81.4863 163.51 81.2438 163.303 81.0537 163.051C80.8636 162.799 80.7304 162.509 80.6633 162.201C80.5962 161.893 80.5968 161.574 80.6651 161.266L71.8442 154.945L72.9917 152.074L83.4135 159.658C83.9231 159.812 84.3586 160.147 84.6376 160.6C84.9167 161.054 85.0198 161.594 84.9274 162.118C84.835 162.642 84.5536 163.115 84.1365 163.445C83.7194 163.776 83.1955 163.942 82.6642 163.912Z" fill="#A0616A"/>
<path d="M58.9668 128.572L53.6664 130.513C53.4334 130.598 53.2196 130.729 53.037 130.897C52.8545 131.065 52.7067 131.267 52.6023 131.492C52.4979 131.717 52.4388 131.961 52.4284 132.208C52.418 132.456 52.4565 132.704 52.5418 132.937C52.5626 132.994 52.5861 133.05 52.6123 133.104L59.8391 148.188L77.2517 160.745L79.9206 156.49L66.7304 144.473L58.9668 128.572Z" fill="#080343"/>
<path d="M56.7875 159.765C50.7471 159.203 44.83 157.808 38.7803 157.339L41.2082 151.156L53.6161 153.005L56.7875 159.765Z" fill="#A0616A"/>
<path d="M36.2938 161.221L36.2414 161.684L35.8095 165.403L35.3035 165.434L35.2758 170.092C35.4348 170.553 35.434 171.054 35.2733 171.514C35.1127 171.975 34.8016 172.367 34.3904 172.629C34.3222 172.673 34.251 172.712 34.1775 172.746C33.8698 170.329 33.9626 167.877 34.4521 165.49C34.6485 164.601 34.9381 163.736 35.3159 162.909C35.5062 162.5 35.7226 162.103 35.9637 161.721C36.0655 161.551 36.1766 161.384 36.2938 161.221Z" fill="#2F2E41"/>
<path d="M36.3894 160.416L36.2937 161.215V161.219L36.2413 161.682C36.1055 161.7 36.0099 161.712 35.9636 161.719C35.9524 161.72 35.9411 161.721 35.9297 161.722L36.3894 160.416Z" fill="#6C63FF"/>
<path d="M58.3549 145.09L57.3122 151.159C57.3122 151.159 59.845 156.869 58.102 158.292C57.8888 158.483 57.7247 158.723 57.6238 158.991C57.5228 159.259 57.4879 159.548 57.522 159.832C57.2752 159.811 57.0315 159.789 56.7877 159.768C50.7473 159.206 44.8302 157.811 38.7805 157.341C38.3516 157.308 37.9259 157.277 37.4971 157.255L39.3604 151.952L38.1018 147.239L36.7968 142.35L36.5161 134.299C36.5094 134.147 36.5104 133.995 36.5191 133.843C36.5191 133.762 36.5222 133.685 36.5284 133.605C36.5963 132.588 36.8908 131.6 37.3905 130.712C37.8902 129.824 38.5823 129.06 39.416 128.475C39.4183 128.475 39.4205 128.473 39.4222 128.472C39.7065 128.272 40.0055 128.095 40.3168 127.941C40.6512 127.775 40.999 127.638 41.3565 127.53L41.7143 127.422L43.6517 124.286L45.8976 124.052L46.7306 123.965L52.1571 123.4L53.3263 124.919L53.5392 125.197L54.3629 126.265L56.9296 127.632C57.4907 127.93 58.0035 128.311 58.4505 128.762C59.5 129.812 60.1513 131.195 60.2923 132.673C60.3263 133.013 60.3325 133.356 60.3108 133.698L58.3549 145.09Z" fill="#080343"/>
<path d="M31.9404 117.76C31.8847 120.159 32.7808 122.481 34.0681 124.522C34.4981 123.337 35.1003 122.222 35.8552 121.213C35.4937 123.449 35.8787 125.741 36.9507 127.736C36.9885 127.763 37.0276 127.788 37.0679 127.811C37.5826 128.145 38.1666 128.358 38.7755 128.432C39.3845 128.507 40.0024 128.442 40.5825 128.242C39.4366 126.944 38.7494 125.306 38.6269 123.578C38.5045 121.851 38.9537 120.131 39.9051 118.685C40.4617 117.88 41.1817 117.168 41.5265 116.252C42.0709 114.79 41.5475 113.181 41.2174 111.657C40.9087 110.238 40.8547 108.55 41.8058 107.511C41.7042 107.365 41.5658 107.25 41.4049 107.176C41.2439 107.101 41.0661 107.071 40.8898 107.089C40.6031 107.162 40.3375 107.301 40.1143 107.495C39.8911 107.689 39.7165 107.933 39.6047 108.207C39.3853 108.756 39.107 109.279 38.7747 109.768C38.0731 110.617 36.8782 110.818 35.8713 111.265C33.4328 112.352 31.9989 115.09 31.9404 117.76Z" fill="#2F2E41"/>
<path d="M52.466 116.386C52.3267 115.898 53.2871 118.881 52.8237 118.935C50.7128 119.177 47.815 120.439 46.3448 121.027C46.2786 121.02 46.2124 121.012 46.1481 121.002C45.9904 120.985 45.8366 120.96 45.6847 120.931C42.2613 120.283 40.9448 115.022 40.9448 114.973C40.9448 114.737 41.5122 108.24 42.406 108.144C42.6408 108.119 42.8768 108.106 43.1129 108.106H45.3309C45.7899 108.007 46.2551 107.939 46.7232 107.904H46.7271C51.1923 107.563 54.7131 110.286 54.384 113.6C54.3821 113.604 54.3782 113.608 54.3762 113.611C54.2808 113.754 54.1971 113.888 54.123 114.017C54.051 114.138 53.9906 114.254 53.9381 114.363C53.5311 115.209 54.5772 116.274 53.8835 116.473C52.9609 116.737 56.3101 125.425 52.6582 125.425C54.4346 125.93 52.8504 117.733 52.466 116.386Z" fill="#2F2E41"/>
<path d="M48.4799 121.485C51.3802 121.485 53.7313 119.133 53.7313 116.231C53.7313 113.329 51.3802 110.977 48.4799 110.977C45.5796 110.977 43.2285 113.329 43.2285 116.231C43.2285 119.133 45.5796 121.485 48.4799 121.485Z" fill="#A0616A"/>
<path d="M54.3841 113.889C54.2965 113.935 54.2108 113.977 54.1232 114.02C54.0316 114.064 53.9401 114.108 53.8486 114.148C52.0901 114.946 50.6589 115.035 49.7904 113.889C49.7671 113.286 49.6317 112.692 49.3912 112.139C49.4336 112.757 49.2707 113.373 48.9277 113.889H47.179C45.3778 115.085 44.4528 115.21 45.703 119.137C46.0515 120.231 47.4375 126.598 46.8923 127.543C46.7345 127.525 45.0564 120.551 44.9046 120.522C41.4812 119.874 39.306 114.231 39.5845 113.912C39.5831 113.004 39.7917 112.108 40.194 111.295C40.7029 110.264 41.4962 109.4 42.4801 108.806C43.0666 108.522 43.6781 108.292 44.3067 108.12C44.3223 108.116 44.3359 108.112 44.3515 108.108C44.5443 108.056 44.741 108.008 44.9377 107.968C45.344 107.882 45.7549 107.82 46.1684 107.781C46.1976 107.779 46.2268 107.777 46.254 107.777C46.4191 107.778 46.5812 107.822 46.7233 107.906C46.7253 107.906 46.7253 107.908 46.7272 107.908C46.8288 107.968 46.9176 108.047 46.9882 108.141C47.1126 108.299 47.1798 108.495 47.179 108.697H49.1263C49.1984 108.697 49.2704 108.698 49.3425 108.702C50.6422 108.747 51.8785 109.275 52.8095 110.183C53.7405 111.092 54.2993 112.315 54.3763 113.614C54.3822 113.706 54.3841 113.797 54.3841 113.889Z" fill="#2F2E41"/>
<path d="M42.902 112.208C44.8127 112.208 46.3617 110.658 46.3617 108.747C46.3617 106.835 44.8127 105.285 42.902 105.285C40.9913 105.285 39.4424 106.835 39.4424 108.747C39.4424 110.658 40.9913 112.208 42.902 112.208Z" fill="#2F2E41"/>
<path d="M34.3903 172.628C34.3221 172.672 34.251 172.711 34.1775 172.745C33.9216 172.871 33.6433 172.946 33.3587 172.964C33.074 172.983 32.7884 172.945 32.5183 172.853C32.2482 172.761 31.9988 172.617 31.7844 172.429C31.57 172.241 31.3947 172.012 31.2686 171.756C31.1425 171.5 31.0681 171.221 31.0495 170.937C31.031 170.652 31.0687 170.366 31.1604 170.096C31.2522 169.826 31.3963 169.576 31.5845 169.362C31.7727 169.147 32.0012 168.972 32.2571 168.845C32.2941 168.827 32.3316 168.81 32.3696 168.794L32.3635 165.618L32.3573 161.88L32.3511 157.938L35.3498 157.197L35.3158 162.908L35.3035 165.433L35.2757 170.09C35.4348 170.551 35.434 171.052 35.2733 171.513C35.1127 171.973 34.8016 172.366 34.3903 172.628Z" fill="#A0616A"/>
<path d="M46.2429 132.088L45.9313 132.671L38.1016 147.237L37.8671 147.673L36.7596 157.22L36.3894 160.418L36.2937 161.217V161.22L36.2413 161.683L35.8094 165.403L35.3034 165.433L34.452 165.489L32.3634 165.619L30.7993 165.717L30.8024 163.214L30.8302 144.243L36.5189 133.841L36.6578 133.585L38.8543 129.569C39.0955 129.129 39.5017 128.803 39.9835 128.662C40.4653 128.521 40.9832 128.578 41.4233 128.819C41.4754 128.848 41.5261 128.879 41.5753 128.912L46.2429 132.088Z" fill="#080343"/>
<path d="M2.95196 188.042C4.58228 188.042 5.90392 186.72 5.90392 185.088C5.90392 183.457 4.58228 182.135 2.95196 182.135C1.32164 182.135 0 183.457 0 185.088C0 186.72 1.32164 188.042 2.95196 188.042Z" fill="#F2F2F2"/>
<path d="M205.342 90.1917C205.342 90.1917 204.271 101.529 203.679 109.922V109.928C203.633 110.604 203.59 111.257 203.55 111.888L203.235 111.916C203.019 111.937 202.806 111.962 202.59 111.984C199.141 112.351 195.726 112.959 192.298 113.487C191.968 113.536 191.638 113.586 191.308 113.635C187.889 114.194 184.431 114.474 180.967 114.475H180.902C180.93 114.042 180.973 113.478 181.023 112.829C181.313 109.159 181.899 102.798 181.899 102.798L182.445 99.1153L184.231 87.0526L184.243 86.9599L184.259 86.855L184.345 86.8334L188.097 85.858L190.114 85.3364L191.287 83.7189L192.848 81.5645L199.338 82.3639L199.814 84.1357L200.693 87.4014L200.721 87.5063L204.126 89.4849L205.342 90.1917Z" fill="#E6E6E6"/>
<path d="M196.076 80.8686C199.875 80.8686 202.955 77.7872 202.955 73.9861C202.955 70.1849 199.875 67.1035 196.076 67.1035C192.277 67.1035 189.197 70.1849 189.197 73.9861C189.197 77.7872 192.277 80.8686 196.076 80.8686Z" fill="#FFB6B6"/>
<path d="M188.869 69.8196C189.473 70.308 189.334 72.6831 190.007 72.296C190.68 71.9089 190.82 71.2156 191.595 71.2083C192.227 71.2432 192.823 71.5131 193.267 71.9649C193.349 72.0395 193.427 72.1177 193.504 72.195C193.573 72.1706 193.642 72.1484 193.715 72.1302C194.258 71.9975 194.832 72.0783 195.318 72.3561C194.869 72.3882 194.442 72.5605 194.097 72.8487C194.245 73.0146 194.395 73.1814 194.553 73.3355C195.87 74.6273 198.571 73.2516 200.387 72.9412C198.875 74.5939 199.173 75.5164 199.549 77.7253L199.551 77.846C199.628 77.3366 201.259 77.362 200.99 78.0379C200.652 78.7056 200.23 79.3269 199.733 79.8864C201.955 78.3464 203.749 76.2236 204.145 73.6594C204.29 73.1337 204.32 72.5827 204.232 72.0445C204.166 71.7787 204.015 71.542 203.801 71.3714C203.587 71.2008 203.323 71.1058 203.049 71.1014C203.297 70.3149 203.327 69.4759 203.136 68.6737C202.945 67.8715 202.54 67.1361 201.965 66.5457C201.389 65.9552 200.665 65.5318 199.868 65.3204C199.071 65.1091 198.232 65.1176 197.44 65.3452C196.718 65.6022 196.013 65.9066 195.33 66.2564C194.641 66.6076 193.862 66.7397 193.096 66.6351C192.618 66.5365 192.135 66.2893 191.667 66.4292C191.125 66.5919 190.892 67.1646 190.675 67.7175C191.083 67.8666 191.437 68.1338 191.692 68.4852C191.27 68.3296 190.811 68.3109 190.378 68.4318C190.37 68.4332 190.362 68.4353 190.354 68.4381C189.864 69.318 189.835 69.5338 188.869 69.8196Z" fill="#2F2E41"/>
<path d="M192.299 113.489C191.969 113.539 191.638 113.588 191.308 113.637C187.89 114.196 184.431 114.477 180.967 114.477C180.992 113.931 181.007 113.381 181.023 112.832C181.044 112.063 181.06 111.291 181.075 110.52C181.146 107.023 181.217 103.526 181.288 100.031C181.291 99.8645 181.294 99.6948 181.297 99.5281C181.368 95.9938 181.464 92.3423 182.929 89.1229C183.264 88.3895 183.681 87.6967 184.173 87.0579C184.197 87.0239 184.219 86.9931 184.244 86.9622C184.277 86.919 184.311 86.8758 184.345 86.8357C184.739 86.3448 185.177 85.8912 185.653 85.4806C186.39 84.8017 187.254 84.2765 188.196 83.9358C189.138 83.595 190.138 83.4455 191.139 83.4959L191.287 83.7212L191.484 84.0268C191.355 84.9929 191.222 85.9621 191.098 86.9314C190.565 91.1323 190.182 95.358 190.611 99.562C190.975 103.096 191.91 106.556 192.206 110.094C192.218 110.211 192.228 110.331 192.237 110.449C192.31 111.46 192.33 112.475 192.299 113.489Z" fill="#080343"/>
<path d="M203.234 111.915C203.386 111.256 203.529 110.594 203.681 109.927V109.923C204.267 107.29 204.855 104.657 205.444 102.024C206.215 98.573 206.987 95.0034 206.325 91.5309C206.258 91.1736 206.172 90.8201 206.068 90.4718C206.034 90.3579 205.996 90.244 205.958 90.1301C205.692 89.3302 205.331 88.5653 204.883 87.8516C203.711 85.9782 201.956 84.5226 199.814 84.1386C199.774 84.1266 199.733 84.1181 199.692 84.1133L199.224 84.5479C199.127 85.4466 199.034 86.3538 198.933 87.2567C198.452 91.5309 197.823 95.8009 196.385 99.843C195.154 103.303 193.349 106.539 192.223 110.033C192.219 110.054 192.211 110.075 192.206 110.092C191.835 111.254 191.535 112.437 191.308 113.636C191.637 113.585 191.97 113.539 192.299 113.488C195.728 112.961 199.139 112.353 202.589 111.986L203.234 111.915Z" fill="#080343"/>
<path d="M209.935 72.5364L209.737 70.6412L209.691 70.2029L209.62 69.4991L208.096 54.8713C208.222 54.4494 208.205 53.9975 208.047 53.5865C207.889 53.1754 207.599 52.8283 207.223 52.5995C206.788 52.3403 206.269 52.2643 205.778 52.3881C205.288 52.512 204.866 52.8256 204.607 53.2601C204.597 53.2755 204.591 53.291 204.582 53.3064C204.323 53.7585 204.25 54.2938 204.379 54.7986C204.508 55.3035 204.829 55.7382 205.273 56.0103C205.365 56.063 205.461 56.1084 205.56 56.1461L205.548 56.5567L205.511 57.8438L205.483 58.8161L205.424 60.7515L205.403 61.5016L205.332 63.9338L205.264 66.2797L205.181 69.1225L205.116 71.3079L205.902 71.5086L209.935 72.5364Z" fill="#FFB6B6"/>
<path d="M211.459 75.6525C211.426 75.3985 211.365 75.149 211.277 74.9086C210.879 74.2172 210.635 75.1833 210.854 73.3313C211.03 71.8281 209.975 72.0164 210.354 71.6954C210.981 71.1645 210.117 70.9299 209.737 70.6428C209.568 70.5162 209.497 70.3804 209.691 70.2045C209.782 70.125 209.884 70.0585 209.993 70.007C210.407 69.7909 210.169 69.6273 209.62 69.5008C208.385 69.2948 207.136 69.1782 205.884 69.152C205.582 69.1365 205.335 69.1304 205.181 69.1242C205.067 69.1211 205.002 69.1211 205.002 69.1211C204.787 69.3254 204.652 69.6004 204.623 69.8958C204.531 70.5232 204.58 71.163 204.764 71.7694C204.891 72.1905 205.06 72.5979 205.267 72.9856C205.346 73.1309 205.383 73.2958 205.372 73.461V73.4641C205.35 73.5616 205.307 73.6531 205.246 73.732C205.184 73.811 205.106 73.8755 205.017 73.9209C204.601 74.1987 204.832 74.782 205.156 75.3315C205.431 75.6997 205.665 76.0972 205.853 76.5168C205.853 76.8964 203.287 84.965 203.287 84.965L204.231 97.1481C204.931 97.6883 205.814 97.9331 206.692 97.8303C207.425 97.707 208.102 97.3623 208.633 96.8425C209.38 96.1118 209.987 95.251 210.425 94.3022C212.918 89.2925 211.989 78.6095 211.459 75.6525Z" fill="#080343"/>
<path d="M164.651 55.5595C165.119 55.7879 165.48 56.1899 165.656 56.6802C165.833 57.1704 165.811 57.7102 165.595 58.1846C165.55 58.2803 165.497 58.3722 165.437 58.4591L174.313 70.7539L171.013 74.4782L162.622 58.8301C162.281 58.5515 162.041 58.1677 161.941 57.7387C161.841 57.3097 161.886 56.8597 162.068 56.4587C162.282 56 162.67 55.6451 163.145 55.4722C163.621 55.2993 164.146 55.3225 164.604 55.5367C164.62 55.5441 164.636 55.5517 164.651 55.5595Z" fill="#FFB6B6"/>
<path d="M189.533 91.6106C189.533 91.6106 188.347 95.857 182.809 92.7371C177.271 89.6172 171.282 77.9666 171.222 77.1683C171.162 76.37 171.906 77.0335 170.687 75.6251C169.696 74.4797 170.675 74.0424 170.181 73.9894C168.88 73.8497 171.139 72.1992 169.532 72.3885C167.925 72.5779 173.165 68.8516 173.165 68.8516C173.165 68.8516 174.12 68.8745 174.849 70.911C175.258 72.0549 174.872 72.8375 175.847 72.8331C176.823 72.8287 176.405 75.1461 176.611 75.4524C176.818 75.7586 183.475 80.9992 183.475 80.9992L189.533 91.6106Z" fill="#080343"/>
<path d="M182.166 64.7556C199.885 64.7556 214.25 50.3833 214.25 32.6542C214.25 14.925 199.885 0.552734 182.166 0.552734C164.446 0.552734 150.082 14.925 150.082 32.6542C150.082 50.3833 164.446 64.7556 182.166 64.7556Z" fill="#0191FE"/>
<path d="M165.863 25.5113C166.196 26.147 166.451 26.8211 166.622 27.5187C167.057 29.3527 166.751 31.0172 165.751 31.7979C165.651 31.8789 165.543 31.9498 165.428 32.0094C164.176 32.6645 162.449 31.9731 161.065 30.4262C160.59 29.8883 160.182 29.2942 159.85 28.6574C159.518 28.0287 159.265 27.3613 159.097 26.6706C158.609 24.645 159.025 22.8181 160.281 22.1611C161.944 21.291 164.442 22.793 165.863 25.5113Z" fill="white"/>
<path d="M165.332 28.646C165.84 29.6138 165.989 30.7305 165.751 31.7976C165.651 31.8787 165.543 31.9496 165.429 32.0092C164.177 32.6643 162.45 31.9729 161.065 30.426C160.59 29.888 160.182 29.294 159.851 28.6571C159.519 28.0285 159.266 27.3611 159.098 26.6704C160.187 26.1083 161.454 26.0006 162.622 26.3708C163.791 26.741 164.765 27.5591 165.332 28.646Z" fill="#3F3D56"/>
<path d="M178.318 18.9937C179.682 21.6034 179.557 24.3875 178.076 25.377C178.014 25.419 177.95 25.4573 177.884 25.4919C176.224 26.36 173.726 24.858 172.305 22.1398C171.974 21.5123 171.722 20.8462 171.554 20.1567C171.065 18.1274 171.48 16.3005 172.736 15.6435C174.399 14.7734 176.897 16.2755 178.318 18.9937Z" fill="white"/>
<path d="M177.664 22.1937C178.177 23.1715 178.323 24.3011 178.076 25.3776C178.014 25.4195 177.95 25.4578 177.884 25.4924C176.225 26.3606 173.726 24.8585 172.306 22.1403C171.974 21.5128 171.722 20.8468 171.555 20.1573C172.638 19.6386 173.881 19.561 175.02 19.9409C176.16 20.3208 177.107 21.1285 177.664 22.1937Z" fill="#3F3D56"/>
<path d="M164.29 43.9526C168.067 51.1799 175.396 54.8065 180.659 52.0528C185.921 49.299 187.125 41.2078 183.348 33.9805C179.198 40.0341 172.913 43.4425 164.29 43.9526Z" fill="white"/>
<path opacity="0.2" d="M210.636 17.8244C207.583 11.9836 202.808 7.22419 196.958 4.19239C191.109 1.1606 184.468 0.0032559 177.938 0.877484C185.648 1.89258 192.727 5.67448 197.859 11.52C202.991 17.3655 205.827 24.8768 205.839 32.6573C205.851 40.4378 203.039 47.9579 197.925 53.8194C192.812 59.681 185.744 63.485 178.038 64.5241C183.861 65.2896 189.782 64.4408 195.156 62.0702C200.53 59.6996 205.151 55.8983 208.513 51.0807C211.876 46.2631 213.853 40.6142 214.227 34.7498C214.601 28.8855 213.359 23.0309 210.636 17.8244Z" fill="black"/>
</svg>
