<svg width="287" height="83" viewBox="0 0 287 83" fill="none" xmlns="http://www.w3.org/2000/svg">
<rect width="287" height="83" rx="10" fill="#3360E9"/>
<g clip-path="url(#clip0_641_87)">
<path d="M45.8362 24.9107C45.8362 24.9107 38.6684 22.0731 34.2213 27.9636C32.0905 30.782 31.339 34.457 32.1904 37.8879C32.704 39.9551 33.836 42.1945 36.2427 43.6444C37.7219 44.5344 39.1203 45.5536 40.3426 46.7738C43.867 50.3005 49.4462 57.2149 48.0621 64.584C48.0621 64.584 46.8825 58.8514 31.9858 48.8793C30.0928 47.6112 28.3996 46.0465 27.0631 44.1947C24.4852 40.625 22.069 34.8063 26.3116 28.1789C26.3116 28.1789 34.1452 16.4315 45.8362 24.9107Z" fill="white"/>
<path d="M49.4224 26.1741C49.4224 26.1741 58.1359 17.1685 65.9315 21.8722C68.79 23.5997 70.5403 26.6861 70.8304 30.0308C71.1586 33.7919 70.5688 39.4384 65.5557 44.0464C65.5557 44.0464 51.8148 57.0045 52.5425 67.1728C52.5425 67.1728 55.4105 60.5311 60.9611 55.4972C61.2751 55.2149 61.5985 54.9469 61.9267 54.6789C64.3809 52.6883 76.8567 42.2137 79.4916 33.2799C79.5677 33.0311 79.6343 32.7775 79.7152 32.5287C80.324 30.5716 83.3728 18.6662 69.1848 14.6372C65.237 13.5174 60.9849 13.8476 57.3892 15.8334C54.3499 17.5082 51.225 20.5755 49.4224 26.1741Z" fill="white"/>
<path d="M100.638 60.7509C96.3146 73.5558 75.4012 66.3447 75.4012 66.3447C64.7186 62.1147 52.6043 69.0052 52.6043 69.0052C52.6043 69.0052 55.2916 58.588 75.2966 60.6696C77.6843 60.9184 80.0339 61.4017 82.3454 62.0333C85.9126 63.0095 93.7558 64.4498 100.638 60.7509Z" fill="white"/>
<path d="M51.3249 48.3336C45.3177 48.3336 40.4282 43.4145 40.4282 37.3709C40.4282 31.3273 45.3177 26.4082 51.3249 26.4082C57.3321 26.4082 62.2263 31.3225 62.2263 37.3661C62.2263 43.4097 57.3368 48.3336 51.3249 48.3336ZM51.3249 28.3414C46.3784 28.3414 42.3545 32.3896 42.3545 37.3661C42.3545 42.3426 46.3784 46.3908 51.3249 46.3908C56.2714 46.3908 60.2953 42.3426 60.2953 37.3661C60.2953 32.3896 56.2714 28.3414 51.3249 28.3414Z" fill="white"/>
<path d="M51.3249 43.5915C47.9146 43.5915 45.137 40.8018 45.137 37.366C45.137 33.9351 47.9099 31.1406 51.3249 31.1406C54.7352 31.1406 57.5128 33.9303 57.5128 37.366C57.5128 40.8018 54.7399 43.5915 51.3249 43.5915ZM51.3249 33.0834C48.9753 33.0834 47.0633 35.007 47.0633 37.3708C47.0633 39.7347 48.9753 41.6583 51.3249 41.6583C53.6745 41.6583 55.5865 39.7347 55.5865 37.3708C55.5865 35.0022 53.6745 33.0834 51.3249 33.0834Z" fill="white"/>
<path d="M51.6959 38.8696L49.4937 36.8742C49.0989 36.5154 49.0656 35.9029 49.4224 35.5057C49.7791 35.1085 50.3879 35.075 50.7827 35.4339L52.1097 36.635C52.3189 36.8264 52.6329 36.8407 52.8612 36.678L64.7566 28.1319C65.1895 27.8208 65.7888 27.9213 66.0979 28.3567C66.4071 28.7922 66.3072 29.3951 65.8744 29.7061L53.0276 38.9414C52.6234 39.2381 52.0669 39.2046 51.6959 38.8696Z" fill="white"/>
<path d="M51.3249 58.6216C50.7922 58.6216 50.3594 58.1862 50.3594 57.6502V42.625H52.2857V57.655C52.2904 58.1862 51.8576 58.6216 51.3249 58.6216Z" fill="white"/>
<path d="M87.6297 38.5234C87.5393 38.3272 87.4965 38.1263 87.4965 37.9253C87.4965 37.7243 87.5393 37.5329 87.6249 37.3559C87.7105 37.1788 87.8294 37.0161 87.9816 36.8678C88.1338 36.7242 88.3146 36.6142 88.5238 36.5376C88.7331 36.461 88.9281 36.4228 89.1184 36.4228C89.437 36.4228 89.7272 36.5041 89.9888 36.662C90.2504 36.8199 90.4501 37.0496 90.5928 37.3511L95.9104 49.1176L101.214 37.3511C101.342 37.0592 101.542 36.8343 101.808 36.6668C102.075 36.5041 102.369 36.418 102.683 36.418C102.874 36.418 103.069 36.4563 103.278 36.5328C103.487 36.6094 103.663 36.7146 103.815 36.8582C103.963 36.997 104.077 37.1597 104.158 37.3367C104.239 37.5138 104.277 37.7052 104.286 37.9061C104.291 38.1071 104.248 38.3081 104.158 38.5043L97.38 53.496C97.2421 53.7975 97.0376 54.0272 96.7617 54.1946C96.4906 54.3573 96.1957 54.4435 95.8771 54.4435C95.7867 54.4435 95.7201 54.4387 95.6678 54.4291C95.6583 54.4291 95.6488 54.4291 95.6392 54.4243C95.6297 54.4195 95.6155 54.4195 95.5964 54.4195L95.449 54.3765C95.2207 54.319 95.0162 54.2186 94.8402 54.075C94.6594 53.9315 94.5168 53.74 94.4074 53.5056L87.6297 38.5234Z" fill="white"/>
<path d="M115.639 50.9943H107.14L106.027 53.5304C105.889 53.8318 105.689 54.0567 105.423 54.2147C105.161 54.3678 104.871 54.4491 104.553 54.4491C104.334 54.4491 104.101 54.4013 103.853 54.3104C103.635 54.2242 103.459 54.1094 103.321 53.9658C103.183 53.8175 103.078 53.6596 103.016 53.4777C102.95 53.3007 102.926 53.1045 102.94 52.8988C102.954 52.693 103.007 52.492 103.097 52.291L109.889 37.3424C110.027 37.0409 110.227 36.8112 110.484 36.6533C110.74 36.4954 111.04 36.4141 111.378 36.4141C111.696 36.4141 111.982 36.4954 112.239 36.6533C112.496 36.8112 112.695 37.0361 112.833 37.328L119.668 52.291C119.849 52.6834 119.873 53.0758 119.749 53.4586C119.625 53.8462 119.354 54.1285 118.94 54.3056C118.731 54.4013 118.503 54.4443 118.255 54.4443C117.937 54.4443 117.647 54.363 117.38 54.2051C117.114 54.0472 116.909 53.8175 116.771 53.5304L115.639 50.9943ZM108.434 47.9366H114.303L111.392 41.2997L108.434 47.9366Z" fill="white"/>
<path d="M126.16 52.936C126.16 53.1417 126.118 53.3379 126.032 53.5293C125.946 53.7159 125.832 53.8786 125.685 54.0078C125.537 54.1418 125.366 54.2471 125.171 54.3236C124.976 54.405 124.767 54.4433 124.538 54.4433C124.32 54.4433 124.11 54.405 123.915 54.3236C123.72 54.2423 123.544 54.137 123.402 54.0078C123.259 53.8786 123.145 53.7159 123.059 53.5293C122.974 53.3427 122.931 53.1465 122.931 52.936V37.9155C122.931 37.7002 122.974 37.4992 123.059 37.3174C123.145 37.1355 123.259 36.9728 123.402 36.8389C123.544 36.7049 123.716 36.5996 123.915 36.523C124.115 36.4465 124.32 36.4082 124.538 36.4082C124.767 36.4082 124.976 36.4465 125.171 36.523C125.366 36.5996 125.537 36.7049 125.685 36.8389C125.832 36.9776 125.951 37.1355 126.032 37.3174C126.118 37.4992 126.16 37.7002 126.16 37.9155V52.936Z" fill="white"/>
<path d="M132.001 37.017C132.001 36.8399 132.063 36.6916 132.187 36.5815C132.31 36.4667 132.462 36.4141 132.638 36.4141H138.122C139.055 36.4141 139.93 36.572 140.753 36.8878C141.575 37.2036 142.289 37.639 142.898 38.1893C143.507 38.7444 143.992 39.4 144.348 40.156C144.705 40.9121 144.881 41.7303 144.881 42.6156C144.881 43.2998 144.772 43.941 144.553 44.5296C144.334 45.123 144.03 45.6541 143.64 46.1278C143.25 46.6016 142.784 47.0131 142.241 47.3624C141.699 47.7117 141.109 47.9844 140.467 48.1806L144.6 53.382C144.748 53.5208 144.815 53.6835 144.796 53.8701C144.776 54.052 144.691 54.1955 144.543 54.3008C144.425 54.3869 144.296 54.43 144.158 54.43C143.977 54.43 143.825 54.3678 143.697 54.2481L139.074 48.4725C138.907 48.4917 138.741 48.506 138.574 48.5156C138.408 48.5252 138.246 48.53 138.075 48.53H133.276V53.8558C133.276 54.0233 133.214 54.1668 133.09 54.2864C132.967 54.4061 132.814 54.4635 132.638 54.4635C132.462 54.4635 132.31 54.4061 132.187 54.2864C132.063 54.1668 132.001 54.028 132.001 53.8558V37.017ZM133.276 37.6343V47.3002H138.089C138.893 47.3002 139.63 47.1805 140.301 46.9413C140.971 46.702 141.552 46.3719 142.042 45.946C142.527 45.5249 142.907 45.0273 143.178 44.453C143.449 43.8788 143.587 43.2663 143.587 42.606C143.587 41.9409 143.454 41.3092 143.188 40.7111C142.922 40.1129 142.546 39.5866 142.065 39.1272C141.585 38.6678 141.009 38.3042 140.344 38.0362C139.673 37.7682 138.945 37.6343 138.151 37.6343H133.276Z" fill="white"/>
<path d="M150.841 53.8366C150.841 54.0041 150.779 54.1477 150.655 54.2673C150.532 54.3869 150.379 54.4443 150.203 54.4443C150.027 54.4443 149.875 54.3869 149.752 54.2673C149.628 54.1477 149.566 54.0089 149.566 53.8366V37.017C149.566 36.8399 149.628 36.6916 149.752 36.5815C149.875 36.4667 150.027 36.4141 150.203 36.4141C150.379 36.4141 150.532 36.4715 150.655 36.5815C150.779 36.6964 150.841 36.8399 150.841 37.017V53.8366Z" fill="white"/>
<path d="M168.12 36.4082C168.287 36.4082 168.439 36.4656 168.567 36.5757C168.696 36.6905 168.762 36.8341 168.762 37.0111C168.762 37.1977 168.701 37.3509 168.577 37.4609C168.453 37.5758 168.301 37.6284 168.125 37.6284H157.856V45.6052H165.866C166.066 45.6052 166.223 45.6674 166.341 45.7966C166.46 45.921 166.522 46.0693 166.522 46.2416C166.522 46.3995 166.46 46.5383 166.341 46.6579C166.223 46.7775 166.066 46.8349 165.866 46.8349H157.856V53.8356C157.856 54.0126 157.794 54.1609 157.671 54.271C157.547 54.3858 157.395 54.4385 157.219 54.4385C157.029 54.4385 156.876 54.3811 156.758 54.2614C156.639 54.1418 156.582 54.003 156.582 53.8308V37.0016C156.582 36.8676 156.629 36.7384 156.729 36.6044C156.829 36.4752 156.991 36.4082 157.219 36.4082H168.12Z" fill="white"/>
<path d="M179.683 44.8926L186.637 36.6239C186.765 36.4899 186.922 36.4277 187.112 36.4277C187.269 36.4277 187.393 36.466 187.483 36.5426C187.621 36.6383 187.712 36.7675 187.75 36.9302C187.788 37.0929 187.735 37.2699 187.588 37.4565L180.334 45.9645V53.8407C180.334 54.0082 180.268 54.1518 180.139 54.2714C180.011 54.391 179.859 54.4484 179.678 54.4484C179.512 54.4484 179.359 54.391 179.231 54.2714C179.103 54.1518 179.036 54.013 179.036 53.8407V45.9597L171.711 37.4517C171.592 37.3178 171.535 37.1694 171.55 37.0019C171.559 36.8345 171.64 36.6861 171.787 36.5665C171.897 36.4708 172.03 36.4277 172.187 36.4277C172.277 36.4277 172.368 36.4469 172.453 36.4852C172.544 36.5234 172.615 36.5809 172.677 36.6526L179.683 44.8926Z" fill="white"/>
<path d="M191.54 51.8223H192.905V54.4445H191.54V51.8223Z" fill="white"/>
<path d="M198.242 37.017C198.242 36.8399 198.304 36.6916 198.427 36.5815C198.551 36.4667 198.703 36.4141 198.879 36.4141H204.435C205.315 36.4141 206.161 36.5241 206.974 36.7394C207.788 36.9548 208.549 37.261 209.257 37.6534C209.966 38.0458 210.613 38.5243 211.198 39.0746C211.783 39.6249 212.282 40.2421 212.701 40.9121C213.12 41.582 213.438 42.3045 213.667 43.0749C213.895 43.8453 214.009 44.6444 214.009 45.4723C214.009 46.7116 213.757 47.8792 213.253 48.9654C212.749 50.0516 212.064 51.0038 211.193 51.8173C210.323 52.6308 209.315 53.272 208.154 53.7409C206.993 54.2099 205.757 54.4443 204.439 54.4443H198.884C198.703 54.4443 198.556 54.3869 198.432 54.2673C198.309 54.1477 198.247 54.0089 198.247 53.8366V37.017H198.242ZM199.517 37.6343V53.2194H204.42C205.638 53.2194 206.76 52.9992 207.778 52.5638C208.801 52.1283 209.676 51.5446 210.409 50.822C211.141 50.0995 211.712 49.2716 212.116 48.3433C212.52 47.415 212.725 46.458 212.725 45.4818C212.725 44.8263 212.634 44.1755 212.449 43.5391C212.268 42.9027 212.002 42.2902 211.655 41.7064C211.307 41.1226 210.889 40.5867 210.399 40.0842C209.909 39.5866 209.357 39.1559 208.744 38.797C208.13 38.4334 207.46 38.1511 206.737 37.9453C206.014 37.7395 205.248 37.6343 204.435 37.6343H199.517Z" fill="white"/>
<path d="M228.435 49.9222H218.047L216.173 54.0805C216.126 54.2049 216.045 54.2958 215.935 54.3532C215.826 54.4154 215.707 54.4441 215.579 54.4441C215.488 54.4441 215.398 54.4298 215.312 54.4011C215.146 54.3245 215.032 54.2097 214.97 54.0565C214.908 53.9034 214.922 53.7455 214.998 53.5828L222.637 36.7728C222.765 36.5287 222.97 36.4043 223.246 36.4043C223.522 36.4043 223.717 36.5287 223.826 36.7728L231.479 53.5972C231.55 53.7551 231.56 53.913 231.507 54.0613C231.46 54.2097 231.355 54.3245 231.194 54.4011C231.113 54.4394 231.022 54.4585 230.913 54.4585C230.637 54.4585 230.433 54.3389 230.304 54.09L228.435 49.9222ZM218.566 48.6972H227.897L223.246 38.3566L218.566 48.6972Z" fill="white"/>
<path d="M238.984 37.6332V53.8212C238.984 53.9887 238.922 54.137 238.799 54.2566C238.675 54.3763 238.518 54.4385 238.333 54.4385C238.147 54.4385 237.99 54.3763 237.871 54.2566C237.752 54.137 237.695 53.9887 237.695 53.8212V37.6332H231.631C231.455 37.6332 231.298 37.571 231.17 37.4514C231.041 37.3317 230.975 37.1834 230.975 37.0159C230.975 36.8484 231.037 36.7049 231.17 36.5853C231.298 36.4656 231.45 36.4082 231.631 36.4082H245.049C245.248 36.4082 245.405 36.4704 245.524 36.59C245.643 36.7144 245.7 36.858 245.7 37.0255C245.7 37.2025 245.643 37.3509 245.524 37.4609C245.405 37.5758 245.248 37.6284 245.049 37.6284H238.984V37.6332Z" fill="white"/>
<path d="M249.667 54.4433C249.477 54.4241 249.334 54.3523 249.229 54.2327C249.125 54.1131 249.072 53.9648 249.072 53.7973V37.0159C249.072 36.8293 249.139 36.681 249.272 36.5709C249.405 36.4608 249.562 36.4082 249.738 36.4082H261.358C261.539 36.4082 261.686 36.4656 261.81 36.5757C261.933 36.6857 261.995 36.8341 261.995 37.0111C261.995 37.1786 261.933 37.3269 261.81 37.4466C261.686 37.5662 261.534 37.6284 261.358 37.6284H250.352V44.6242H258.656C258.847 44.6147 258.999 44.6721 259.118 44.8013C259.237 44.9257 259.298 45.074 259.298 45.2463C259.298 45.4138 259.237 45.5573 259.118 45.6674C258.999 45.7774 258.847 45.8349 258.656 45.8349H250.352V53.2183H261.363C261.543 53.2183 261.691 53.2757 261.815 53.3953C261.938 53.515 262 53.6537 262 53.826C262 54.003 261.938 54.1562 261.815 54.2758C261.691 54.4002 261.539 54.4528 261.363 54.4433H249.667Z" fill="white"/>
<path d="M107.554 63.9338L106.764 58.8281H107.501L107.834 61.1345L108.039 62.7615H108.058L108.234 61.1345L108.51 58.8281H109.233L108.51 63.9338H107.554Z" fill="white"/>
<path d="M110.098 63.9337V63.2207H110.745V63.9337H110.098Z" fill="white"/>
<path d="M111.877 63.9338L112.6 58.8281H113.623L114.393 63.9338H113.67L113.551 63.0247H112.733L112.624 63.9338H111.877ZM112.805 62.3978H113.466L113.128 59.833H113.119L112.805 62.3978Z" fill="white"/>
<path d="M115.492 63.9337V63.2207H116.139V63.9337H115.492Z" fill="white"/>
<path d="M117.585 63.9338V58.8281H118.36V63.9338H117.585Z" fill="white"/>
<path d="M119.773 63.9337V63.2207H120.42V63.9337H119.773Z" fill="white"/>
<path d="M123.763 63.9328V59.497H123.169V58.8223H125.104V59.497H124.534V63.9328H123.763Z" fill="white"/>
<path d="M126.127 63.9338V58.8281H127.83V59.498H126.902V60.9814H127.787V61.637H126.902V63.2639H127.868V63.9338H126.127Z" fill="white"/>
<path d="M130.065 63.991C129.818 63.991 129.613 63.9335 129.452 63.8187C129.29 63.7039 129.166 63.5364 129.085 63.3163C129.005 63.0961 128.962 62.833 128.962 62.5171V60.2921C128.962 60.0576 128.981 59.8471 129.019 59.6604C129.057 59.4738 129.119 59.3111 129.204 59.1771C129.29 59.0432 129.404 58.9427 129.552 58.8709C129.694 58.7991 129.875 58.7656 130.084 58.7656C130.275 58.7656 130.441 58.7991 130.574 58.8613C130.712 58.9235 130.822 59.0144 130.907 59.1341C130.993 59.2537 131.055 59.3925 131.093 59.56C131.131 59.7274 131.15 59.914 131.15 60.1246V60.828H130.403V60.1772C130.403 59.9236 130.384 59.7418 130.341 59.6222C130.298 59.5025 130.213 59.4451 130.089 59.4451C129.951 59.4451 129.856 59.5073 129.808 59.6365C129.761 59.7657 129.737 59.9428 129.737 60.1772V62.5602C129.737 62.7373 129.747 62.8856 129.766 62.9957C129.785 63.1105 129.818 63.1918 129.866 63.2445C129.913 63.2971 129.98 63.3258 130.065 63.3258C130.194 63.3258 130.284 63.2636 130.332 63.1392C130.379 63.0148 130.403 62.8186 130.403 62.5506V61.8185H131.159V62.5411C131.159 62.8617 131.121 63.1344 131.045 63.3498C130.969 63.5651 130.85 63.7278 130.688 63.833C130.536 63.9383 130.327 63.991 130.065 63.991Z" fill="white"/>
<path d="M132.41 63.9338V58.8281H133.185V60.8953H133.88V58.8281H134.655V63.9338H133.88V61.5604H133.185V63.9338H132.41Z" fill="white"/>
<path d="M136.001 63.9338V58.8281H136.605L137.68 61.8906L137.623 60.4981V58.8281H138.317V63.9338H137.77L136.667 60.7613L136.71 62.1011V63.9338H136.001Z" fill="white"/>
<path d="M140.738 63.991C140.477 63.991 140.258 63.9335 140.092 63.8235C139.925 63.7134 139.801 63.5459 139.725 63.3258C139.644 63.1057 139.606 62.833 139.606 62.5076V60.1724C139.606 59.8758 139.644 59.6269 139.721 59.4164C139.797 59.2059 139.92 59.0479 140.087 58.9331C140.253 58.8183 140.472 58.7656 140.743 58.7656C140.948 58.7656 141.119 58.7991 141.257 58.8613C141.395 58.9235 141.509 59.0192 141.599 59.1389C141.685 59.2585 141.747 59.4068 141.79 59.5791C141.828 59.7514 141.851 59.9475 141.851 60.1677V62.5028C141.851 62.8282 141.813 63.1009 141.737 63.321C141.661 63.5412 141.542 63.7086 141.376 63.8187C141.219 63.9383 141.005 63.991 140.738 63.991ZM140.738 63.321C140.834 63.321 140.905 63.2923 140.957 63.2349C141.005 63.1775 141.038 63.0866 141.052 62.9717C141.067 62.8521 141.076 62.7038 141.076 62.5219V60.1437C141.076 59.9236 141.057 59.7514 141.014 59.6269C140.971 59.5025 140.886 59.4451 140.748 59.4451C140.605 59.4451 140.51 59.5025 140.463 59.6222C140.41 59.737 140.386 59.914 140.386 60.1389V62.5219C140.386 62.7086 140.396 62.8617 140.41 62.9813C140.424 63.1009 140.463 63.1871 140.51 63.2445C140.562 63.2923 140.639 63.321 140.738 63.321Z" fill="white"/>
<path d="M143.145 63.9338V58.8281H143.92V63.2735H144.9V63.9338H143.145Z" fill="white"/>
<path d="M146.912 63.991C146.65 63.991 146.432 63.9335 146.265 63.8235C146.099 63.7134 145.975 63.5459 145.899 63.3258C145.818 63.1057 145.78 62.833 145.78 62.5076V60.1724C145.78 59.8758 145.818 59.6269 145.894 59.4164C145.97 59.2059 146.094 59.0479 146.26 58.9331C146.427 58.8183 146.646 58.7656 146.917 58.7656C147.121 58.7656 147.293 58.7991 147.43 58.8613C147.568 58.9235 147.683 59.0192 147.773 59.1389C147.859 59.2585 147.92 59.4068 147.963 59.5791C148.001 59.7514 148.025 59.9475 148.025 60.1677V62.5028C148.025 62.8282 147.987 63.1009 147.911 63.321C147.835 63.5412 147.716 63.7086 147.549 63.8187C147.392 63.9383 147.178 63.991 146.912 63.991ZM146.912 63.321C147.007 63.321 147.079 63.2923 147.131 63.2349C147.178 63.1775 147.212 63.0866 147.226 62.9717C147.24 62.8521 147.25 62.7038 147.25 62.5219V60.1437C147.25 59.9236 147.231 59.7514 147.188 59.6269C147.145 59.5025 147.059 59.4451 146.922 59.4451C146.779 59.4451 146.684 59.5025 146.636 59.6222C146.584 59.737 146.56 59.914 146.56 60.1389V62.5219C146.56 62.7086 146.57 62.8617 146.584 62.9813C146.598 63.1009 146.636 63.1871 146.684 63.2445C146.736 63.2923 146.812 63.321 146.912 63.321Z" fill="white"/>
<path d="M150.275 63.9853C149.97 63.9853 149.723 63.8657 149.538 63.6216C149.352 63.3776 149.257 62.9852 149.257 62.4397V60.2194C149.257 59.9897 149.281 59.7888 149.323 59.6069C149.366 59.4251 149.433 59.2768 149.523 59.1476C149.614 59.0231 149.733 58.9274 149.88 58.8652C150.027 58.7982 150.203 58.7695 150.408 58.7695C150.631 58.7695 150.812 58.803 150.955 58.87C151.098 58.937 151.202 59.0327 151.278 59.1619C151.354 59.2863 151.407 59.4442 151.435 59.6261C151.464 59.8079 151.478 60.0184 151.478 60.2481V60.6118H150.755V60.0759C150.755 59.8462 150.731 59.6835 150.684 59.5878C150.636 59.4921 150.546 59.4442 150.417 59.4442C150.275 59.4442 150.175 59.5017 150.118 59.6117C150.061 59.7266 150.032 59.9275 150.032 60.2146V62.4301C150.032 62.7507 150.056 62.9804 150.104 63.1192C150.151 63.258 150.251 63.325 150.398 63.325C150.546 63.325 150.646 63.2532 150.708 63.1096C150.769 62.9661 150.798 62.7316 150.798 62.3966V61.7076H150.408V61.1429H151.473V63.9327H151.126L151.007 63.4302C150.964 63.6073 150.874 63.7413 150.736 63.837C150.598 63.9327 150.446 63.9853 150.275 63.9853Z" fill="white"/>
<path d="M153.314 63.9338V61.8954L152.463 58.8281H153.2L153.704 60.7374H153.714L154.161 58.8281H154.898L154.089 61.8954V63.9338H153.314Z" fill="white"/>
<path d="M157.566 63.9338V58.8281H159.307V59.5028H158.337V60.8618H159.236V61.5413H158.337V63.9338H157.566Z" fill="white"/>
<path d="M161.504 63.991C161.243 63.991 161.024 63.9335 160.857 63.8235C160.691 63.7134 160.567 63.5459 160.491 63.3258C160.41 63.1057 160.372 62.833 160.372 62.5076V60.1724C160.372 59.8758 160.41 59.6269 160.486 59.4164C160.563 59.2059 160.686 59.0479 160.853 58.9331C161.019 58.8183 161.238 58.7656 161.509 58.7656C161.714 58.7656 161.885 58.7991 162.023 58.8613C162.161 58.9235 162.275 59.0192 162.365 59.1389C162.451 59.2585 162.513 59.4068 162.555 59.5791C162.594 59.7514 162.617 59.9475 162.617 60.1677V62.5028C162.617 62.8282 162.579 63.1009 162.503 63.321C162.427 63.5412 162.308 63.7086 162.142 63.8187C161.98 63.9383 161.766 63.991 161.504 63.991ZM161.504 63.321C161.599 63.321 161.671 63.2923 161.723 63.2349C161.771 63.1775 161.804 63.0866 161.818 62.9717C161.833 62.8521 161.842 62.7038 161.842 62.5219V60.1437C161.842 59.9236 161.823 59.7514 161.78 59.6269C161.737 59.5025 161.652 59.4451 161.514 59.4451C161.371 59.4451 161.276 59.5025 161.228 59.6222C161.176 59.737 161.152 59.914 161.152 60.1389V62.5219C161.152 62.7086 161.162 62.8617 161.176 62.9813C161.19 63.1009 161.228 63.1871 161.276 63.2445C161.328 63.2923 161.404 63.321 161.504 63.321Z" fill="white"/>
<path d="M163.911 63.9338V58.8281H165.19C165.457 58.8281 165.652 58.8808 165.785 58.986C165.918 59.0913 166.004 59.2444 166.042 59.4454C166.085 59.6464 166.104 59.8904 166.104 60.1823C166.104 60.4838 166.075 60.7182 166.013 60.8905C165.951 61.0628 165.828 61.1776 165.642 61.235C165.733 61.2494 165.804 61.2877 165.866 61.3451C165.928 61.4025 165.975 61.4839 166.009 61.5939C166.047 61.704 166.07 61.8427 166.089 62.015C166.108 62.1873 166.113 62.3978 166.113 62.6419C166.113 62.661 166.113 62.7136 166.113 62.8045C166.113 62.8955 166.113 63.0007 166.113 63.1204C166.113 63.24 166.113 63.3596 166.118 63.4792C166.118 63.5989 166.123 63.6994 166.127 63.7855C166.132 63.8716 166.137 63.9195 166.142 63.9386H165.366C165.362 63.929 165.357 63.8812 165.352 63.7903C165.347 63.6994 165.347 63.5845 165.343 63.4458C165.338 63.307 165.338 63.1586 165.338 62.996C165.338 62.8333 165.338 62.6753 165.338 62.5222C165.338 62.3691 165.338 62.2303 165.338 62.1107C165.338 61.9576 165.328 61.8427 165.305 61.7662C165.281 61.6896 165.243 61.6322 165.186 61.6035C165.129 61.5748 165.043 61.5556 164.934 61.5461L164.686 61.5317V63.9434H163.911V63.9338ZM164.686 60.9192H164.995C165.091 60.9192 165.162 60.9001 165.21 60.857C165.257 60.8139 165.29 60.7374 165.309 60.6225C165.328 60.5077 165.338 60.345 165.338 60.1297V60.0962C165.338 59.9143 165.328 59.7756 165.314 59.6799C165.295 59.5842 165.262 59.5172 165.205 59.4789C165.148 59.4406 165.067 59.4215 164.948 59.4215H164.686V60.9192Z" fill="white"/>
<path d="M168.705 63.9338L169.428 58.8281H170.451L171.221 63.9338H170.498L170.38 63.0247H169.562L169.452 63.9338H168.705ZM169.638 62.3978H170.299L169.961 59.833H169.952L169.638 62.3978Z" fill="white"/>
<path d="M174.846 63.9901C174.632 63.9901 174.456 63.9566 174.318 63.8896C174.175 63.8226 174.066 63.7269 173.985 63.5977C173.904 63.4685 173.847 63.3106 173.809 63.1288C173.776 62.9421 173.757 62.7316 173.757 62.4971V62.0425H174.489V62.5546C174.489 62.8273 174.513 63.0283 174.56 63.1479C174.608 63.2675 174.698 63.3297 174.836 63.3297C174.927 63.3297 174.998 63.3106 175.046 63.2627C175.093 63.2197 175.126 63.1479 175.141 63.0522C175.155 62.9565 175.164 62.8321 175.164 62.6742C175.164 62.4828 175.126 62.3057 175.046 62.1478C174.965 61.9899 174.846 61.8224 174.684 61.6549L174.308 61.2674C174.204 61.1573 174.109 61.0425 174.028 60.9228C173.947 60.8032 173.875 60.6644 173.828 60.5161C173.78 60.3678 173.752 60.2003 173.752 60.0137C173.752 59.7457 173.785 59.516 173.852 59.3342C173.918 59.1476 174.028 59.0088 174.185 58.9131C174.342 58.8174 174.556 58.7695 174.827 58.7695C175.031 58.7695 175.198 58.803 175.331 58.8652C175.464 58.9274 175.564 59.0184 175.64 59.1428C175.716 59.2624 175.768 59.4107 175.797 59.583C175.826 59.7553 175.845 59.9562 175.845 60.1764V60.4922H175.131V60.1285C175.131 59.9754 175.122 59.8462 175.107 59.7409C175.093 59.6404 175.06 59.5591 175.017 59.5112C174.974 59.4586 174.908 59.4347 174.822 59.4347C174.741 59.4347 174.675 59.4538 174.627 59.4873C174.579 59.5256 174.541 59.5782 174.518 59.6548C174.494 59.7313 174.484 59.827 174.484 59.9419C174.484 60.0472 174.499 60.1381 174.522 60.2194C174.551 60.296 174.589 60.3725 174.646 60.4443C174.703 60.5161 174.77 60.5974 174.855 60.6836L175.274 61.1382C175.474 61.3535 175.631 61.5784 175.74 61.8129C175.849 62.0473 175.906 62.3057 175.906 62.5976C175.906 62.9039 175.873 63.1623 175.807 63.368C175.74 63.5738 175.631 63.7317 175.478 63.8417C175.321 63.9374 175.112 63.9901 174.846 63.9901Z" fill="white"/>
<path d="M176.734 63.9338L177.457 58.8281H178.48L179.25 63.9338H178.527L178.408 63.0247H177.59L177.481 63.9338H176.734ZM177.661 62.3978H178.323L177.985 59.833H177.975L177.661 62.3978Z" fill="white"/>
<path d="M180.296 63.9338V58.8281H182.037V59.5028H181.067V60.8618H181.966V61.5413H181.067V63.9338H180.296Z" fill="white"/>
<path d="M183.169 63.9338V58.8281H184.872V59.498H183.945V60.9814H184.829V61.637H183.945V63.2639H184.91V63.9338H183.169Z" fill="white"/>
<path d="M186.071 63.9338V58.8281H187.35C187.616 58.8281 187.811 58.8808 187.945 58.986C188.078 59.0913 188.163 59.2444 188.201 59.4454C188.244 59.6464 188.263 59.8904 188.263 60.1823C188.263 60.4838 188.235 60.7182 188.173 60.8905C188.111 61.0628 187.987 61.1776 187.802 61.235C187.892 61.2494 187.964 61.2877 188.025 61.3451C188.087 61.4025 188.135 61.4839 188.168 61.5939C188.206 61.704 188.23 61.8427 188.249 62.015C188.268 62.1873 188.273 62.3978 188.273 62.6419C188.273 62.661 188.273 62.7136 188.273 62.8045C188.273 62.8955 188.273 63.0007 188.273 63.1204C188.273 63.24 188.273 63.3596 188.278 63.4792C188.278 63.5989 188.282 63.6994 188.287 63.7855C188.292 63.8716 188.297 63.9195 188.301 63.9386H187.526C187.521 63.929 187.516 63.8812 187.512 63.7903C187.507 63.6994 187.507 63.5845 187.502 63.4458C187.497 63.307 187.497 63.1586 187.497 62.996C187.497 62.8333 187.497 62.6753 187.497 62.5222C187.497 62.3691 187.497 62.2303 187.497 62.1107C187.497 61.9576 187.488 61.8427 187.464 61.7662C187.44 61.6896 187.402 61.6322 187.345 61.6035C187.288 61.5748 187.203 61.5556 187.093 61.5461L186.846 61.5317V63.9434H186.071V63.9338ZM186.846 60.9192H187.155C187.25 60.9192 187.321 60.9001 187.369 60.857C187.417 60.8139 187.45 60.7374 187.469 60.6225C187.488 60.5077 187.497 60.345 187.497 60.1297V60.0962C187.497 59.9143 187.488 59.7756 187.474 59.6799C187.455 59.5842 187.421 59.5172 187.364 59.4789C187.307 59.4406 187.226 59.4215 187.107 59.4215H186.846V60.9192Z" fill="white"/>
<path d="M192.235 63.991C191.973 63.991 191.754 63.9335 191.588 63.8235C191.421 63.7134 191.298 63.5459 191.222 63.3258C191.141 63.1057 191.103 62.833 191.103 62.5076V60.1724C191.103 59.8758 191.141 59.6269 191.217 59.4164C191.293 59.2059 191.417 59.0479 191.583 58.9331C191.75 58.8183 191.968 58.7656 192.239 58.7656C192.444 58.7656 192.615 58.7991 192.753 58.8613C192.891 58.9235 193.005 59.0192 193.096 59.1389C193.181 59.2585 193.243 59.4068 193.286 59.5791C193.324 59.7514 193.348 59.9475 193.348 60.1677V62.5028C193.348 62.8282 193.31 63.1009 193.234 63.321C193.157 63.5412 193.039 63.7086 192.872 63.8187C192.71 63.9383 192.496 63.991 192.235 63.991ZM192.235 63.321C192.33 63.321 192.401 63.2923 192.454 63.2349C192.501 63.1775 192.534 63.0866 192.549 62.9717C192.563 62.8521 192.572 62.7038 192.572 62.5219V60.1437C192.572 59.9236 192.553 59.7514 192.511 59.6269C192.468 59.5025 192.382 59.4451 192.244 59.4451C192.102 59.4451 192.006 59.5025 191.959 59.6222C191.907 59.737 191.883 59.914 191.883 60.1389V62.5219C191.883 62.7086 191.892 62.8617 191.907 62.9813C191.921 63.1009 191.959 63.1871 192.006 63.2445C192.059 63.2923 192.135 63.321 192.235 63.321Z" fill="white"/>
<path d="M194.637 63.9338V58.8281H195.241L196.316 61.8906L196.259 60.4981V58.8281H196.953V63.9338H196.406L195.303 60.7613L195.345 62.1011V63.9338H194.637Z" fill="white"/>
<path d="M198.313 63.9338V58.8281H199.089V63.2735H200.068V63.9338H198.313Z" fill="white"/>
<path d="M201.091 63.9338V58.8281H201.866V63.9338H201.091Z" fill="white"/>
<path d="M203.227 63.9338V58.8281H203.831L204.906 61.8906L204.848 60.4981V58.8281H205.543V63.9338H204.996L203.892 60.7613L203.935 62.1011V63.9338H203.227Z" fill="white"/>
<path d="M206.903 63.9338V58.8281H208.606V59.498H207.678V60.9814H208.563V61.637H207.678V63.2639H208.644V63.9338H206.903Z" fill="white"/>
<path d="M211.45 63.9338V58.8281H212.587C212.844 58.8281 213.053 58.8808 213.205 58.9812C213.362 59.0865 213.476 59.2349 213.543 59.431C213.61 59.6272 213.648 59.8617 213.648 60.1392L213.652 62.4409C213.652 62.7758 213.614 63.0534 213.543 63.2735C213.472 63.4936 213.353 63.6611 213.196 63.7664C213.034 63.8764 212.825 63.929 212.558 63.929H211.45V63.9338ZM212.221 63.3309H212.473C212.563 63.3309 212.639 63.3118 212.701 63.2783C212.763 63.24 212.806 63.1778 212.834 63.0821C212.863 62.9864 212.877 62.8572 212.877 62.6849L212.872 60.1632C212.872 59.9 212.839 59.7134 212.777 59.5985C212.715 59.4837 212.601 59.4263 212.444 59.4263H212.216V63.3309H212.221Z" fill="white"/>
<path d="M214.646 63.9338L215.369 58.8281H216.392L217.162 63.9338H216.44L216.321 63.0247H215.503L215.393 63.9338H214.646ZM215.574 62.3978H216.235L215.897 59.833H215.888L215.574 62.3978Z" fill="white"/>
<path d="M218.332 63.9328V59.497H217.738V58.8223H219.674V59.497H219.103V63.9328H218.332Z" fill="white"/>
<path d="M220.715 63.9338V58.8281H221.491V63.9338H220.715Z" fill="white"/>
<path d="M222.851 63.9338V58.8281H223.455L224.53 61.8906L224.473 60.4981V58.8281H225.167V63.9338H224.62L223.517 60.7613L223.56 62.1011V63.9338H222.851Z" fill="white"/>
<path d="M227.479 63.9853C227.174 63.9853 226.927 63.8657 226.742 63.6216C226.556 63.3776 226.461 62.9852 226.461 62.4397V60.2194C226.461 59.9897 226.485 59.7888 226.528 59.6069C226.57 59.4251 226.637 59.2768 226.727 59.1476C226.818 59.0231 226.937 58.9274 227.084 58.8652C227.232 58.7982 227.408 58.7695 227.612 58.7695C227.836 58.7695 228.016 58.803 228.159 58.87C228.302 58.937 228.406 59.0327 228.482 59.1619C228.559 59.2863 228.611 59.4442 228.639 59.6261C228.668 59.8079 228.682 60.0184 228.682 60.2481V60.6118H227.959V60.0759C227.959 59.8462 227.935 59.6835 227.888 59.5878C227.84 59.4921 227.75 59.4442 227.622 59.4442C227.479 59.4442 227.379 59.5017 227.322 59.6117C227.265 59.7266 227.236 59.9275 227.236 60.2146V62.4301C227.236 62.7507 227.26 62.9804 227.308 63.1192C227.355 63.258 227.455 63.325 227.603 63.325C227.75 63.325 227.85 63.2532 227.912 63.1096C227.974 62.9661 228.002 62.7316 228.002 62.3966V61.7076H227.612V61.1429H228.677V63.9327H228.33L228.211 63.4302C228.169 63.6073 228.078 63.7413 227.94 63.837C227.802 63.9327 227.655 63.9853 227.479 63.9853Z" fill="white"/>
<path d="M231.65 63.9338V58.8281H233.353V59.498H232.425V60.9814H233.31V61.637H232.425V63.2639H233.391V63.9338H231.65Z" fill="white"/>
<path d="M234.285 63.9338L235.065 61.1968L234.285 58.8281H234.937L235.441 60.345L235.845 58.8281H236.568L235.802 61.4408L236.63 63.9338H235.959L235.441 62.3643L235.022 63.9338H234.285Z" fill="white"/>
<path d="M237.729 63.9338V58.8281H238.894C239.094 58.8281 239.265 58.8568 239.398 58.919C239.531 58.9812 239.636 59.0722 239.712 59.1966C239.788 59.3162 239.845 59.4693 239.874 59.6464C239.907 59.8234 239.921 60.034 239.921 60.2637V60.3689C239.921 60.6991 239.893 60.9766 239.836 61.2111C239.779 61.4456 239.679 61.6178 239.531 61.7375C239.384 61.8571 239.179 61.9193 238.913 61.9193H238.494V63.9338H237.729ZM238.499 61.2781H238.766C238.88 61.2781 238.965 61.2494 239.018 61.192C239.07 61.1345 239.113 61.0388 239.127 60.9049C239.146 60.7709 239.156 60.589 239.156 60.3689V60.2684C239.156 59.9909 239.132 59.7804 239.084 59.6416C239.037 59.498 238.932 59.4263 238.77 59.4263H238.499V61.2781Z" fill="white"/>
<path d="M241.034 63.9338V58.8281H242.737V59.498H241.81V60.9814H242.694V61.637H241.81V63.2639H242.775V63.9338H241.034Z" fill="white"/>
<path d="M243.936 63.9338V58.8281H245.215C245.481 58.8281 245.676 58.8808 245.81 58.986C245.943 59.0913 246.028 59.2444 246.066 59.4454C246.109 59.6464 246.128 59.8904 246.128 60.1823C246.128 60.4838 246.1 60.7182 246.038 60.8905C245.976 61.0628 245.852 61.1776 245.667 61.235C245.757 61.2494 245.829 61.2877 245.89 61.3451C245.952 61.4025 246 61.4839 246.033 61.5939C246.071 61.704 246.095 61.8427 246.114 62.015C246.133 62.1873 246.138 62.3978 246.138 62.6419C246.138 62.661 246.138 62.7136 246.138 62.8045C246.138 62.8955 246.138 63.0007 246.138 63.1204C246.138 63.24 246.138 63.3596 246.143 63.4792C246.143 63.5989 246.147 63.6994 246.152 63.7855C246.157 63.8716 246.162 63.9195 246.166 63.9386H245.391C245.386 63.929 245.382 63.8812 245.377 63.7903C245.372 63.6994 245.372 63.5845 245.367 63.4458C245.363 63.307 245.363 63.1586 245.363 62.996C245.363 62.8333 245.363 62.6753 245.363 62.5222C245.363 62.3691 245.363 62.2303 245.363 62.1107C245.363 61.9576 245.353 61.8427 245.329 61.7662C245.305 61.6896 245.267 61.6322 245.21 61.6035C245.153 61.5748 245.068 61.5556 244.958 61.5461L244.711 61.5317V63.9434H243.936V63.9338ZM244.711 60.9192H245.02C245.115 60.9192 245.187 60.9001 245.234 60.857C245.282 60.8139 245.315 60.7374 245.334 60.6225C245.353 60.5077 245.363 60.345 245.363 60.1297V60.0962C245.363 59.9143 245.353 59.7756 245.339 59.6799C245.32 59.5842 245.286 59.5172 245.229 59.4789C245.172 59.4406 245.091 59.4215 244.972 59.4215H244.711V60.9192Z" fill="white"/>
<path d="M247.398 63.9338V58.8281H248.173V63.9338H247.398Z" fill="white"/>
<path d="M249.539 63.9338V58.8281H251.241V59.498H250.314V60.9814H251.198V61.637H250.314V63.2639H251.279V63.9338H249.539Z" fill="white"/>
<path d="M252.44 63.9338V58.8281H253.044L254.119 61.8906L254.062 60.4981V58.8281H254.756V63.9338H254.209L253.106 60.7613L253.149 62.1011V63.9338H252.44Z" fill="white"/>
<path d="M257.153 63.991C256.906 63.991 256.701 63.9335 256.54 63.8187C256.378 63.7039 256.254 63.5364 256.174 63.3163C256.093 63.0961 256.05 62.833 256.05 62.5171V60.2921C256.05 60.0576 256.069 59.8471 256.107 59.6604C256.145 59.4738 256.207 59.3111 256.292 59.1771C256.378 59.0432 256.492 58.9427 256.64 58.8709C256.782 58.7991 256.963 58.7656 257.172 58.7656C257.363 58.7656 257.529 58.7991 257.662 58.8613C257.8 58.9235 257.91 59.0144 257.995 59.1341C258.081 59.2537 258.143 59.3925 258.181 59.56C258.219 59.7274 258.238 59.914 258.238 60.1246V60.828H257.491V60.1772C257.491 59.9236 257.472 59.7418 257.429 59.6222C257.386 59.5025 257.301 59.4451 257.177 59.4451C257.039 59.4451 256.944 59.5073 256.896 59.6365C256.849 59.7657 256.825 59.9428 256.825 60.1772V62.5602C256.825 62.7373 256.835 62.8856 256.854 62.9957C256.873 63.1105 256.906 63.1918 256.954 63.2445C257.001 63.2971 257.068 63.3258 257.153 63.3258C257.282 63.3258 257.372 63.2636 257.42 63.1392C257.467 63.0148 257.491 62.8186 257.491 62.5506V61.8185H258.247V62.5411C258.247 62.8617 258.209 63.1344 258.133 63.3498C258.057 63.5651 257.938 63.7278 257.776 63.833C257.624 63.9383 257.41 63.991 257.153 63.991Z" fill="white"/>
<path d="M259.498 63.9338V58.8281H261.201V59.498H260.273V60.9814H261.158V61.637H260.273V63.2639H261.239V63.9338H259.498Z" fill="white"/>
</g>
<defs>
<clipPath id="clip0_641_87">
<rect width="238" height="55" fill="white" transform="translate(24 14)"/>
</clipPath>
</defs>
</svg>
