<svg width="307" height="307" viewBox="0 0 307 307" fill="none" xmlns="http://www.w3.org/2000/svg">
<g filter="url(#filter0_d_374_16804)">
<path d="M153.5 282.998C227.23 282.998 287 248.525 287 205.999C287 163.474 227.23 129 153.5 129C79.77 129 20 163.474 20 205.999C20 248.525 79.77 282.998 153.5 282.998Z" fill="#F5F5F5"/>
</g>
<path d="M67.8637 224.91L35.3413 206.147L67.8637 187.391L100.392 206.147L67.8637 224.91Z" fill="#E0E0E0"/>
<path d="M96.3216 229.495L72.1666 215.562L96.3216 201.629L120.476 215.562L96.3216 229.495Z" fill="#E0E0E0"/>
<path d="M150.175 266.294C169.767 266.294 185.65 257.133 185.65 245.833C185.65 234.533 169.767 225.373 150.175 225.373C130.583 225.373 114.701 234.533 114.701 245.833C114.701 257.133 130.583 266.294 150.175 266.294Z" fill="#E0E0E0"/>
<path d="M249.215 233.733L111.4 154.493L129.901 143.82L267.716 223.066L249.215 233.733Z" fill="#E0E0E0"/>
<path d="M248.317 211.965L256.605 216.776C256.605 216.776 252.424 203.442 254.747 190.033C255.621 184.972 257.467 182.456 258.114 181.107C258.762 179.758 263.762 171.393 259.361 167.534C254.961 163.675 244.643 171.35 245.108 192.006C245.346 202.599 248.317 211.965 248.317 211.965Z" fill="#3360E9"/>
<path opacity="0.3" d="M248.317 211.965L256.605 216.776C256.605 216.776 252.424 203.442 254.747 190.033C255.621 184.972 257.467 182.456 258.114 181.107C258.762 179.758 263.762 171.393 259.361 167.534C254.961 163.675 244.643 171.35 245.108 192.006C245.346 202.599 248.317 211.965 248.317 211.965Z" fill="black"/>
<path d="M252.173 214.5C252.051 214.5 251.935 214.426 251.892 214.304C251.862 214.219 248.732 205.543 248.897 191.616C249.062 177.621 256.415 170.166 256.495 170.093C256.611 169.977 256.8 169.977 256.916 170.093C257.033 170.209 257.033 170.398 256.916 170.514C256.843 170.587 249.661 177.884 249.496 191.622C249.331 205.427 252.424 214.011 252.455 214.097C252.51 214.249 252.43 214.426 252.277 214.481C252.241 214.494 252.204 214.5 252.173 214.5Z" fill="white"/>
<path d="M250.652 213.21L264.343 221.252C264.343 221.252 270.614 220.33 270.137 214.438C269.66 208.546 267.117 207.154 270.29 204.565C273.462 201.976 274.281 201.805 274.128 199.265C273.975 196.725 272.264 195.62 271.463 194.612C270.656 193.605 268.419 191.499 269.996 188.433C271.573 185.374 273.712 182.413 270.54 181.009C268.646 180.172 265.461 181.223 263.346 183.463C261.232 185.704 259.49 187.316 257.491 187.835C255.492 188.354 251.318 188.397 251.458 191.84C251.599 195.284 252.491 196.475 251.66 198.001C250.071 200.883 243.342 202.434 250.652 213.21Z" fill="#3360E9"/>
<path d="M256.226 216.781C256.073 216.781 255.938 216.665 255.926 216.507C255.908 216.305 254.423 195.949 268.578 182.583C268.701 182.467 268.89 182.473 269 182.596C269.116 182.718 269.11 182.907 268.988 183.017C255.046 196.181 256.507 216.256 256.525 216.452C256.537 216.617 256.415 216.763 256.25 216.775C256.244 216.781 256.232 216.781 256.226 216.781Z" fill="white"/>
<path d="M258.683 199.307C258.53 199.307 258.396 199.185 258.383 199.026C257.986 193.641 254.227 190.869 254.19 190.845C254.056 190.747 254.025 190.558 254.123 190.423C254.221 190.289 254.411 190.258 254.539 190.356C254.704 190.472 258.561 193.305 258.976 198.983C258.988 199.148 258.866 199.295 258.701 199.307C258.695 199.307 258.689 199.307 258.683 199.307Z" fill="white"/>
<path d="M257.668 202.787C257.595 202.787 257.528 202.763 257.467 202.708C257.344 202.598 257.332 202.409 257.442 202.287C257.589 202.122 261.14 198.3 269.348 199.423C269.513 199.448 269.63 199.594 269.605 199.759C269.581 199.924 269.434 200.034 269.269 200.015C261.397 198.935 257.925 202.647 257.894 202.684C257.833 202.757 257.754 202.787 257.668 202.787Z" fill="white"/>
<path d="M252.546 108.602L187.422 2.93605C185.692 0.133525 182.068 -0.818966 179.183 0.762414L121.014 32.7381L252.546 108.602Z" fill="#3360E9"/>
<path d="M252.546 108.602L121.014 32.7383V147.104C121.014 151.018 123.105 154.639 126.497 156.593L243.311 223.969C247.412 226.332 252.534 223.377 252.534 218.651V108.602H252.546Z" fill="#3360E9"/>
<g opacity="0.3">
<path d="M252.546 108.602L187.422 2.93605C185.692 0.133525 182.068 -0.818966 179.183 0.762414L121.014 32.7381L252.546 108.602Z" fill="white"/>
<path d="M252.546 108.602L121.014 32.7383V147.104C121.014 151.018 123.105 154.639 126.497 156.593L243.311 223.969C247.412 226.332 252.534 223.377 252.534 218.651V108.602H252.546Z" fill="white"/>
</g>
<path d="M249.454 109.828L184.335 4.16261C182.606 1.36009 178.981 0.407596 176.096 1.98898L117.928 33.9646L249.454 109.828Z" fill="#3360E9"/>
<path opacity="0.5" d="M249.454 109.828L184.335 4.16261C182.606 1.36009 178.981 0.407596 176.096 1.98898L117.928 33.9646L249.454 109.828Z" fill="white"/>
<path d="M249.454 109.828L117.922 33.9707V148.337C117.922 152.251 120.012 155.871 123.404 157.825L240.218 225.202C244.319 227.565 249.441 224.61 249.441 219.884V109.828H249.454Z" fill="#3360E9"/>
<path opacity="0.5" d="M249.454 109.828L117.922 33.9707V148.337C117.922 152.251 120.012 155.871 123.404 157.825L240.218 225.202C244.319 227.565 249.441 224.61 249.441 219.884V109.828H249.454Z" fill="white"/>
<path d="M123.41 157.825L240.224 225.202C242.199 226.343 244.411 226.233 246.171 225.299L176.451 120.434L117.922 148.337C117.922 152.25 120.018 155.865 123.41 157.825Z" fill="#3360E9"/>
<path opacity="0.7" d="M123.41 157.825L240.224 225.202C242.199 226.343 244.411 226.233 246.171 225.299L176.451 120.434L117.922 148.337C117.922 152.25 120.018 155.865 123.41 157.825Z" fill="white"/>
<path d="M117.922 33.9707L174.874 130.948L249.454 109.828L117.922 33.9707Z" fill="#3360E9"/>
<path opacity="0.3" d="M117.922 33.9707L174.874 130.948L249.454 109.828L117.922 33.9707Z" fill="white"/>
<path d="M235.023 68.0044V113.919L174.88 130.948L132.695 59.1206V8.98047L235.023 68.0044Z" fill="#F0F0F0"/>
<path d="M67.8637 221.46L42.2603 206.69V171.625L67.8637 186.395V221.46Z" fill="#3360E9"/>
<path d="M67.8638 221.46V186.395L93.4734 171.625V206.69L67.8638 221.46Z" fill="#3360E9"/>
<path opacity="0.5" d="M67.8637 221.46L42.2603 206.69V171.625L67.8637 186.395V221.46Z" fill="black"/>
<path opacity="0.7" d="M67.8638 221.46V186.395L93.4734 171.625V206.69L67.8638 221.46Z" fill="black"/>
<path d="M67.8637 184.966L40.2738 169.048L67.8637 153.137L95.4598 169.048L67.8637 184.966Z" fill="#3360E9"/>
<path opacity="0.1" d="M67.8637 184.966L40.2738 169.048L67.8637 153.137L95.4598 169.048L67.8637 184.966Z" fill="black"/>
<path d="M52.2719 162.13L79.8618 178.042L83.4557 175.972L55.8658 160.061L52.2719 162.13Z" fill="#3360E9"/>
<path opacity="0.3" d="M52.2719 162.13L79.8618 178.042L83.4557 175.972L55.8658 160.061L52.2719 162.13Z" fill="white"/>
<path d="M67.8637 190.468L40.2738 174.556V169.049L67.8637 184.966V190.468Z" fill="#3360E9"/>
<path d="M67.8638 190.468V184.966L95.4598 169.049V174.556L67.8638 190.468Z" fill="#3360E9"/>
<path opacity="0.3" d="M67.8637 190.468L40.2738 174.556V169.049L67.8637 184.966V190.468Z" fill="black"/>
<path opacity="0.5" d="M67.8638 190.468V184.966L95.4598 169.049V174.556L67.8638 190.468Z" fill="black"/>
<path d="M55.8658 214.561L52.2719 212.503V175.973L55.8658 178.043V214.561Z" fill="#3360E9"/>
<path d="M79.8618 214.561L83.4557 212.503V175.973L79.8618 178.043V214.561Z" fill="#3360E9"/>
<path opacity="0.2" d="M55.8658 214.561L52.2719 212.503V175.973L55.8658 178.043V214.561Z" fill="black"/>
<path opacity="0.4" d="M79.8618 214.561L83.4557 212.503V175.973L79.8618 178.043V214.561Z" fill="black"/>
<path d="M83.4557 162.13L55.8658 178.042L52.2719 175.972L79.8618 160.061L83.4557 162.13Z" fill="#3360E9"/>
<path opacity="0.3" d="M83.4557 162.13L55.8658 178.042L52.2719 175.972L79.8618 160.061L83.4557 162.13Z" fill="white"/>
<path d="M96.3216 226.637L77.6125 215.848V190.229L96.3216 201.017V226.637Z" fill="#3360E9"/>
<path d="M96.3215 226.637V201.017L115.024 190.229V215.848L96.3215 226.637Z" fill="#3360E9"/>
<path opacity="0.5" d="M96.3216 226.637L77.6125 215.848V190.229L96.3216 201.017V226.637Z" fill="black"/>
<path opacity="0.7" d="M96.3215 226.637V201.017L115.024 190.229V215.848L96.3215 226.637Z" fill="black"/>
<path d="M96.3216 199.973L76.1639 188.348L96.3216 176.723L116.479 188.348L96.3216 199.973Z" fill="#3360E9"/>
<path opacity="0.1" d="M96.3216 199.973L76.1639 188.348L96.3216 176.723L116.479 188.348L96.3216 199.973Z" fill="black"/>
<path d="M84.9287 183.292L105.086 194.917L107.715 193.403L87.5569 181.777L84.9287 183.292Z" fill="#3360E9"/>
<path opacity="0.3" d="M84.9287 183.292L105.086 194.917L107.715 193.403L87.5569 181.777L84.9287 183.292Z" fill="white"/>
<path d="M96.3216 203.997L76.1639 192.371V188.348L96.3216 199.973V203.997Z" fill="#3360E9"/>
<path d="M96.3215 203.997V199.973L116.479 188.348V192.371L96.3215 203.997Z" fill="#3360E9"/>
<path opacity="0.3" d="M96.3216 203.997L76.1639 192.371V188.348L96.3216 199.973V203.997Z" fill="black"/>
<path opacity="0.5" d="M96.3215 203.997V199.973L116.479 188.348V192.371L96.3215 203.997Z" fill="black"/>
<path d="M87.5569 221.6L84.9287 220.092V193.404L87.5569 194.919V221.6Z" fill="#3360E9"/>
<path d="M105.086 221.6L107.714 220.092V193.404L105.086 194.919V221.6Z" fill="#3360E9"/>
<path d="M107.715 183.292L87.5569 194.917L84.9287 193.403L105.086 181.777L107.715 183.292Z" fill="#3360E9"/>
<path opacity="0.3" d="M107.715 183.292L87.5569 194.917L84.9287 193.403L105.086 181.777L107.715 183.292Z" fill="white"/>
<path d="M117.029 97.9533L128.043 116.57L140.548 109.884C142.999 108.571 145.683 107.759 148.451 107.484L140.732 122.907L128.41 128.909C126.014 130.075 123.092 129.502 121.399 127.444C120.006 125.753 118.472 122.987 117.035 118.505C112.946 105.732 111.039 99.0645 111.039 99.0645L113.362 95.4805L117.029 97.9533Z" fill="#FFA8A7"/>
<path d="M145.218 222.65C145.249 222.351 145.285 222.064 145.316 221.789C145.921 216.776 149.49 200.444 148.989 193.105L159.85 151.836L141.985 148.832C141.985 148.832 134.644 175.3 133.746 189.765C133.251 197.727 133.88 211.709 134.552 222.675C136.857 223.523 140.72 224.305 145.218 222.65Z" fill="#455A64"/>
<path d="M139.112 242.842L144.032 235.656C144.032 235.656 144.65 227.749 145.224 222.65C140.726 224.305 136.857 223.524 134.559 222.681C135.109 231.65 135.677 238.611 135.677 238.611L139.112 242.842Z" fill="#FFA8A7"/>
<path d="M147.889 149.828L144.931 150.17C142.455 161.136 150.15 166.271 150.15 166.271C150.15 166.271 144.863 183.19 142.498 195.633C141.349 201.684 144.154 205.183 147.767 207.13C148.586 201.873 149.234 196.519 149.001 193.112L159.862 151.843L147.889 149.828Z" fill="#37474F"/>
<path d="M144.167 236.854C144.167 236.854 142.187 237.928 141.233 240.517C140.811 241.659 139.693 242.605 139.112 242.843C139.112 242.843 139.607 240.694 138.739 240.028C137.871 239.363 134.815 237 134.491 240.352C134.388 241.408 134.29 242.465 134.29 242.465C134.29 242.465 130.237 246.855 128.263 247.813C126.289 248.772 120.678 248.65 122.053 253.766C123.429 258.883 133.086 256.398 136.258 253.626C139.43 250.854 147.223 251.464 147.113 247.764C146.997 244.07 144.411 239.815 144.167 236.854Z" fill="#263238"/>
<path d="M144.026 235.662C144.026 235.662 142.034 236.743 141.068 239.35C140.64 240.498 139.515 241.45 138.935 241.695C138.935 241.695 139.43 239.533 138.562 238.861C137.688 238.19 134.614 235.815 134.284 239.191C134.18 240.254 134.076 241.316 134.076 241.316C134.076 241.316 129.993 245.737 128.006 246.701C126.02 247.666 120.366 247.544 121.754 252.697C123.141 257.85 132.859 255.341 136.056 252.557C139.247 249.766 147.094 250.377 146.984 246.652C146.874 242.928 144.277 238.642 144.026 235.662Z" fill="#37474F"/>
<path d="M137.266 245.186C137.144 245.186 137.028 245.107 136.985 244.979C136.154 242.304 134.082 241.621 133.996 241.596C133.843 241.547 133.758 241.382 133.807 241.23C133.856 241.077 134.015 240.992 134.173 241.034C134.271 241.065 136.624 241.822 137.547 244.808C137.596 244.96 137.511 245.125 137.352 245.174C137.321 245.18 137.291 245.186 137.266 245.186Z" fill="#F0F0F0"/>
<path d="M135.494 246.848C135.371 246.848 135.255 246.769 135.213 246.641C134.387 243.967 132.309 243.283 132.224 243.258C132.071 243.209 131.985 243.045 132.034 242.892C132.083 242.739 132.242 242.654 132.401 242.697C132.499 242.727 134.852 243.484 135.775 246.47C135.824 246.623 135.738 246.787 135.579 246.836C135.549 246.842 135.524 246.848 135.494 246.848Z" fill="#F0F0F0"/>
<path d="M133.746 248.606C133.623 248.606 133.507 248.527 133.465 248.399C132.639 245.724 130.561 245.041 130.476 245.016C130.323 244.967 130.237 244.802 130.286 244.65C130.335 244.497 130.5 244.412 130.653 244.454C130.751 244.485 133.104 245.242 134.027 248.228C134.076 248.38 133.99 248.545 133.831 248.594C133.807 248.606 133.776 248.606 133.746 248.606Z" fill="#F0F0F0"/>
<path d="M128.013 246.701C126.026 247.666 120.372 247.544 121.76 252.697C122.652 256.019 127.016 256.159 130.855 255.084C131.02 254.046 131.142 252.331 130.653 250.523C129.877 247.629 128.013 246.701 128.013 246.701Z" fill="#FAFAFA"/>
<path d="M183.021 199.644C183.021 199.644 183.547 201.83 185.802 203.429C186.799 204.132 187.416 205.456 187.501 206.079C187.501 206.079 185.552 205.041 184.684 205.707C183.816 206.372 180.742 208.705 183.895 209.889C184.892 210.262 185.888 210.634 185.888 210.634C185.888 210.634 189.078 215.684 189.494 217.839C189.91 219.994 188.333 225.373 193.638 225.373C198.943 225.373 199.047 215.415 197.189 211.635C195.337 207.856 197.947 200.499 194.341 199.644C190.735 198.795 185.949 200.181 183.021 199.644Z" fill="#263238"/>
<path d="M174.813 197.983C173.761 197.703 172.661 197.385 171.567 197.025C166.262 195.273 160.932 194.442 160.932 194.442C160.932 194.442 169.281 174.012 171.115 163.175C172.949 152.337 168.609 144.998 168.609 144.998L144.497 149.248C142.669 160.336 151.996 166.008 151.996 166.008C151.63 165.916 146.661 182.249 144.735 194.772C142.81 207.289 153.818 207.698 159.092 207.612C161.611 207.569 168.071 207.569 174.128 207.582C176.084 203.179 175.461 199.779 174.813 197.983Z" fill="#455A64"/>
<path d="M182.214 199.529C182.214 199.529 178.853 199.053 174.813 197.984C175.461 199.779 176.084 203.18 174.128 207.583C180.748 207.595 186.884 207.613 186.884 207.613C186.884 201.361 182.214 199.529 182.214 199.529Z" fill="#FFA8A7"/>
<path d="M181.835 199.473C181.835 199.473 182.361 201.678 184.635 203.283C185.637 203.992 186.261 205.329 186.346 205.952C186.346 205.952 184.384 204.908 183.51 205.579C182.636 206.245 179.537 208.601 182.716 209.792C183.718 210.165 184.72 210.543 184.72 210.543C184.72 210.543 187.935 215.629 188.351 217.797C188.767 219.964 187.184 225.386 192.525 225.386C197.867 225.386 197.971 215.36 196.101 211.557C194.237 207.753 196.865 200.34 193.234 199.48C189.598 198.613 184.781 200.005 181.835 199.473Z" fill="#37474F"/>
<path d="M184.714 210.825C184.659 210.825 184.604 210.813 184.555 210.782C184.421 210.697 184.378 210.513 184.464 210.379C184.519 210.294 185.863 208.218 188.987 208.102C189.133 208.071 189.286 208.224 189.292 208.382C189.298 208.541 189.17 208.682 189.011 208.688C186.206 208.792 185.014 210.617 184.965 210.69C184.91 210.782 184.812 210.825 184.714 210.825Z" fill="#F0F0F0"/>
<path d="M185.863 212.967C185.808 212.967 185.753 212.955 185.711 212.925C185.576 212.839 185.533 212.656 185.619 212.522C185.674 212.436 187.019 210.36 190.142 210.244C190.148 210.244 190.148 210.244 190.154 210.244C190.313 210.244 190.441 210.366 190.447 210.525C190.454 210.684 190.325 210.824 190.166 210.83C187.349 210.934 186.132 212.815 186.12 212.833C186.059 212.918 185.961 212.967 185.863 212.967Z" fill="#F0F0F0"/>
<path d="M187.11 215.104C187.055 215.104 187 215.092 186.951 215.061C186.817 214.976 186.774 214.793 186.86 214.658C186.915 214.573 188.259 212.497 191.383 212.381C191.529 212.35 191.682 212.503 191.688 212.662C191.694 212.82 191.566 212.961 191.407 212.967C188.602 213.071 187.41 214.896 187.361 214.97C187.3 215.061 187.208 215.104 187.11 215.104Z" fill="#F0F0F0"/>
<path d="M188.345 217.791C188.761 219.959 187.178 225.381 192.52 225.381C195.967 225.381 197.226 221.211 197.189 217.23C196.23 216.802 194.604 216.234 192.727 216.234C189.726 216.234 188.345 217.791 188.345 217.791Z" fill="#FAFAFA"/>
<path d="M170.027 81.2663C170.027 81.2663 170.137 75.7101 171.695 75.5941C173.254 75.4841 172.123 79.4284 172.123 79.4284C172.123 79.4284 173.749 78.3416 174.366 79.3185C174.978 80.2894 171.359 81.8768 171.359 81.8768L170.027 81.2663Z" fill="#263238"/>
<path d="M137.382 92.1704C137.382 92.1704 138.489 101.378 152.479 95.1561C152.479 95.1561 139.198 119.622 163.016 119.622C173.48 119.622 180.546 114.517 179.128 105.896C179.128 105.896 184.977 105.774 185.215 101.079C185.215 101.079 178.04 104.217 174.923 97.1344C171.806 90.0517 176.084 83.0485 170.773 80.2154C170.773 80.2154 167.808 70.8065 149.772 75.8254C149.772 75.8254 147.528 74.0487 144.35 75.2698C141.172 76.491 140.353 82.1021 141.166 86.3578C141.985 90.6074 141.123 93.9533 137.382 92.1704Z" fill="#263238"/>
<path d="M166.47 109.353L169.3 110.122V128.799L166.47 137.805C166.47 137.805 168.413 142.751 169.636 148.478C169.636 148.478 163.567 152.648 155.169 152.648C146.771 152.648 141.985 148.845 141.985 148.845L140.921 136.419C140.921 136.419 134.687 132.445 137.749 124.507C140.811 116.57 148.445 107.484 148.445 107.484H151.202C151.208 107.478 157.577 111.307 166.47 109.353Z" fill="#3360E9"/>
<path opacity="0.6" d="M166.47 109.353L169.3 110.122V128.799L166.47 137.805C166.47 137.805 168.413 142.751 169.636 148.478C169.636 148.478 163.567 152.648 155.169 152.648C146.771 152.648 141.985 148.845 141.985 148.845L140.921 136.419C140.921 136.419 134.687 132.445 137.749 124.507C140.811 116.57 148.445 107.484 148.445 107.484H151.202C151.208 107.478 157.577 111.307 166.47 109.353Z" fill="black"/>
<path d="M162.271 108.264L166.47 109.345C166.47 109.345 162.112 112.013 160.48 120.641C160.26 121.789 159.105 122.509 157.98 122.179L146.697 118.864C145.481 118.504 144.906 117.112 145.53 116.006C146.923 113.528 149.289 109.541 151.202 107.471H154.961L162.271 108.264Z" fill="#FFA8A7"/>
<path d="M162.271 108.265L152.479 107.533V95.1562H162.271V108.265Z" fill="#FFA8A7"/>
<path d="M152.479 107.001C155.939 105.664 159.557 102.99 161.476 98.4531V95.1621H152.479V107.001Z" fill="#F28F8F"/>
<path d="M150.193 79.1157C150.193 79.1157 141.233 79.6407 142.339 94.9417C142.853 102.018 144.509 105.682 149.961 105.413C156.14 105.108 164.911 100.864 164.337 88.7627C163.768 76.6551 150.193 79.1157 150.193 79.1157Z" fill="#FFA8A7"/>
<path d="M162.271 95.156C162.271 95.156 159.814 95.8032 159.814 92.2863C159.814 92.2863 148.904 91.5476 146.489 80.7282C146.489 80.7282 147.565 77.4922 154.38 77.4922C161.195 77.4922 166.922 83.5124 165.143 91.7796L162.271 95.156Z" fill="#263238"/>
<path d="M148.91 91.8711V97.1342L145.829 96.1878L148.91 91.8711Z" fill="#F28F8F"/>
<path d="M153.549 92.434C153.549 93.0262 153.066 93.5086 152.473 93.5086C151.88 93.5086 151.397 93.0262 151.397 92.434C151.397 91.8417 151.88 91.3594 152.473 91.3594C153.072 91.3594 153.549 91.8417 153.549 92.434Z" fill="#263238"/>
<path d="M146.495 91.682C146.495 92.2743 146.013 92.7566 145.42 92.7566C144.827 92.7566 144.344 92.2743 144.344 91.682C144.344 91.0898 144.827 90.6074 145.42 90.6074C146.013 90.6135 146.495 91.0898 146.495 91.682Z" fill="#263238"/>
<path d="M144.118 89.454L146.214 88.2084C146.214 88.2084 145.407 87.3719 144.607 87.8726C143.806 88.3794 144.118 89.454 144.118 89.454Z" fill="#263238"/>
<path d="M149.179 98.8751C149.179 98.8751 151.214 99.0583 152.632 97.9531C152.632 97.9531 152.87 99.7726 151.342 100.115C149.82 100.463 149.179 98.8751 149.179 98.8751Z" fill="#F28F8F"/>
<path d="M161.403 95.5524C161.378 94.661 161.519 93.7695 161.886 92.9575C162.295 92.0477 163.016 91.1258 164.269 91.0952C167.02 91.022 167.393 93.6657 167.356 94.606C167.258 97.0788 165.253 99.7532 161.525 99.857L161.403 95.5524Z" fill="#FFA8A7"/>
<path d="M168.365 109.865C168.365 109.865 163.139 114.524 165.559 121.197C167.979 127.865 172.906 136.163 174.281 139.124C174.281 139.124 162.552 140.455 159.63 140.748L161.299 148.417C161.299 148.417 177.991 148.753 181.579 147.44C185.167 146.127 186.835 142.958 184.959 138.037C183.547 134.343 177.435 121.094 174.477 114.713C173.45 112.497 171.524 110.83 169.19 110.122L168.365 109.865Z" fill="#FFA8A7"/>
<path d="M79.4277 82.1447V138.427C79.4277 140.644 80.6135 142.695 82.5388 143.8L152.369 184C154.233 185.075 156.562 183.732 156.562 181.582V125.367C156.562 122.577 155.071 120 152.65 118.608L84.3602 79.2995C82.1659 78.0417 79.4277 79.617 79.4277 82.1447Z" fill="#3360E9"/>
<path opacity="0.3" d="M79.4277 82.1447V138.427C79.4277 140.644 80.6135 142.695 82.5388 143.8L152.369 184C154.233 185.075 156.562 183.732 156.562 181.582V125.367C156.562 122.577 155.071 120 152.65 118.608L84.3602 79.2995C82.1659 78.0417 79.4277 79.617 79.4277 82.1447Z" fill="black"/>
<path d="M77.9058 82.7117V138.994C77.9058 141.211 79.0915 143.262 81.0168 144.367L150.847 184.567C152.711 185.642 155.04 184.299 155.04 182.149V125.934C155.04 123.144 153.549 120.567 151.128 119.175L82.8382 79.8665C80.644 78.6026 77.9058 80.184 77.9058 82.7117Z" fill="#3360E9"/>
<path d="M104.768 92.4883L106.095 91.8105L108.778 93.3553L107.592 94.1124L104.768 92.4883Z" fill="#3360E9"/>
<path d="M104.768 158.045L107.592 159.669V94.1124L104.768 92.4883V158.045Z" fill="#3360E9"/>
<path opacity="0.4" d="M104.768 158.045L107.592 159.669V94.1124L104.768 92.4883V158.045Z" fill="white"/>
<path d="M118.215 98.7838L115.397 97.1597C115.397 97.1597 114.853 97.9596 114.462 101.91C114.132 105.201 102.159 98.2221 107.201 91.9271C110.367 87.9645 119.884 95.5966 118.215 98.7838Z" fill="#FFA8A7"/>
<path d="M159.636 140.741C159.636 140.741 155.951 140.906 155.059 140.741C154.166 140.577 151.3 137.792 150.536 137.682C149.772 137.573 147.822 138.794 149.325 143.465C150.829 148.135 152.999 150.248 156.391 149.747C159.783 149.247 161.299 148.416 161.299 148.416L159.636 140.741Z" fill="#FFA8A7"/>
<path d="M159.636 140.741C159.636 140.741 157.338 138.965 156.562 138.629V142.018L159.636 140.741Z" fill="#FFA8A7"/>
<path d="M77.9058 112.167L155.04 156.653V153.1L77.9058 108.613V112.167Z" fill="#3360E9"/>
<path opacity="0.4" d="M77.9058 112.167L155.04 156.653V153.1L77.9058 108.613V112.167Z" fill="white"/>
<path d="M105.679 124.751C105.679 124.751 102.476 113.95 104.97 113.095C106.981 112.405 109.022 114.243 108.289 118.254C107.629 121.863 107.397 126.039 107.397 126.039C108.142 126.473 109.096 126.125 109.383 125.313C110.587 121.936 113.301 116.661 111.693 112.631C110.55 109.761 105.728 105.878 102.116 107.453C98.5035 109.029 99.8481 116.868 103.717 124.5C103.717 124.507 104.426 126.222 105.679 124.751Z" fill="#3360E9"/>
<path opacity="0.6" d="M105.679 124.751C105.679 124.751 102.476 113.95 104.97 113.095C106.981 112.405 109.022 114.243 108.289 118.254C107.629 121.863 107.397 126.039 107.397 126.039C108.142 126.473 109.096 126.125 109.383 125.313C110.587 121.936 113.301 116.661 111.693 112.631C110.55 109.761 105.728 105.878 102.116 107.453C98.5035 109.029 99.8481 116.868 103.717 124.5C103.717 124.507 104.426 126.222 105.679 124.751Z" fill="white"/>
<path d="M106.51 129.867C106.51 129.867 109.713 140.668 107.219 141.523C105.209 142.212 103.167 140.375 103.901 136.363C104.561 132.755 104.793 128.578 104.793 128.578C104.047 128.145 103.094 128.493 102.806 129.305C101.602 132.681 98.8886 137.957 100.496 141.987C101.639 144.856 106.461 148.739 110.074 147.164C113.686 145.589 112.341 137.749 108.472 130.117C108.472 130.111 107.757 128.395 106.51 129.867Z" fill="#3360E9"/>
<path opacity="0.6" d="M106.51 129.867C106.51 129.867 109.713 140.668 107.219 141.523C105.209 142.212 103.167 140.375 103.901 136.363C104.561 132.755 104.793 128.578 104.793 128.578C104.047 128.145 103.094 128.493 102.806 129.305C101.602 132.681 98.8886 137.957 100.496 141.987C101.639 144.856 106.461 148.739 110.074 147.164C113.686 145.589 112.341 137.749 108.472 130.117C108.472 130.111 107.757 128.395 106.51 129.867Z" fill="white"/>
<path d="M107.72 132.29L104.09 130.196C103.088 129.622 102.476 128.554 102.476 127.4V123.639C102.476 122.338 103.888 121.52 105.019 122.173L108.124 123.962C109.218 124.597 109.896 125.763 109.896 127.027V131.033C109.89 132.15 108.686 132.846 107.72 132.29Z" fill="#3360E9"/>
<path opacity="0.6" d="M107.72 132.29L104.09 130.196C103.088 129.622 102.476 128.554 102.476 127.4V123.639C102.476 122.338 103.888 121.52 105.019 122.173L108.124 123.962C109.218 124.597 109.896 125.763 109.896 127.027V131.033C109.89 132.15 108.686 132.846 107.72 132.29Z" fill="white"/>
<path d="M155.04 156.653L156.562 155.755V152.086L155.04 153.099V156.653Z" fill="#3360E9"/>
<defs>
<filter id="filter0_d_374_16804" x="0" y="113" width="307" height="193.998" filterUnits="userSpaceOnUse" color-interpolation-filters="sRGB">
<feFlood flood-opacity="0" result="BackgroundImageFix"/>
<feColorMatrix in="SourceAlpha" type="matrix" values="0 0 0 0 0 0 0 0 0 0 0 0 0 0 0 0 0 0 127 0" result="hardAlpha"/>
<feOffset dy="4"/>
<feGaussianBlur stdDeviation="10"/>
<feComposite in2="hardAlpha" operator="out"/>
<feColorMatrix type="matrix" values="0 0 0 0 0 0 0 0 0 0 0 0 0 0 0 0 0 0 0.25 0"/>
<feBlend mode="normal" in2="BackgroundImageFix" result="effect1_dropShadow_374_16804"/>
<feBlend mode="normal" in="SourceGraphic" in2="effect1_dropShadow_374_16804" result="shape"/>
</filter>
</defs>
</svg>
