<svg width="40" height="40" viewBox="0 0 40 40" fill="none" xmlns="http://www.w3.org/2000/svg">
<circle cx="20" cy="20" r="20" fill="#3360E9" fill-opacity="0.5"/>
<circle cx="19.9997" cy="20.0007" r="14.6667" fill="#2C037E"/>
<path d="M11.248 26V24.48L14.992 20.576C15.4613 20.0853 15.808 19.632 16.032 19.216C16.256 18.8 16.368 18.3733 16.368 17.936C16.368 17.392 16.1973 16.9813 15.856 16.704C15.5147 16.4267 15.0187 16.288 14.368 16.288C13.8453 16.288 13.344 16.384 12.864 16.576C12.384 16.7573 11.9147 17.0453 11.456 17.44L10.784 15.904C11.2427 15.4987 11.808 15.1733 12.48 14.928C13.1627 14.6827 13.8773 14.56 14.624 14.56C15.84 14.56 16.7733 14.832 17.424 15.376C18.0747 15.92 18.4 16.6987 18.4 17.712C18.4 18.416 18.2347 19.088 17.904 19.728C17.5733 20.3573 17.0613 21.0187 16.368 21.712L13.248 24.832V24.288H18.848V26H11.248ZM24.3938 26.16C23.0711 26.16 22.0364 25.8773 21.2898 25.312C20.5538 24.7467 20.1858 23.9627 20.1858 22.96C20.1858 22.1707 20.4258 21.5147 20.9058 20.992C21.3858 20.4693 22.0098 20.16 22.7778 20.064V20.4C22.0844 20.2507 21.5244 19.9253 21.0978 19.424C20.6818 18.9227 20.4738 18.3147 20.4738 17.6C20.4738 16.6507 20.8204 15.9093 21.5138 15.376C22.2178 14.832 23.1778 14.56 24.3938 14.56C25.6204 14.56 26.5804 14.832 27.2738 15.376C27.9778 15.9093 28.3298 16.6507 28.3298 17.6C28.3298 18.3147 28.1271 18.928 27.7218 19.44C27.3271 19.952 26.7884 20.2667 26.1058 20.384V20.064C26.8631 20.1707 27.4711 20.4853 27.9298 21.008C28.3884 21.52 28.6178 22.1707 28.6178 22.96C28.6178 23.9627 28.2444 24.7467 27.4978 25.312C26.7618 25.8773 25.7271 26.16 24.3938 26.16ZM24.3938 24.56C25.1724 24.56 25.7538 24.416 26.1378 24.128C26.5218 23.8293 26.7138 23.392 26.7138 22.816C26.7138 22.24 26.5218 21.808 26.1378 21.52C25.7538 21.232 25.1724 21.088 24.3938 21.088C23.6258 21.088 23.0444 21.232 22.6498 21.52C22.2658 21.808 22.0738 22.24 22.0738 22.816C22.0738 23.392 22.2658 23.8293 22.6498 24.128C23.0444 24.416 23.6258 24.56 24.3938 24.56ZM24.3938 19.488C25.0551 19.488 25.5564 19.3387 25.8978 19.04C26.2498 18.7413 26.4258 18.3307 26.4258 17.808C26.4258 17.296 26.2498 16.896 25.8978 16.608C25.5564 16.3093 25.0551 16.16 24.3938 16.16C23.7431 16.16 23.2418 16.3093 22.8898 16.608C22.5484 16.896 22.3778 17.296 22.3778 17.808C22.3778 18.3307 22.5484 18.7413 22.8898 19.04C23.2418 19.3387 23.7431 19.488 24.3938 19.488Z" fill="white"/>
</svg>
