<svg width="104" height="125" viewBox="0 0 104 125" fill="none" xmlns="http://www.w3.org/2000/svg">
<g clip-path="url(#clip0_595_43317)" filter="url(#filter0_d_595_43317)">
<path fill-rule="evenodd" clip-rule="evenodd" d="M51.9706 101C79.5372 101 102 78.5448 102 50.9657C102 23.4552 79.5372 1 51.9706 1C24.453 1 2 23.4552 2 50.9755C2 78.5448 24.453 101 51.9706 101Z" fill="#F0F4FF"/>
<path fill-rule="evenodd" clip-rule="evenodd" d="M51.8531 92.8677C74.9526 92.8677 93.7516 74.0767 93.7516 50.9651C93.7516 27.9123 74.9526 9.0625 51.8531 9.0625C28.8123 9.0625 9.95459 27.9123 9.95459 50.9651C9.95459 74.0767 28.8026 92.8677 51.8531 92.8677Z" fill="url(#paint0_radial_595_43317)"/>
</g>
<g filter="url(#filter1_d_595_43317)">
<rect x="37" y="36" width="30" height="30" rx="2" fill="white"/>
</g>
<path d="M22.9614 122V113.54H26.7174C27.6454 113.54 28.3534 113.764 28.8414 114.212C29.3294 114.66 29.5734 115.276 29.5734 116.06C29.5734 116.836 29.3294 117.452 28.8414 117.908C28.3534 118.364 27.6454 118.592 26.7174 118.592H24.5094V122H22.9614ZM24.5094 117.368H26.5374C27.0494 117.368 27.4334 117.256 27.6894 117.032C27.9454 116.8 28.0734 116.476 28.0734 116.06C28.0734 115.644 27.9454 115.324 27.6894 115.1C27.4334 114.868 27.0494 114.752 26.5374 114.752H24.5094V117.368ZM30.8336 122V113.168H32.3336V122H30.8336ZM36.3025 122.12C35.7745 122.12 35.3105 121.996 34.9105 121.748C34.5105 121.492 34.1985 121.128 33.9745 120.656C33.7505 120.184 33.6385 119.62 33.6385 118.964C33.6385 118.308 33.7505 117.748 33.9745 117.284C34.1985 116.812 34.5105 116.452 34.9105 116.204C35.3105 115.948 35.7745 115.82 36.3025 115.82C36.8145 115.82 37.2625 115.948 37.6465 116.204C38.0385 116.452 38.2985 116.788 38.4265 117.212H38.2945L38.4265 115.94H39.8665C39.8425 116.188 39.8185 116.44 39.7945 116.696C39.7785 116.952 39.7705 117.204 39.7705 117.452V122H38.2825L38.2705 120.752H38.4145C38.2865 121.168 38.0265 121.5 37.6345 121.748C37.2425 121.996 36.7985 122.12 36.3025 122.12ZM36.7225 120.968C37.1945 120.968 37.5745 120.804 37.8625 120.476C38.1505 120.14 38.2945 119.636 38.2945 118.964C38.2945 118.292 38.1505 117.792 37.8625 117.464C37.5745 117.136 37.1945 116.972 36.7225 116.972C36.2505 116.972 35.8705 117.136 35.5825 117.464C35.2945 117.792 35.1505 118.292 35.1505 118.964C35.1505 119.636 35.2905 120.14 35.5705 120.476C35.8585 120.804 36.2425 120.968 36.7225 120.968ZM41.2253 124.724L40.8773 123.536C41.2533 123.456 41.5693 123.364 41.8253 123.26C42.0813 123.156 42.2933 123.02 42.4613 122.852C42.6293 122.684 42.7693 122.468 42.8813 122.204L43.1813 121.496L43.1453 122.084L40.5053 115.94H42.1013L43.9973 120.668H43.6493L45.5573 115.94H47.0693L44.3093 122.336C44.1253 122.768 43.9253 123.124 43.7093 123.404C43.4933 123.692 43.2613 123.92 43.0133 124.088C42.7653 124.264 42.4933 124.4 42.1973 124.496C41.9013 124.592 41.5773 124.668 41.2253 124.724ZM53.2659 122V114.812H50.4699V113.54H57.6099V114.812H54.8139V122H53.2659ZM58.5836 122V115.94H60.0836V122H58.5836ZM58.4996 114.8V113.336H60.1676V114.8H58.4996ZM61.7125 122V117.452C61.7125 117.204 61.7045 116.952 61.6885 116.696C61.6725 116.44 61.6485 116.188 61.6165 115.94H63.0685L63.1885 117.14H63.0445C63.2125 116.724 63.4685 116.4 63.8125 116.168C64.1645 115.936 64.5805 115.82 65.0605 115.82C65.5405 115.82 65.9365 115.936 66.2485 116.168C66.5685 116.392 66.7925 116.744 66.9205 117.224H66.7285C66.8965 116.792 67.1725 116.452 67.5565 116.204C67.9405 115.948 68.3805 115.82 68.8765 115.82C69.5565 115.82 70.0645 116.02 70.4005 116.42C70.7365 116.82 70.9045 117.444 70.9045 118.292V122H69.4045V118.352C69.4045 117.872 69.3245 117.528 69.1645 117.32C69.0045 117.104 68.7485 116.996 68.3965 116.996C67.9805 116.996 67.6525 117.144 67.4125 117.44C67.1725 117.728 67.0525 118.12 67.0525 118.616V122H65.5525V118.352C65.5525 117.872 65.4725 117.528 65.3125 117.32C65.1525 117.104 64.8965 116.996 64.5445 116.996C64.1285 116.996 63.8005 117.144 63.5605 117.44C63.3285 117.728 63.2125 118.12 63.2125 118.616V122H61.7125ZM75.4335 122.12C74.4175 122.12 73.6215 121.84 73.0455 121.28C72.4695 120.72 72.1815 119.952 72.1815 118.976C72.1815 118.344 72.3055 117.792 72.5535 117.32C72.8015 116.848 73.1455 116.48 73.5855 116.216C74.0335 115.952 74.5535 115.82 75.1455 115.82C75.7295 115.82 76.2175 115.944 76.6095 116.192C77.0015 116.44 77.2975 116.788 77.4975 117.236C77.7055 117.684 77.8095 118.208 77.8095 118.808V119.204H73.3935V118.412H76.7415L76.5375 118.58C76.5375 118.02 76.4175 117.592 76.1775 117.296C75.9455 117 75.6055 116.852 75.1575 116.852C74.6615 116.852 74.2775 117.028 74.0055 117.38C73.7415 117.732 73.6095 118.224 73.6095 118.856V119.012C73.6095 119.668 73.7695 120.16 74.0895 120.488C74.4175 120.808 74.8775 120.968 75.4695 120.968C75.8135 120.968 76.1335 120.924 76.4295 120.836C76.7335 120.74 77.0215 120.588 77.2935 120.38L77.7375 121.388C77.4495 121.62 77.1055 121.8 76.7055 121.928C76.3055 122.056 75.8815 122.12 75.4335 122.12ZM79.0677 122V117.488C79.0677 117.232 79.0597 116.972 79.0437 116.708C79.0357 116.444 79.0157 116.188 78.9837 115.94H80.4357L80.6037 117.596H80.3637C80.4437 117.196 80.5757 116.864 80.7597 116.6C80.9517 116.336 81.1837 116.14 81.4557 116.012C81.7277 115.884 82.0237 115.82 82.3437 115.82C82.4877 115.82 82.6037 115.828 82.6917 115.844C82.7797 115.852 82.8677 115.872 82.9557 115.904L82.9437 117.224C82.7917 117.16 82.6597 117.12 82.5477 117.104C82.4437 117.088 82.3117 117.08 82.1517 117.08C81.8077 117.08 81.5157 117.152 81.2757 117.296C81.0437 117.44 80.8677 117.64 80.7477 117.896C80.6357 118.152 80.5797 118.444 80.5797 118.772V122H79.0677Z" fill="white"/>
<defs>
<filter id="filter0_d_595_43317" x="0" y="0" width="104" height="104" filterUnits="userSpaceOnUse" color-interpolation-filters="sRGB">
<feFlood flood-opacity="0" result="BackgroundImageFix"/>
<feColorMatrix in="SourceAlpha" type="matrix" values="0 0 0 0 0 0 0 0 0 0 0 0 0 0 0 0 0 0 127 0" result="hardAlpha"/>
<feOffset dy="1"/>
<feGaussianBlur stdDeviation="1"/>
<feComposite in2="hardAlpha" operator="out"/>
<feColorMatrix type="matrix" values="0 0 0 0 0 0 0 0 0 0 0 0 0 0 0 0 0 0 0.25 0"/>
<feBlend mode="normal" in2="BackgroundImageFix" result="effect1_dropShadow_595_43317"/>
<feBlend mode="normal" in="SourceGraphic" in2="effect1_dropShadow_595_43317" result="shape"/>
</filter>
<filter id="filter1_d_595_43317" x="35" y="35" width="34" height="34" filterUnits="userSpaceOnUse" color-interpolation-filters="sRGB">
<feFlood flood-opacity="0" result="BackgroundImageFix"/>
<feColorMatrix in="SourceAlpha" type="matrix" values="0 0 0 0 0 0 0 0 0 0 0 0 0 0 0 0 0 0 127 0" result="hardAlpha"/>
<feOffset dy="1"/>
<feGaussianBlur stdDeviation="1"/>
<feComposite in2="hardAlpha" operator="out"/>
<feColorMatrix type="matrix" values="0 0 0 0 0 0 0 0 0 0 0 0 0 0 0 0 0 0 0.25 0"/>
<feBlend mode="normal" in2="BackgroundImageFix" result="effect1_dropShadow_595_43317"/>
<feBlend mode="normal" in="SourceGraphic" in2="effect1_dropShadow_595_43317" result="shape"/>
</filter>
<radialGradient id="paint0_radial_595_43317" cx="0" cy="0" r="1" gradientUnits="userSpaceOnUse" gradientTransform="translate(50.7088 49.8699) scale(47.8426 47.8473)">
<stop stop-color="#A8BDFF"/>
<stop offset="0.5215" stop-color="#3360E9"/>
<stop offset="1" stop-color="#03154E"/>
</radialGradient>
<clipPath id="clip0_595_43317">
<rect width="100" height="100" fill="white" transform="translate(2 1)"/>
</clipPath>
</defs>
</svg>
