<svg width="109" height="37" viewBox="0 0 109 37" fill="none" xmlns="http://www.w3.org/2000/svg">
<path d="M0.78752 15.3526C1.31334 14.39 2.04513 13.6386 2.98288 13.1008C3.92064 12.5631 4.98682 12.293 6.17658 12.293C7.63531 12.293 8.88322 12.6834 9.92033 13.4643C10.9574 14.2451 11.6529 15.3084 12.0018 16.6565H8.7136C8.46887 16.1359 8.12236 15.7405 7.67165 15.468C7.22337 15.1954 6.71209 15.0604 6.14023 15.0604C5.21944 15.0604 4.47311 15.3845 3.90125 16.0352C3.32939 16.6859 3.04346 17.5552 3.04346 18.6405C3.04346 19.7259 3.32939 20.5976 3.90125 21.2458C4.47311 21.8966 5.21944 22.2207 6.14023 22.2207C6.71209 22.2207 7.22095 22.0856 7.67165 21.8131C8.11993 21.5405 8.46887 21.1452 8.7136 20.6246H12.0018C11.6529 21.9727 10.9574 23.0335 9.92033 23.807C8.88322 24.5805 7.63288 24.9684 6.17658 24.9684C4.98682 24.9684 3.92306 24.7008 2.98288 24.1606C2.04271 23.6228 1.31092 22.8763 0.78752 21.9187C0.261699 20.9659 0 19.8707 0 18.643C0 17.4128 0.261699 16.3176 0.78752 15.3526Z" fill="white"/>
<path d="M21.8349 16.0073C22.5109 16.7587 22.8502 17.7901 22.8502 19.1013V24.8816H19.8746V19.5089C19.8746 18.8459 19.705 18.3327 19.3681 17.9669C19.0289 17.601 18.5758 17.4168 18.0039 17.4168C17.432 17.4168 16.9765 17.601 16.6397 17.9669C16.3004 18.3327 16.1332 18.8484 16.1332 19.5089V24.8816H13.1407V11.7617H16.1332V16.3192C16.4361 15.8821 16.8505 15.5334 17.3763 15.2731C17.9021 15.0128 18.491 14.8827 19.1428 14.8827C20.2598 14.8827 21.1588 15.2584 21.8349 16.0073Z" fill="white"/>
<path d="M24.2071 17.2399C24.5852 16.4713 25.1013 15.8795 25.7555 15.467C26.4098 15.0544 27.1367 14.8457 27.9436 14.8457C28.6318 14.8457 29.2352 14.9881 29.7537 15.2705C30.2723 15.5554 30.6721 15.9261 30.9532 16.3878V14.9857H33.9457V24.879H30.9532V23.4794C30.6624 23.941 30.2553 24.3118 29.7367 24.5966C29.2182 24.8815 28.6148 25.0214 27.9267 25.0214C27.1343 25.0214 26.4098 24.8127 25.758 24.3928C25.1037 23.9729 24.5876 23.3762 24.2096 22.6027C23.8316 21.8292 23.6401 20.933 23.6401 19.9164C23.6377 18.8998 23.8267 18.0084 24.2071 17.2399ZM30.3304 18.1435C29.9161 17.7064 29.412 17.4879 28.816 17.4879C28.2199 17.4879 27.7158 17.7039 27.3015 18.1337C26.8871 18.5658 26.6812 19.1601 26.6812 19.9164C26.6812 20.6727 26.8871 21.2718 27.3015 21.7163C27.7158 22.1583 28.2199 22.3817 28.816 22.3817C29.412 22.3817 29.9161 22.1632 30.3304 21.7261C30.7448 21.289 30.9507 20.6923 30.9507 19.936C30.9507 19.1797 30.7448 18.583 30.3304 18.1435Z" fill="white"/>
<path d="M35.6298 13.4908C35.2978 13.1765 35.1306 12.7909 35.1306 12.3293C35.1306 11.8578 35.2978 11.4625 35.6298 11.1506C35.9618 10.8363 36.3907 10.6816 36.9165 10.6816C37.4302 10.6816 37.8518 10.8388 38.1838 11.1506C38.5158 11.465 38.683 11.8578 38.683 12.3293C38.683 12.7909 38.5158 13.1765 38.1838 13.4908C37.8518 13.8051 37.4278 13.9598 36.9165 13.9598C36.3931 13.9598 35.9642 13.8051 35.6298 13.4908ZM38.4043 14.9886V24.882H35.4117V14.9886H38.4043Z" fill="white"/>
<path d="M48.5597 16.0074C49.243 16.7588 49.5822 17.7902 49.5822 19.1014V24.8818H46.6091V19.509C46.6091 18.846 46.4394 18.3328 46.1026 17.967C45.7634 17.6011 45.3103 17.4169 44.7384 17.4169C44.1665 17.4169 43.711 17.6011 43.3742 17.967C43.0349 18.3328 42.8677 18.8485 42.8677 19.509V24.8818H39.8752V14.9884H42.8677V16.2997C43.1706 15.8626 43.5801 15.5163 44.0914 15.2634C44.6051 15.0105 45.1818 14.8828 45.824 14.8828C46.9653 14.8828 47.8788 15.2585 48.5597 16.0074Z" fill="white"/>
<path d="M59.837 18.4197C59.5098 19.0164 59.0082 19.4977 58.3322 19.8635C57.6561 20.2294 56.8153 20.4136 55.8121 20.4136H53.9584V24.8827H50.9659V12.4355H55.8121C56.7911 12.4355 57.6198 12.6074 58.2958 12.9488C58.9719 13.2925 59.4808 13.764 59.8176 14.3681C60.1568 14.9697 60.324 15.6621 60.324 16.443C60.3264 17.1649 60.1641 17.823 59.837 18.4197ZM56.8638 17.5971C57.1449 17.3245 57.283 16.9415 57.283 16.4454C57.283 15.9494 57.1424 15.5664 56.8638 15.2938C56.5827 15.0212 56.1586 14.8862 55.5868 14.8862H53.9584V18.0072H55.5868C56.1562 18.0047 56.5827 17.8672 56.8638 17.5971Z" fill="white"/>
<path d="M61.1576 17.2399C61.5356 16.4713 62.0517 15.8795 62.706 15.467C63.3602 15.0544 64.0872 14.8457 64.8941 14.8457C65.5822 14.8457 66.1856 14.9881 66.7041 15.2705C67.2227 15.5554 67.6225 15.9261 67.9036 16.3878V14.9857H70.8962V24.879H67.9036V23.4794C67.6128 23.941 67.2057 24.3118 66.6872 24.5966C66.1686 24.8815 65.5653 25.0214 64.8771 25.0214C64.0847 25.0214 63.3602 24.8127 62.7084 24.3928C62.0541 23.9729 61.538 23.3762 61.16 22.6027C60.782 21.8292 60.5906 20.933 60.5906 19.9164C60.5881 18.8998 60.7796 18.0084 61.1576 17.2399ZM67.2809 18.1435C66.8665 17.7064 66.3625 17.4879 65.7664 17.4879C65.1703 17.4879 64.6663 17.7039 64.2519 18.1337C63.8376 18.5658 63.6316 19.1601 63.6316 19.9164C63.6316 20.6727 63.8376 21.2718 64.2519 21.7163C64.6663 22.1583 65.1703 22.3817 65.7664 22.3817C66.3625 22.3817 66.8665 22.1632 67.2809 21.7261C67.6952 21.289 67.9012 20.6923 67.9012 19.936C67.9036 19.1797 67.6952 18.583 67.2809 18.1435Z" fill="white"/>
<path d="M74.0608 24.5799C73.3969 24.2853 72.871 23.8801 72.4858 23.3645C72.1005 22.8512 71.8848 22.2742 71.8388 21.6358H74.795C74.8289 21.9795 74.9864 22.257 75.2675 22.4682C75.5486 22.6818 75.8903 22.7874 76.2998 22.7874C76.6729 22.7874 76.9613 22.7137 77.1648 22.5664C77.3684 22.4191 77.4701 22.2275 77.4701 21.9894C77.4701 21.7045 77.3248 21.4958 77.034 21.3607C76.7432 21.2257 76.2707 21.0734 75.6164 20.9089C74.9162 20.7444 74.3322 20.5701 73.8669 20.3859C73.3993 20.2017 72.997 19.9144 72.6602 19.5166C72.321 19.1213 72.1538 18.586 72.1538 17.9107C72.1538 17.3435 72.3089 16.8254 72.6166 16.3588C72.9243 15.8923 73.3799 15.5215 73.9808 15.2514C74.5818 14.9788 75.2966 14.8438 76.1253 14.8438C77.349 14.8438 78.3158 15.1507 79.021 15.7646C79.7261 16.3785 80.1308 17.1937 80.2374 18.2103H77.4726C77.4265 17.8665 77.2763 17.5964 77.0267 17.395C76.7747 17.1937 76.4452 17.093 76.0381 17.093C75.6891 17.093 75.4202 17.1618 75.2336 17.2968C75.047 17.4319 74.9525 17.6185 74.9525 17.8542C74.9525 18.1391 75.1003 18.3503 75.3984 18.4927C75.6964 18.6351 76.1592 18.7775 76.7892 18.9175C77.5113 19.1066 78.1026 19.2932 78.5557 19.4749C79.0113 19.6591 79.4111 19.9537 79.7552 20.3613C80.0993 20.769 80.2761 21.3165 80.2883 22.0016C80.2883 22.5811 80.1283 23.0993 79.8061 23.5535C79.4862 24.0078 79.0234 24.3663 78.4249 24.6266C77.8239 24.8869 77.1261 25.017 76.3337 25.017C75.4832 25.0244 74.7272 24.8771 74.0608 24.5799Z" fill="white"/>
<path d="M83.1233 24.5799C82.4594 24.2853 81.9336 23.8801 81.5483 23.3645C81.163 22.8512 80.9473 22.2742 80.9013 21.6358H83.8575C83.8915 21.9795 84.049 22.257 84.33 22.4682C84.6111 22.6818 84.9528 22.7874 85.3623 22.7874C85.7355 22.7874 86.0238 22.7137 86.2274 22.5664C86.4309 22.4191 86.5327 22.2275 86.5327 21.9894C86.5327 21.7045 86.3873 21.4958 86.0965 21.3607C85.8057 21.2257 85.3332 21.0734 84.679 20.9089C83.9787 20.7444 83.3947 20.5701 82.9295 20.3859C82.4618 20.2017 82.0596 19.9144 81.7228 19.5166C81.3835 19.1213 81.2163 18.586 81.2163 17.9107C81.2163 17.3435 81.3714 16.8254 81.6791 16.3588C81.9869 15.8923 82.4424 15.5215 83.0434 15.2514C83.6443 14.9788 84.3591 14.8438 85.1878 14.8438C86.4115 14.8438 87.3784 15.1507 88.0835 15.7646C88.7886 16.3785 89.1933 17.1937 89.2999 18.2103H86.5351C86.4891 17.8665 86.3388 17.5964 86.0892 17.395C85.8372 17.1937 85.5077 17.093 85.1006 17.093C84.7517 17.093 84.4827 17.1618 84.2961 17.2968C84.1095 17.4319 84.015 17.6185 84.015 17.8542C84.015 18.1391 84.1629 18.3503 84.4609 18.4927C84.7589 18.6351 85.2218 18.7775 85.8518 18.9175C86.5739 19.1066 87.1651 19.2932 87.6182 19.4749C88.0738 19.6591 88.4736 19.9537 88.8177 20.3613C89.1618 20.769 89.3387 21.3165 89.3508 22.0016C89.3508 22.5811 89.1909 23.0993 88.8686 23.5535C88.5487 24.0078 88.0859 24.3663 87.4874 24.6266C86.8865 24.8869 86.1886 25.017 85.3962 25.017C84.5481 25.0244 83.7897 24.8771 83.1233 24.5799Z" fill="white"/>
<path d="M96.4918 12.4355V24.8827H93.4992V12.4355H96.4918Z" fill="white"/>
<path d="M105.957 13.2164C106.926 13.737 107.675 14.4663 108.205 15.4067C108.736 16.3472 109.002 17.4301 109.002 18.6603C109.002 19.8783 108.738 20.9587 108.205 21.9041C107.675 22.8495 106.921 23.5837 105.949 24.1018C104.975 24.6224 103.846 24.8827 102.564 24.8827H97.9626V12.4355H102.564C103.858 12.4355 104.99 12.6958 105.957 13.2164ZM105.012 21.3197C105.642 20.6935 105.957 19.8071 105.957 18.6603C105.957 17.5136 105.642 16.6222 105.012 15.9838C104.382 15.3454 103.502 15.0261 102.37 15.0261H100.953V22.2601H102.37C103.502 22.2601 104.382 21.9458 105.012 21.3197Z" fill="white"/>
<path d="M1.35211 28.9609L2.11298 33.5577L4.48281 28.9609H5.69922L2.60245 34.7413H1.21157L0.126007 28.9609H1.35211Z" fill="white"/>
<path d="M5.27275 34.6402C5.16371 34.5346 5.1104 34.402 5.1104 34.2424C5.1104 34.0214 5.19278 33.8323 5.35998 33.6752C5.52718 33.518 5.72103 33.4395 5.94396 33.4395C6.12327 33.4395 6.26623 33.491 6.37285 33.5917C6.47947 33.6948 6.53278 33.8274 6.53278 33.9944C6.53278 34.2154 6.45039 34.4045 6.28804 34.5616C6.12569 34.7188 5.93184 34.7974 5.70891 34.7974C5.52718 34.7974 5.38179 34.7458 5.27275 34.6402Z" fill="white"/>
<path d="M10.8629 33.6383H8.58275L8.01816 34.7408H6.81628L9.88155 28.9531H11.2143L12.2514 34.7408H11.0422L10.8629 33.6383ZM10.7151 32.7371L10.3056 30.2865L9.04799 32.7371H10.7151Z" fill="white"/>
<path d="M12.9226 34.6402C12.8136 34.5346 12.7603 34.402 12.7603 34.2424C12.7603 34.0214 12.8426 33.8323 13.0098 33.6752C13.177 33.518 13.3709 33.4395 13.5938 33.4395C13.7731 33.4395 13.9161 33.491 14.0227 33.5917C14.1293 33.6948 14.1826 33.8274 14.1826 33.9944C14.1826 34.2154 14.1002 34.4045 13.9379 34.5616C13.7755 34.7188 13.5817 34.7974 13.3588 34.7974C13.1746 34.7974 13.0316 34.7458 12.9226 34.6402Z" fill="white"/>
<path d="M16.9741 28.9609L15.9685 34.7413H14.8175L15.8304 28.9609H16.9741Z" fill="white"/>
<path d="M23.8461 28.9609L23.6838 29.8719H22.1717L21.3212 34.7413H20.1702L21.0207 29.8719H19.5014L19.6638 28.9609H23.8461Z" fill="white"/>
<path d="M27.6722 30.5619C28.0091 30.8835 28.1787 31.3182 28.1787 31.8658C28.1787 32.0426 28.1641 32.1997 28.1375 32.3372C28.1036 32.5017 28.0696 32.6466 28.0309 32.7669H24.7209C24.716 32.8062 24.7136 32.8602 24.7136 32.9315C24.7136 33.2188 24.796 33.4447 24.9632 33.6067C25.1304 33.7688 25.3485 33.8523 25.6198 33.8523C25.8476 33.8523 26.0463 33.8007 26.2111 33.7C26.3783 33.5969 26.5116 33.4643 26.6157 33.2973H27.8491C27.648 33.7393 27.3354 34.1027 26.9138 34.3851C26.4922 34.67 26.0148 34.8124 25.4793 34.8124C24.9026 34.8124 24.4398 34.6479 24.0908 34.3164C23.7419 33.9849 23.5674 33.5355 23.5674 32.9658C23.5674 32.8013 23.5844 32.627 23.6159 32.4453C23.6983 31.9713 23.8655 31.5539 24.1175 31.1954C24.3719 30.8369 24.6845 30.5619 25.0625 30.3679C25.4405 30.1739 25.85 30.0781 26.2959 30.0781C26.875 30.0781 27.333 30.2402 27.6722 30.5619ZM27.018 31.8756C27.018 31.6104 26.9332 31.4041 26.7636 31.2543C26.5939 31.1045 26.3734 31.0309 26.102 31.0309C25.8137 31.0309 25.5544 31.1242 25.3266 31.3083C25.0989 31.4925 24.9365 31.7454 24.8444 32.0671H27.001C27.0131 31.9787 27.018 31.9149 27.018 31.8756Z" fill="white"/>
<path d="M28.9953 31.2003C29.2449 30.8443 29.5574 30.5692 29.9306 30.3728C30.3038 30.1763 30.7084 30.0781 31.1446 30.0781C31.7068 30.0781 32.1453 30.2181 32.4652 30.5005C32.7826 30.7829 32.9619 31.1831 33.0007 31.7012H31.7673C31.7334 31.5023 31.651 31.3476 31.5129 31.2322C31.3772 31.1193 31.1931 31.0628 30.9653 31.0628C30.6382 31.0628 30.3595 31.1831 30.1269 31.4238C29.8943 31.6644 29.7416 32.0057 29.6641 32.4477C29.6374 32.6024 29.6229 32.735 29.6229 32.8455C29.6229 33.1598 29.698 33.4029 29.8506 33.5699C30.0033 33.7393 30.2165 33.8228 30.4879 33.8228C30.9459 33.8228 31.2827 33.6141 31.5008 33.1942H32.7342C32.5209 33.6902 32.2035 34.0856 31.7819 34.3778C31.3603 34.67 30.8732 34.8173 30.3232 34.8173C29.7513 34.8173 29.2957 34.6528 28.9541 34.3237C28.6124 33.9947 28.4428 33.5503 28.4428 32.9855C28.4428 32.8136 28.4598 32.6343 28.4913 32.4477C28.5785 31.9713 28.7433 31.5564 28.9953 31.2003Z" fill="white"/>
<path d="M37.5707 30.4751C37.8349 30.7354 37.9681 31.0988 37.9681 31.5678C37.9681 31.7446 37.9536 31.9042 37.9269 32.0491L37.452 34.7403H36.3156L36.7566 32.2062C36.7735 32.108 36.7808 32.0098 36.7808 31.9165C36.7808 31.6415 36.7081 31.4303 36.5651 31.2879C36.4198 31.1454 36.2162 31.0718 35.9472 31.0718C35.6419 31.0718 35.3826 31.1651 35.1718 31.3492C34.9586 31.5334 34.8181 31.7986 34.7478 32.1399L34.2898 34.7403H33.1388L34.2099 28.6113H35.3608L34.9925 30.7157C35.1767 30.5217 35.402 30.3695 35.6662 30.2565C35.9303 30.1436 36.2089 30.0871 36.5046 30.0871C36.9504 30.0871 37.3066 30.2148 37.5707 30.4751Z" fill="white"/>
<path d="M42.7999 30.471C43.0688 30.7263 43.2045 31.0947 43.2045 31.5686C43.2045 31.7454 43.19 31.905 43.1634 32.0499L42.6884 34.7411H41.552L41.993 32.207C42.0099 32.1088 42.0172 32.0106 42.0172 31.9173C42.0172 31.6422 41.9445 31.4311 41.8015 31.2886C41.6562 31.1462 41.4526 31.0726 41.1836 31.0726C40.8783 31.0726 40.6191 31.1659 40.4034 31.35C40.1877 31.5342 40.0448 31.8019 39.9745 32.1481L39.5262 34.7411H38.3752L39.1749 30.1542H40.3259L40.2289 30.7165C40.4131 30.5225 40.6336 30.3703 40.8904 30.2573C41.1473 30.1444 41.4138 30.0879 41.6901 30.0879C42.1626 30.0879 42.5309 30.2156 42.7999 30.471Z" fill="white"/>
<path d="M44.6148 34.5737C44.3168 34.4141 44.089 34.1882 43.9242 33.896C43.7619 33.6038 43.6795 33.2674 43.6795 32.8868C43.6795 32.3686 43.8006 31.8947 44.0429 31.4675C44.2853 31.0402 44.6172 30.7013 45.0389 30.4533C45.4605 30.2053 45.9306 30.0801 46.4491 30.0801C46.8368 30.0801 47.1809 30.1611 47.4838 30.3256C47.7867 30.4902 48.0193 30.7161 48.1865 31.0083C48.3537 31.3005 48.4361 31.6369 48.4361 32.0175C48.4361 32.543 48.3125 33.0169 48.0678 33.4417C47.823 33.8665 47.4862 34.2029 47.0598 34.4485C46.6309 34.694 46.1583 34.8168 45.6422 34.8168C45.2521 34.8143 44.9104 34.7358 44.6148 34.5737ZM46.5388 33.5817C46.7617 33.4221 46.9362 33.2084 47.0622 32.9432C47.1882 32.678 47.2512 32.4006 47.2512 32.1059C47.2512 31.7744 47.1591 31.519 46.9774 31.3398C46.7956 31.1605 46.5654 31.0697 46.2868 31.0697C46.0081 31.0697 45.7634 31.1507 45.5477 31.3103C45.3321 31.4699 45.1649 31.6835 45.0461 31.9512C44.9274 32.2188 44.8668 32.5012 44.8668 32.8008C44.8668 33.1274 44.9516 33.3779 45.1237 33.5547C45.2957 33.7315 45.5211 33.8199 45.7973 33.8199C46.0687 33.8199 46.3158 33.7413 46.5388 33.5817Z" fill="white"/>
<path d="M50.8859 28.6113L49.8149 34.7403H48.6639L49.7349 28.6113H50.8859Z" fill="white"/>
<path d="M51.7728 34.5737C51.4747 34.4141 51.2469 34.1882 51.0822 33.896C50.9198 33.6038 50.8374 33.2674 50.8374 32.8868C50.8374 32.3686 50.9586 31.8947 51.2009 31.4675C51.4432 31.0402 51.7752 30.7013 52.1968 30.4533C52.6184 30.2053 53.0885 30.0801 53.6071 30.0801C53.9948 30.0801 54.3389 30.1611 54.6418 30.3256C54.9447 30.4902 55.1773 30.7161 55.3445 31.0083C55.5117 31.3005 55.594 31.6369 55.594 32.0175C55.594 32.543 55.4705 33.0169 55.2257 33.4417C54.981 33.8665 54.6442 34.2029 54.2177 34.4485C53.7888 34.694 53.3163 34.8168 52.8002 34.8168C52.4125 34.8143 52.0684 34.7358 51.7728 34.5737ZM53.6967 33.5817C53.9197 33.4221 54.0941 33.2084 54.2201 32.9432C54.3461 32.678 54.4091 32.4006 54.4091 32.1059C54.4091 31.7744 54.3171 31.519 54.1353 31.3398C53.9536 31.1605 53.7234 31.0697 53.4447 31.0697C53.1661 31.0697 52.9213 31.1507 52.7057 31.3103C52.49 31.4699 52.3228 31.6835 52.2041 31.9512C52.0853 32.2188 52.0248 32.5012 52.0248 32.8008C52.0248 33.1274 52.1096 33.3779 52.2816 33.5547C52.4537 33.7315 52.679 33.8199 52.9553 33.8199C53.2266 33.8199 53.4738 33.7413 53.6967 33.5817Z" fill="white"/>
<path d="M59.2748 30.2812C59.5123 30.4162 59.6795 30.5906 59.7764 30.8067L59.8903 30.1535H61.0413L60.2416 34.7748C60.1641 35.1996 60.0139 35.5802 59.7837 35.9142C59.5535 36.2481 59.2554 36.5133 58.8847 36.7098C58.5139 36.9062 58.0899 37.0044 57.6101 37.0044C56.9728 37.0044 56.4761 36.8522 56.1174 36.5502C55.7588 36.2481 55.5989 35.8331 55.6304 35.3077H56.7668C56.7887 35.5164 56.888 35.6834 57.0649 35.8086C57.2418 35.9338 57.472 35.9952 57.7555 35.9952C58.0923 35.9952 58.3807 35.8945 58.6181 35.6932C58.8556 35.4918 59.0107 35.1873 59.0882 34.7773L59.2118 34.0652C59.0276 34.2812 58.7926 34.4605 58.5139 34.6029C58.2353 34.7453 57.9275 34.819 57.5956 34.819C57.2636 34.819 56.968 34.7429 56.7087 34.5906C56.4494 34.4384 56.2483 34.2223 56.1029 33.9448C55.9575 33.6649 55.8872 33.3408 55.8872 32.9724C55.8872 32.8006 55.9042 32.6213 55.9357 32.4347C56.0181 31.9706 56.1804 31.5605 56.4228 31.1995C56.6651 30.841 56.9607 30.566 57.3096 30.372C57.6586 30.178 58.0269 30.0823 58.4122 30.0823C58.749 30.0774 59.0373 30.1461 59.2748 30.2812ZM59.5244 32.1302C59.5244 31.8036 59.4299 31.5507 59.2433 31.369C59.0543 31.1873 58.8192 31.0964 58.5357 31.0964C58.3225 31.0964 58.1165 31.148 57.9178 31.2536C57.7191 31.3592 57.5447 31.5114 57.3993 31.7128C57.2515 31.9141 57.1545 32.1523 57.1061 32.4298C57.0891 32.5354 57.0819 32.6336 57.0819 32.7269C57.0819 33.0584 57.1739 33.3187 57.3605 33.5102C57.5447 33.7017 57.7797 33.795 58.0632 33.795C58.2765 33.795 58.4824 33.741 58.6835 33.633C58.8847 33.5249 59.0591 33.3702 59.2021 33.164C59.3451 32.9577 59.4444 32.7195 59.4929 32.4445C59.5123 32.3021 59.5244 32.1989 59.5244 32.1302Z" fill="white"/>
<path d="M62.7593 30.1504L63.365 33.3549L65.1218 30.1504H66.3382L62.3594 36.908H61.1406L62.5145 34.6219L61.4774 30.1504H62.7593Z" fill="white"/>
<path d="M3.8019 2.91453C3.66621 3.17481 3.44812 3.38599 3.14766 3.54805C2.84719 3.71012 2.46433 3.79361 1.99667 3.79361H0.966831V6.12882H0.0363464V0.373047H1.99667C2.43283 0.373047 2.80115 0.449168 3.10404 0.601412C3.40693 0.753655 3.63228 0.95992 3.78252 1.21775C3.93275 1.47804 4.00787 1.76779 4.00787 2.08701C4.00787 2.37922 3.9376 2.65424 3.8019 2.91453ZM2.78903 2.77702C2.9635 2.61495 3.05073 2.38413 3.05073 2.08455C3.05073 1.45594 2.69937 1.14163 1.99667 1.14163H0.966831V3.02011H1.99667C2.35044 3.02257 2.61457 2.94154 2.78903 2.77702Z" fill="white"/>
<path d="M5.69922 5.90724C5.35514 5.7108 5.08617 5.43578 4.88989 5.07972C4.69362 4.72367 4.59669 4.31114 4.59669 3.84213C4.59669 3.37804 4.69847 2.96796 4.89959 2.60946C5.10071 2.25095 5.37695 1.97593 5.72588 1.78194C6.07481 1.58795 6.46493 1.49219 6.89383 1.49219C7.32515 1.49219 7.71285 1.58795 8.06178 1.78194C8.41071 1.97593 8.68453 2.25095 8.88807 2.60946C9.08919 2.96796 9.19096 3.38049 9.19096 3.84213C9.19096 4.30378 9.08677 4.71631 8.8808 5.07481C8.67484 5.43332 8.39133 5.7108 8.03513 5.90724C7.67893 6.10368 7.28396 6.2019 6.85506 6.2019C6.42616 6.2019 6.04089 6.10368 5.69922 5.90724ZM7.52385 5.20741C7.73466 5.092 7.90428 4.91766 8.03513 4.68438C8.16598 4.45111 8.2314 4.17118 8.2314 3.83968C8.2314 3.50818 8.1684 3.22825 8.0424 2.99989C7.91639 2.77152 7.75162 2.59718 7.54323 2.48177C7.33726 2.36636 7.11191 2.30743 6.87202 2.30743C6.63213 2.30743 6.4092 2.36636 6.20566 2.48177C6.00212 2.59718 5.83976 2.76907 5.71861 2.99989C5.59987 3.22825 5.5393 3.50818 5.5393 3.83968C5.5393 4.33079 5.66288 4.71139 5.91004 4.97905C6.1572 5.2467 6.46978 5.38176 6.84537 5.38176C7.0901 5.38176 7.31546 5.32282 7.52385 5.20741Z" fill="white"/>
<path d="M16.1575 1.56445L14.7593 6.12684H13.778L12.8717 2.75539L11.9655 6.12684H10.9841L9.57866 1.56445H10.5261L11.4663 5.23302L12.4234 1.56445H13.3951L14.311 5.21583L15.2415 1.56445H16.1575Z" fill="white"/>
<path d="M20.9456 4.19869H17.5048C17.5314 4.56211 17.6647 4.85677 17.9046 5.07532C18.1445 5.29631 18.4377 5.40681 18.7866 5.40681C19.2882 5.40681 19.642 5.19318 19.8479 4.76837H20.8535C20.7178 5.18827 20.4707 5.53205 20.1145 5.7997C19.7583 6.06735 19.3148 6.20241 18.7866 6.20241C18.3553 6.20241 17.97 6.10418 17.6308 5.90774C17.2891 5.7113 17.0225 5.43628 16.8311 5.08023C16.6373 4.72417 16.5403 4.31164 16.5403 3.84264C16.5403 3.37363 16.6348 2.9611 16.8214 2.60505C17.0104 2.24899 17.2746 1.97397 17.6138 1.77999C17.953 1.586 18.3456 1.49023 18.7866 1.49023C19.2106 1.49023 19.5911 1.58354 19.923 1.77262C20.255 1.95924 20.5143 2.22444 20.6984 2.5633C20.8826 2.90217 20.9771 3.2926 20.9771 3.73459C20.9795 3.90648 20.9674 4.06118 20.9456 4.19869ZM20.0054 3.43747C20.0006 3.08879 19.877 2.81131 19.6371 2.60014C19.3972 2.39142 19.1016 2.28583 18.7454 2.28583C18.4231 2.28583 18.1493 2.38896 17.9191 2.59523C17.6889 2.80149 17.5532 3.08142 17.5096 3.43502H20.0054V3.43747Z" fill="white"/>
<path d="M23.3687 1.68422C23.5941 1.55408 23.8631 1.49023 24.1732 1.49023V2.46754H23.9358C23.5699 2.46754 23.2936 2.56085 23.107 2.74992C22.918 2.93654 22.826 3.26313 22.826 3.72723V6.12874H21.8955V1.5639H22.826V2.22689C22.9617 1.99607 23.1434 1.81436 23.3687 1.68422Z" fill="white"/>
<path d="M29.1261 4.19869H25.6853C25.7119 4.56211 25.8452 4.85677 26.0851 5.07532C26.325 5.29631 26.6182 5.40681 26.9671 5.40681C27.4687 5.40681 27.8225 5.19318 28.0284 4.76837H29.034C28.8983 5.18827 28.6512 5.53205 28.295 5.7997C27.9388 6.06735 27.4953 6.20241 26.9671 6.20241C26.5358 6.20241 26.1505 6.10418 25.8113 5.90774C25.4696 5.7113 25.2031 5.43628 25.0116 5.08023C24.8178 4.72417 24.7209 4.31164 24.7209 3.84264C24.7209 3.37363 24.8154 2.9611 25.0019 2.60505C25.1909 2.24899 25.4551 1.97397 25.7943 1.77999C26.1335 1.586 26.5261 1.49023 26.9671 1.49023C27.3912 1.49023 27.7716 1.58354 28.1036 1.77262C28.4355 1.95924 28.6948 2.22444 28.879 2.5633C29.0631 2.90217 29.1576 3.2926 29.1576 3.73459C29.1576 3.90648 29.1479 4.06118 29.1261 4.19869ZM28.1859 3.43747C28.1811 3.08879 28.0575 2.81131 27.8176 2.60014C27.5777 2.39142 27.2821 2.28583 26.9259 2.28583C26.6036 2.28583 26.3298 2.38896 26.0996 2.59523C25.8694 2.80149 25.7337 3.08142 25.6901 3.43502H28.1859V3.43747Z" fill="white"/>
<path d="M30.0445 2.60778C30.2335 2.25418 30.4879 1.97916 30.8126 1.78272C31.1373 1.58628 31.4984 1.48805 31.8958 1.48805C32.189 1.48805 32.4797 1.5519 32.7657 1.68204C33.0516 1.81218 33.2794 1.98407 33.449 2.20016V0H34.3892V6.12901H33.449V5.44147C33.2963 5.66246 33.0855 5.84417 32.8166 5.98905C32.5476 6.13393 32.2374 6.20514 31.8885 6.20514C31.4959 6.20514 31.1373 6.10446 30.815 5.90311C30.4903 5.70175 30.2359 5.41937 30.0469 5.0584C29.8579 4.69744 29.7658 4.28736 29.7658 3.82818C29.7658 3.36899 29.8579 2.96138 30.0445 2.60778ZM33.2551 3.02276C33.1267 2.79194 32.9595 2.61514 32.7536 2.49237C32.5476 2.37205 32.3222 2.31066 32.0823 2.31066C31.8425 2.31066 31.6195 2.36959 31.4111 2.48746C31.2027 2.60532 31.0355 2.77967 30.9095 3.01049C30.7811 3.23885 30.7181 3.51142 30.7181 3.82572C30.7181 4.14003 30.7811 4.41751 30.9095 4.65324C31.038 4.89143 31.2076 5.07068 31.416 5.19591C31.6268 5.32114 31.8473 5.38253 32.0823 5.38253C32.3222 5.38253 32.5452 5.32114 32.7536 5.20082C32.9595 5.0805 33.1291 4.90125 33.2551 4.66797C33.3836 4.43224 33.4466 4.15968 33.4466 3.84291C33.4466 3.52615 33.3836 3.25358 33.2551 3.02276Z" fill="white"/>
<path d="M39.3203 1.70169C39.5941 1.56172 39.9018 1.49051 40.2386 1.49051C40.636 1.49051 40.9946 1.58628 41.3169 1.78026C41.6392 1.97425 41.8912 2.24927 42.0778 2.60532C42.2619 2.96138 42.3565 3.36899 42.3565 3.82572C42.3565 4.28245 42.2644 4.69498 42.0778 5.05595C41.8936 5.41691 41.6368 5.6993 41.3145 5.90065C40.9898 6.10201 40.6312 6.20268 40.2411 6.20268C39.8921 6.20268 39.5844 6.13393 39.313 5.99642C39.044 5.85891 38.8284 5.68211 38.6709 5.46602V6.12902H37.7404V0H38.6709V2.24436C38.8284 2.02336 39.044 1.84165 39.3203 1.70169ZM41.2152 3.01049C41.0867 2.78212 40.9171 2.60778 40.7087 2.48746C40.4979 2.36959 40.275 2.31066 40.0351 2.31066C39.8 2.31066 39.5795 2.37205 39.3687 2.49237C39.1579 2.61514 38.9907 2.78949 38.8623 3.02276C38.7339 3.25358 38.6709 3.5286 38.6709 3.84291C38.6709 4.15722 38.7339 4.43224 38.8623 4.66797C38.9907 4.9037 39.1603 5.0805 39.3687 5.20082C39.5795 5.3236 39.8 5.38253 40.0351 5.38253C40.275 5.38253 40.5003 5.32114 40.7087 5.19591C40.9195 5.07068 41.0867 4.89143 41.2152 4.65324C41.3436 4.41505 41.4066 4.14003 41.4066 3.82572C41.4066 3.51142 41.3436 3.23885 41.2152 3.01049Z" fill="white"/>
<path d="M47.3312 1.56445L44.5688 8.27297H43.6044L44.5203 6.05317L42.7466 1.56445H43.7837L45.051 5.04149L46.3668 1.56445H47.3312Z" fill="white"/>
</svg>
