<svg width="104" height="104" viewBox="0 0 104 104" fill="none" xmlns="http://www.w3.org/2000/svg">
<g clip-path="url(#clip0_374_33751)" filter="url(#filter0_d_374_33751)">
<path fill-rule="evenodd" clip-rule="evenodd" d="M51.9706 101C79.5372 101 102 78.5448 102 50.9657C102 23.4552 79.5372 1 51.9706 1C24.453 1 2 23.4552 2 50.9755C2 78.5448 24.453 101 51.9706 101Z" fill="#F0F4FF"/>
<path fill-rule="evenodd" clip-rule="evenodd" d="M51.8531 92.8677C74.9526 92.8677 93.7516 74.0767 93.7516 50.9651C93.7516 27.9123 74.9526 9.0625 51.8531 9.0625C28.8123 9.0625 9.95459 27.9123 9.95459 50.9651C9.95459 74.0767 28.8026 92.8677 51.8531 92.8677Z" fill="url(#paint0_radial_374_33751)"/>
</g>
<g filter="url(#filter1_d_374_33751)">
<rect x="37" y="36" width="30" height="30" rx="2" fill="white"/>
</g>
<defs>
<filter id="filter0_d_374_33751" x="0" y="0" width="104" height="104" filterUnits="userSpaceOnUse" color-interpolation-filters="sRGB">
<feFlood flood-opacity="0" result="BackgroundImageFix"/>
<feColorMatrix in="SourceAlpha" type="matrix" values="0 0 0 0 0 0 0 0 0 0 0 0 0 0 0 0 0 0 127 0" result="hardAlpha"/>
<feOffset dy="1"/>
<feGaussianBlur stdDeviation="1"/>
<feComposite in2="hardAlpha" operator="out"/>
<feColorMatrix type="matrix" values="0 0 0 0 0 0 0 0 0 0 0 0 0 0 0 0 0 0 0.25 0"/>
<feBlend mode="normal" in2="BackgroundImageFix" result="effect1_dropShadow_374_33751"/>
<feBlend mode="normal" in="SourceGraphic" in2="effect1_dropShadow_374_33751" result="shape"/>
</filter>
<filter id="filter1_d_374_33751" x="35" y="35" width="34" height="34" filterUnits="userSpaceOnUse" color-interpolation-filters="sRGB">
<feFlood flood-opacity="0" result="BackgroundImageFix"/>
<feColorMatrix in="SourceAlpha" type="matrix" values="0 0 0 0 0 0 0 0 0 0 0 0 0 0 0 0 0 0 127 0" result="hardAlpha"/>
<feOffset dy="1"/>
<feGaussianBlur stdDeviation="1"/>
<feComposite in2="hardAlpha" operator="out"/>
<feColorMatrix type="matrix" values="0 0 0 0 0 0 0 0 0 0 0 0 0 0 0 0 0 0 0.25 0"/>
<feBlend mode="normal" in2="BackgroundImageFix" result="effect1_dropShadow_374_33751"/>
<feBlend mode="normal" in="SourceGraphic" in2="effect1_dropShadow_374_33751" result="shape"/>
</filter>
<radialGradient id="paint0_radial_374_33751" cx="0" cy="0" r="1" gradientUnits="userSpaceOnUse" gradientTransform="translate(50.7088 49.8699) scale(47.8426 47.8473)">
<stop stop-color="#A8BDFF"/>
<stop offset="0.5215" stop-color="#3360E9"/>
<stop offset="1" stop-color="#03154E"/>
</radialGradient>
<clipPath id="clip0_374_33751">
<rect width="100" height="100" fill="white" transform="translate(2 1)"/>
</clipPath>
</defs>
</svg>
