<svg width="100" height="124" viewBox="0 0 100 124" fill="none" xmlns="http://www.w3.org/2000/svg">
<path d="M20.0278 121V112.54H23.0998C24.0678 112.54 24.8838 112.708 25.5478 113.044C26.2198 113.372 26.7278 113.852 27.0718 114.484C27.4158 115.108 27.5878 115.868 27.5878 116.764C27.5878 117.652 27.4158 118.412 27.0718 119.044C26.7278 119.676 26.2198 120.16 25.5478 120.496C24.8838 120.832 24.0678 121 23.0998 121H20.0278ZM21.5758 119.716H23.0038C24.0278 119.716 24.7878 119.472 25.2838 118.984C25.7798 118.496 26.0278 117.756 26.0278 116.764C26.0278 115.764 25.7798 115.024 25.2838 114.544C24.7878 114.056 24.0278 113.812 23.0038 113.812H21.5758V119.716ZM31.9764 121.12C30.9604 121.12 30.1644 120.84 29.5884 120.28C29.0124 119.72 28.7244 118.952 28.7244 117.976C28.7244 117.344 28.8484 116.792 29.0964 116.32C29.3444 115.848 29.6884 115.48 30.1284 115.216C30.5764 114.952 31.0964 114.82 31.6884 114.82C32.2724 114.82 32.7604 114.944 33.1524 115.192C33.5444 115.44 33.8404 115.788 34.0404 116.236C34.2484 116.684 34.3524 117.208 34.3524 117.808V118.204H29.9364V117.412H33.2844L33.0804 117.58C33.0804 117.02 32.9604 116.592 32.7204 116.296C32.4884 116 32.1484 115.852 31.7004 115.852C31.2044 115.852 30.8204 116.028 30.5484 116.38C30.2844 116.732 30.1524 117.224 30.1524 117.856V118.012C30.1524 118.668 30.3124 119.16 30.6324 119.488C30.9604 119.808 31.4204 119.968 32.0124 119.968C32.3564 119.968 32.6764 119.924 32.9724 119.836C33.2764 119.74 33.5644 119.588 33.8364 119.38L34.2804 120.388C33.9924 120.62 33.6484 120.8 33.2484 120.928C32.8484 121.056 32.4244 121.12 31.9764 121.12ZM37.9626 121.12C37.4346 121.12 36.9706 120.996 36.5706 120.748C36.1706 120.492 35.8586 120.128 35.6346 119.656C35.4106 119.184 35.2986 118.62 35.2986 117.964C35.2986 117.308 35.4106 116.748 35.6346 116.284C35.8586 115.812 36.1706 115.452 36.5706 115.204C36.9706 114.948 37.4346 114.82 37.9626 114.82C38.4746 114.82 38.9226 114.948 39.3066 115.204C39.6986 115.452 39.9586 115.788 40.0866 116.212H39.9546L40.0866 114.94H41.5266C41.5026 115.188 41.4786 115.44 41.4546 115.696C41.4386 115.952 41.4306 116.204 41.4306 116.452V121H39.9426L39.9306 119.752H40.0746C39.9466 120.168 39.6866 120.5 39.2946 120.748C38.9026 120.996 38.4586 121.12 37.9626 121.12ZM38.3826 119.968C38.8546 119.968 39.2346 119.804 39.5226 119.476C39.8106 119.14 39.9546 118.636 39.9546 117.964C39.9546 117.292 39.8106 116.792 39.5226 116.464C39.2346 116.136 38.8546 115.972 38.3826 115.972C37.9106 115.972 37.5306 116.136 37.2426 116.464C36.9546 116.792 36.8106 117.292 36.8106 117.964C36.8106 118.636 36.9506 119.14 37.2306 119.476C37.5186 119.804 37.9026 119.968 38.3826 119.968ZM45.848 121.12C45.224 121.12 44.676 120.992 44.204 120.736C43.74 120.48 43.38 120.116 43.124 119.644C42.868 119.164 42.74 118.596 42.74 117.94C42.74 117.284 42.868 116.724 43.124 116.26C43.388 115.796 43.752 115.44 44.216 115.192C44.68 114.944 45.224 114.82 45.848 114.82C46.248 114.82 46.636 114.884 47.012 115.012C47.396 115.132 47.708 115.308 47.948 115.54L47.492 116.584C47.276 116.384 47.032 116.236 46.76 116.14C46.496 116.036 46.236 115.984 45.98 115.984C45.444 115.984 45.024 116.152 44.72 116.488C44.424 116.824 44.276 117.312 44.276 117.952C44.276 118.592 44.424 119.084 44.72 119.428C45.024 119.772 45.444 119.944 45.98 119.944C46.228 119.944 46.484 119.896 46.748 119.8C47.02 119.704 47.268 119.556 47.492 119.356L47.948 120.388C47.7 120.62 47.384 120.8 47 120.928C46.624 121.056 46.24 121.12 45.848 121.12ZM51.7264 121.12C51.0064 121.12 50.4624 120.932 50.0944 120.556C49.7264 120.18 49.5424 119.616 49.5424 118.864V116.068H48.3784V114.94H49.5424V113.392L51.0424 113.008V114.94H52.6624V116.068H51.0424V118.768C51.0424 119.184 51.1224 119.476 51.2824 119.644C51.4424 119.812 51.6624 119.896 51.9424 119.896C52.0944 119.896 52.2224 119.884 52.3264 119.86C52.4384 119.836 52.5464 119.804 52.6504 119.764V120.952C52.5144 121.008 52.3624 121.048 52.1944 121.072C52.0344 121.104 51.8784 121.12 51.7264 121.12ZM53.6812 121V114.94H55.1812V121H53.6812ZM53.5972 113.8V112.336H55.2652V113.8H53.5972ZM58.5861 121L55.9701 114.94H57.5661L59.4621 119.68H59.0901L61.0341 114.94H62.5341L59.9061 121H58.5861ZM65.5603 121.12C65.0323 121.12 64.5683 120.996 64.1683 120.748C63.7683 120.492 63.4563 120.128 63.2323 119.656C63.0083 119.184 62.8963 118.62 62.8963 117.964C62.8963 117.308 63.0083 116.748 63.2323 116.284C63.4563 115.812 63.7683 115.452 64.1683 115.204C64.5683 114.948 65.0323 114.82 65.5603 114.82C66.0723 114.82 66.5203 114.948 66.9043 115.204C67.2963 115.452 67.5563 115.788 67.6843 116.212H67.5523L67.6843 114.94H69.1243C69.1003 115.188 69.0763 115.44 69.0523 115.696C69.0363 115.952 69.0283 116.204 69.0283 116.452V121H67.5403L67.5283 119.752H67.6723C67.5443 120.168 67.2843 120.5 66.8923 120.748C66.5003 120.996 66.0563 121.12 65.5603 121.12ZM65.9803 119.968C66.4523 119.968 66.8323 119.804 67.1203 119.476C67.4083 119.14 67.5523 118.636 67.5523 117.964C67.5523 117.292 67.4083 116.792 67.1203 116.464C66.8323 116.136 66.4523 115.972 65.9803 115.972C65.5083 115.972 65.1283 116.136 64.8403 116.464C64.5523 116.792 64.4083 117.292 64.4083 117.964C64.4083 118.636 64.5483 119.14 64.8283 119.476C65.1163 119.804 65.5003 119.968 65.9803 119.968ZM73.2537 121.12C72.5337 121.12 71.9897 120.932 71.6217 120.556C71.2537 120.18 71.0697 119.616 71.0697 118.864V116.068H69.9057V114.94H71.0697V113.392L72.5697 113.008V114.94H74.1897V116.068H72.5697V118.768C72.5697 119.184 72.6497 119.476 72.8097 119.644C72.9697 119.812 73.1897 119.896 73.4697 119.896C73.6217 119.896 73.7497 119.884 73.8537 119.86C73.9657 119.836 74.0737 119.804 74.1777 119.764V120.952C74.0417 121.008 73.8897 121.048 73.7217 121.072C73.5617 121.104 73.4057 121.12 73.2537 121.12ZM78.078 121.12C77.062 121.12 76.266 120.84 75.69 120.28C75.114 119.72 74.826 118.952 74.826 117.976C74.826 117.344 74.95 116.792 75.198 116.32C75.446 115.848 75.79 115.48 76.23 115.216C76.678 114.952 77.198 114.82 77.79 114.82C78.374 114.82 78.862 114.944 79.254 115.192C79.646 115.44 79.942 115.788 80.142 116.236C80.35 116.684 80.454 117.208 80.454 117.808V118.204H76.038V117.412H79.386L79.182 117.58C79.182 117.02 79.062 116.592 78.822 116.296C78.59 116 78.25 115.852 77.802 115.852C77.306 115.852 76.922 116.028 76.65 116.38C76.386 116.732 76.254 117.224 76.254 117.856V118.012C76.254 118.668 76.414 119.16 76.734 119.488C77.062 119.808 77.522 119.968 78.114 119.968C78.458 119.968 78.778 119.924 79.074 119.836C79.378 119.74 79.666 119.588 79.938 119.38L80.382 120.388C80.094 120.62 79.75 120.8 79.35 120.928C78.95 121.056 78.526 121.12 78.078 121.12Z" fill="white"/>
<path fill-rule="evenodd" clip-rule="evenodd" d="M49.9706 100C77.5372 100 100 77.5448 100 49.9657C100 22.4552 77.5372 0 49.9706 0C22.453 0 0 22.4552 0 49.9755C0 77.5448 22.453 100 49.9706 100Z" fill="#F0F4FF"/>
<path fill-rule="evenodd" clip-rule="evenodd" d="M49.8531 91.8677C72.9526 91.8677 91.7516 73.0767 91.7516 49.9651C91.7516 26.9123 72.9526 8.0625 49.8531 8.0625C26.8123 8.0625 7.95459 26.9123 7.95459 49.9651C7.95459 73.0767 26.8026 91.8677 49.8531 91.8677Z" fill="url(#paint0_radial_595_43289)"/>
<g filter="url(#filter0_d_595_43289)">
<path d="M21 20L81 80" stroke="#F0F4FF" stroke-width="8" stroke-linecap="round"/>
</g>
<defs>
<filter id="filter0_d_595_43289" x="15" y="15" width="72" height="72" filterUnits="userSpaceOnUse" color-interpolation-filters="sRGB">
<feFlood flood-opacity="0" result="BackgroundImageFix"/>
<feColorMatrix in="SourceAlpha" type="matrix" values="0 0 0 0 0 0 0 0 0 0 0 0 0 0 0 0 0 0 127 0" result="hardAlpha"/>
<feOffset dy="1"/>
<feGaussianBlur stdDeviation="1"/>
<feComposite in2="hardAlpha" operator="out"/>
<feColorMatrix type="matrix" values="0 0 0 0 0 0 0 0 0 0 0 0 0 0 0 0 0 0 0.25 0"/>
<feBlend mode="normal" in2="BackgroundImageFix" result="effect1_dropShadow_595_43289"/>
<feBlend mode="normal" in="SourceGraphic" in2="effect1_dropShadow_595_43289" result="shape"/>
</filter>
<radialGradient id="paint0_radial_595_43289" cx="0" cy="0" r="1" gradientUnits="userSpaceOnUse" gradientTransform="translate(48.7087 48.8699) scale(47.8426 47.8473)">
<stop stop-color="#D3E6AC"/>
<stop offset="0.5215" stop-color="#7CBA18"/>
<stop offset="1" stop-color="#09470E"/>
</radialGradient>
</defs>
</svg>
