<svg width="372" height="271" viewBox="0 0 372 271" fill="none" xmlns="http://www.w3.org/2000/svg">
<rect width="372" height="271" fill="white"/>
<rect x="121.5" y="192.5" width="129" height="34" fill="url(#paint0_linear_595_43320)" stroke="white"/>
<path d="M158.486 217.2C157.353 217.2 156.306 217.06 155.346 216.78C154.399 216.487 153.586 216.087 152.906 215.58L153.706 213.56C154.159 213.88 154.633 214.153 155.126 214.38C155.619 214.593 156.146 214.76 156.706 214.88C157.266 214.987 157.859 215.04 158.486 215.04C159.539 215.04 160.299 214.867 160.766 214.52C161.233 214.173 161.466 213.72 161.466 213.16C161.466 212.667 161.306 212.293 160.986 212.04C160.666 211.773 160.093 211.553 159.266 211.38L157.006 210.92C155.713 210.653 154.746 210.207 154.106 209.58C153.466 208.953 153.146 208.113 153.146 207.06C153.146 206.18 153.379 205.413 153.846 204.76C154.313 204.107 154.966 203.6 155.806 203.24C156.646 202.88 157.626 202.7 158.746 202.7C159.746 202.7 160.673 202.847 161.526 203.14C162.379 203.42 163.093 203.827 163.666 204.36L162.866 206.28C162.293 205.8 161.666 205.447 160.986 205.22C160.306 204.98 159.546 204.86 158.706 204.86C157.759 204.86 157.019 205.047 156.486 205.42C155.966 205.78 155.706 206.28 155.706 206.92C155.706 207.413 155.866 207.807 156.186 208.1C156.519 208.393 157.079 208.62 157.866 208.78L160.106 209.22C161.439 209.487 162.426 209.927 163.066 210.54C163.706 211.14 164.026 211.953 164.026 212.98C164.026 213.82 163.799 214.56 163.346 215.2C162.893 215.827 162.253 216.32 161.426 216.68C160.599 217.027 159.619 217.2 158.486 217.2ZM169.896 217.2C168.656 217.2 167.73 216.86 167.116 216.18C166.503 215.5 166.196 214.46 166.196 213.06V206.9H168.696V213.04C168.696 213.787 168.85 214.34 169.156 214.7C169.463 215.047 169.93 215.22 170.556 215.22C171.263 215.22 171.836 214.98 172.276 214.5C172.73 214.02 172.956 213.387 172.956 212.6V206.9H175.456V217H173.016V214.94H173.296C173.003 215.66 172.556 216.22 171.956 216.62C171.37 217.007 170.683 217.2 169.896 217.2ZM183.951 217.2C183.097 217.2 182.351 216.993 181.711 216.58C181.071 216.153 180.644 215.58 180.431 214.86H180.651V217H178.171V202.28H180.671V208.96H180.431C180.657 208.267 181.091 207.72 181.731 207.32C182.371 206.907 183.111 206.7 183.951 206.7C184.844 206.7 185.624 206.913 186.291 207.34C186.957 207.767 187.477 208.373 187.851 209.16C188.224 209.933 188.411 210.867 188.411 211.96C188.411 213.053 188.224 213.993 187.851 214.78C187.477 215.553 186.951 216.153 186.271 216.58C185.604 216.993 184.831 217.2 183.951 217.2ZM183.251 215.28C184.037 215.28 184.671 215.007 185.151 214.46C185.644 213.913 185.891 213.08 185.891 211.96C185.891 210.84 185.644 210.007 185.151 209.46C184.671 208.9 184.037 208.62 183.251 208.62C182.464 208.62 181.831 208.893 181.351 209.44C180.871 209.987 180.631 210.82 180.631 211.94C180.631 213.06 180.871 213.9 181.351 214.46C181.831 215.007 182.464 215.28 183.251 215.28ZM190.573 217V209.42C190.573 209.007 190.56 208.587 190.533 208.16C190.506 207.733 190.466 207.313 190.413 206.9H192.833L193.033 208.9H192.793C193.073 208.207 193.5 207.667 194.073 207.28C194.66 206.893 195.353 206.7 196.153 206.7C196.953 206.7 197.613 206.893 198.133 207.28C198.666 207.653 199.04 208.24 199.253 209.04H198.933C199.213 208.32 199.673 207.753 200.313 207.34C200.953 206.913 201.686 206.7 202.513 206.7C203.646 206.7 204.493 207.033 205.053 207.7C205.613 208.367 205.893 209.407 205.893 210.82V217H203.393V210.92C203.393 210.12 203.26 209.547 202.993 209.2C202.726 208.84 202.3 208.66 201.713 208.66C201.02 208.66 200.473 208.907 200.073 209.4C199.673 209.88 199.473 210.533 199.473 211.36V217H196.973V210.92C196.973 210.12 196.84 209.547 196.573 209.2C196.306 208.84 195.88 208.66 195.293 208.66C194.6 208.66 194.053 208.907 193.653 209.4C193.266 209.88 193.073 210.533 193.073 211.36V217H190.573ZM208.561 217V206.9H211.061V217H208.561ZM208.421 205V202.56H211.201V205H208.421ZM218.096 217.2C216.896 217.2 215.989 216.887 215.376 216.26C214.763 215.633 214.456 214.693 214.456 213.44V208.78H212.516V206.9H214.456V204.32L216.956 203.68V206.9H219.656V208.78H216.956V213.28C216.956 213.973 217.089 214.46 217.356 214.74C217.623 215.02 217.989 215.16 218.456 215.16C218.709 215.16 218.923 215.14 219.096 215.1C219.283 215.06 219.463 215.007 219.636 214.94V216.92C219.409 217.013 219.156 217.08 218.876 217.12C218.609 217.173 218.349 217.2 218.096 217.2Z" fill="white"/>
<path d="M48.851 65V50.9H58.351V52.92H51.331V56.82H57.891V58.86H51.331V62.96H58.351V65H48.851ZM60.5455 65V57.42C60.5455 57.0067 60.5322 56.5867 60.5055 56.16C60.4789 55.7333 60.4389 55.3133 60.3855 54.9H62.8055L63.0055 56.9H62.7655C63.0855 56.1933 63.5589 55.6533 64.1855 55.28C64.8122 54.8933 65.5389 54.7 66.3655 54.7C67.5522 54.7 68.4455 55.0333 69.0455 55.7C69.6455 56.3667 69.9455 57.4067 69.9455 58.82V65H67.4455V58.94C67.4455 58.1267 67.2855 57.5467 66.9655 57.2C66.6589 56.84 66.1922 56.66 65.5655 56.66C64.7922 56.66 64.1789 56.9 63.7255 57.38C63.2722 57.86 63.0455 58.5 63.0455 59.3V65H60.5455ZM76.9163 65.2C75.7163 65.2 74.8097 64.8867 74.1963 64.26C73.583 63.6333 73.2763 62.6933 73.2763 61.44V56.78H71.3363V54.9H73.2763V52.32L75.7763 51.68V54.9H78.4763V56.78H75.7763V61.28C75.7763 61.9733 75.9097 62.46 76.1763 62.74C76.443 63.02 76.8097 63.16 77.2763 63.16C77.5297 63.16 77.743 63.14 77.9163 63.1C78.103 63.06 78.283 63.0067 78.4563 62.94V64.92C78.2297 65.0133 77.9763 65.08 77.6963 65.12C77.4297 65.1733 77.1697 65.2 76.9163 65.2ZM84.9568 65.2C83.2635 65.2 81.9368 64.7333 80.9768 63.8C80.0168 62.8667 79.5368 61.5867 79.5368 59.96C79.5368 58.9067 79.7435 57.9867 80.1568 57.2C80.5701 56.4133 81.1435 55.8 81.8768 55.36C82.6235 54.92 83.4901 54.7 84.4768 54.7C85.4501 54.7 86.2635 54.9067 86.9168 55.32C87.5701 55.7333 88.0635 56.3133 88.3968 57.06C88.7435 57.8067 88.9168 58.68 88.9168 59.68V60.34H81.5568V59.02H87.1368L86.7968 59.3C86.7968 58.3667 86.5968 57.6533 86.1968 57.16C85.8101 56.6667 85.2435 56.42 84.4968 56.42C83.6701 56.42 83.0301 56.7133 82.5768 57.3C82.1368 57.8867 81.9168 58.7067 81.9168 59.76V60.02C81.9168 61.1133 82.1835 61.9333 82.7168 62.48C83.2635 63.0133 84.0301 63.28 85.0168 63.28C85.5901 63.28 86.1235 63.2067 86.6168 63.06C87.1235 62.9 87.6035 62.6467 88.0568 62.3L88.7968 63.98C88.3168 64.3667 87.7435 64.6667 87.0768 64.88C86.4101 65.0933 85.7035 65.2 84.9568 65.2ZM91.0138 65V57.48C91.0138 57.0533 91.0005 56.62 90.9738 56.18C90.9605 55.74 90.9272 55.3133 90.8738 54.9H93.2938L93.5738 57.66H93.1738C93.3072 56.9933 93.5272 56.44 93.8338 56C94.1538 55.56 94.5405 55.2333 94.9938 55.02C95.4472 54.8067 95.9405 54.7 96.4738 54.7C96.7138 54.7 96.9072 54.7133 97.0538 54.74C97.2005 54.7533 97.3472 54.7867 97.4938 54.84L97.4738 57.04C97.2205 56.9333 97.0005 56.8667 96.8138 56.84C96.6405 56.8133 96.4205 56.8 96.1538 56.8C95.5805 56.8 95.0938 56.92 94.6938 57.16C94.3072 57.4 94.0138 57.7333 93.8138 58.16C93.6272 58.5867 93.5338 59.0733 93.5338 59.62V65H91.0138ZM104.174 69.54L103.594 67.56C104.22 67.4267 104.747 67.2733 105.174 67.1C105.6 66.9267 105.954 66.7 106.234 66.42C106.514 66.14 106.747 65.78 106.934 65.34L107.434 64.16L107.374 65.14L102.974 54.9H105.634L108.794 62.78H108.214L111.394 54.9H113.914L109.314 65.56C109.007 66.28 108.674 66.8733 108.314 67.34C107.954 67.82 107.567 68.2 107.154 68.48C106.74 68.7733 106.287 69 105.794 69.16C105.3 69.32 104.76 69.4467 104.174 69.54ZM119.598 65.2C118.558 65.2 117.658 64.9867 116.898 64.56C116.138 64.1333 115.544 63.5267 115.118 62.74C114.704 61.9533 114.498 61.02 114.498 59.94C114.498 58.86 114.704 57.9333 115.118 57.16C115.544 56.3733 116.138 55.7667 116.898 55.34C117.658 54.9133 118.558 54.7 119.598 54.7C120.638 54.7 121.538 54.9133 122.298 55.34C123.071 55.7667 123.664 56.3733 124.078 57.16C124.504 57.9333 124.718 58.86 124.718 59.94C124.718 61.02 124.504 61.9533 124.078 62.74C123.664 63.5267 123.071 64.1333 122.298 64.56C121.538 64.9867 120.638 65.2 119.598 65.2ZM119.598 63.28C120.384 63.28 121.011 63.0067 121.478 62.46C121.944 61.9 122.178 61.06 122.178 59.94C122.178 58.82 121.944 57.9867 121.478 57.44C121.011 56.8933 120.384 56.62 119.598 56.62C118.811 56.62 118.184 56.8933 117.718 57.44C117.251 57.9867 117.018 58.82 117.018 59.94C117.018 61.06 117.251 61.9 117.718 62.46C118.184 63.0067 118.811 63.28 119.598 63.28ZM130.514 65.2C129.274 65.2 128.347 64.86 127.734 64.18C127.12 63.5 126.814 62.46 126.814 61.06V54.9H129.314V61.04C129.314 61.7867 129.467 62.34 129.774 62.7C130.08 63.0467 130.547 63.22 131.174 63.22C131.88 63.22 132.454 62.98 132.894 62.5C133.347 62.02 133.574 61.3867 133.574 60.6V54.9H136.074V65H133.634V62.94H133.914C133.62 63.66 133.174 64.22 132.574 64.62C131.987 65.0067 131.3 65.2 130.514 65.2ZM138.768 65V57.48C138.768 57.0533 138.754 56.62 138.728 56.18C138.714 55.74 138.681 55.3133 138.628 54.9H141.048L141.328 57.66H140.928C141.061 56.9933 141.281 56.44 141.588 56C141.908 55.56 142.294 55.2333 142.748 55.02C143.201 54.8067 143.694 54.7 144.228 54.7C144.468 54.7 144.661 54.7133 144.808 54.74C144.954 54.7533 145.101 54.7867 145.248 54.84L145.228 57.04C144.974 56.9333 144.754 56.8667 144.568 56.84C144.394 56.8133 144.174 56.8 143.908 56.8C143.334 56.8 142.848 56.92 142.448 57.16C142.061 57.4 141.768 57.7333 141.568 58.16C141.381 58.5867 141.288 59.0733 141.288 59.62V65H138.768ZM152.328 65V50.9H157.448C159.061 50.9 160.421 51.18 161.528 51.74C162.648 52.2867 163.494 53.0867 164.068 54.14C164.641 55.18 164.928 56.4467 164.928 57.94C164.928 59.42 164.641 60.6867 164.068 61.74C163.494 62.7933 162.648 63.6 161.528 64.16C160.421 64.72 159.061 65 157.448 65H152.328ZM154.908 62.86H157.288C158.994 62.86 160.261 62.4533 161.088 61.64C161.914 60.8267 162.328 59.5933 162.328 57.94C162.328 56.2733 161.914 55.04 161.088 54.24C160.261 53.4267 158.994 53.02 157.288 53.02H154.908V62.86ZM172.242 65.2C170.549 65.2 169.222 64.7333 168.262 63.8C167.302 62.8667 166.822 61.5867 166.822 59.96C166.822 58.9067 167.029 57.9867 167.442 57.2C167.855 56.4133 168.429 55.8 169.162 55.36C169.909 54.92 170.775 54.7 171.762 54.7C172.735 54.7 173.549 54.9067 174.202 55.32C174.855 55.7333 175.349 56.3133 175.682 57.06C176.029 57.8067 176.202 58.68 176.202 59.68V60.34H168.842V59.02H174.422L174.082 59.3C174.082 58.3667 173.882 57.6533 173.482 57.16C173.095 56.6667 172.529 56.42 171.782 56.42C170.955 56.42 170.315 56.7133 169.862 57.3C169.422 57.8867 169.202 58.7067 169.202 59.76V60.02C169.202 61.1133 169.469 61.9333 170.002 62.48C170.549 63.0133 171.315 63.28 172.302 63.28C172.875 63.28 173.409 63.2067 173.902 63.06C174.409 62.9 174.889 62.6467 175.342 62.3L176.082 63.98C175.602 64.3667 175.029 64.6667 174.362 64.88C173.695 65.0933 172.989 65.2 172.242 65.2ZM182.219 65.2C181.339 65.2 180.566 64.9933 179.899 64.58C179.232 64.1533 178.712 63.5467 178.339 62.76C177.966 61.9733 177.779 61.0333 177.779 59.94C177.779 58.8467 177.966 57.9133 178.339 57.14C178.712 56.3533 179.232 55.7533 179.899 55.34C180.566 54.9133 181.339 54.7 182.219 54.7C183.072 54.7 183.819 54.9133 184.459 55.34C185.112 55.7533 185.546 56.3133 185.759 57.02H185.539L185.759 54.9H188.159C188.119 55.3133 188.079 55.7333 188.039 56.16C188.012 56.5867 187.999 57.0067 187.999 57.42V65H185.519L185.499 62.92H185.739C185.526 63.6133 185.092 64.1667 184.439 64.58C183.786 64.9933 183.046 65.2 182.219 65.2ZM182.919 63.28C183.706 63.28 184.339 63.0067 184.819 62.46C185.299 61.9 185.539 61.06 185.539 59.94C185.539 58.82 185.299 57.9867 184.819 57.44C184.339 56.8933 183.706 56.62 182.919 56.62C182.132 56.62 181.499 56.8933 181.019 57.44C180.539 57.9867 180.299 58.82 180.299 59.94C180.299 61.06 180.532 61.9 180.999 62.46C181.479 63.0067 182.119 63.28 182.919 63.28ZM195.361 65.2C194.321 65.2 193.408 64.9867 192.621 64.56C191.848 64.1333 191.248 63.5267 190.821 62.74C190.395 61.94 190.181 60.9933 190.181 59.9C190.181 58.8067 190.395 57.8733 190.821 57.1C191.261 56.3267 191.868 55.7333 192.641 55.32C193.415 54.9067 194.321 54.7 195.361 54.7C196.028 54.7 196.675 54.8067 197.301 55.02C197.941 55.22 198.461 55.5133 198.861 55.9L198.101 57.64C197.741 57.3067 197.335 57.06 196.881 56.9C196.441 56.7267 196.008 56.64 195.581 56.64C194.688 56.64 193.988 56.92 193.481 57.48C192.988 58.04 192.741 58.8533 192.741 59.92C192.741 60.9867 192.988 61.8067 193.481 62.38C193.988 62.9533 194.688 63.24 195.581 63.24C195.995 63.24 196.421 63.16 196.861 63C197.315 62.84 197.728 62.5933 198.101 62.26L198.861 63.98C198.448 64.3667 197.921 64.6667 197.281 64.88C196.655 65.0933 196.015 65.2 195.361 65.2ZM205.159 65.2C203.959 65.2 203.052 64.8867 202.439 64.26C201.825 63.6333 201.519 62.6933 201.519 61.44V56.78H199.579V54.9H201.519V52.32L204.019 51.68V54.9H206.719V56.78H204.019V61.28C204.019 61.9733 204.152 62.46 204.419 62.74C204.685 63.02 205.052 63.16 205.519 63.16C205.772 63.16 205.985 63.14 206.159 63.1C206.345 63.06 206.525 63.0067 206.699 62.94V64.92C206.472 65.0133 206.219 65.08 205.939 65.12C205.672 65.1733 205.412 65.2 205.159 65.2ZM208.417 65V54.9H210.917V65H208.417ZM208.277 53V50.56H211.057V53H208.277ZM216.591 65L212.231 54.9H214.891L218.051 62.8H217.431L220.671 54.9H223.171L218.791 65H216.591ZM228.215 65.2C227.335 65.2 226.562 64.9933 225.895 64.58C225.228 64.1533 224.708 63.5467 224.335 62.76C223.962 61.9733 223.775 61.0333 223.775 59.94C223.775 58.8467 223.962 57.9133 224.335 57.14C224.708 56.3533 225.228 55.7533 225.895 55.34C226.562 54.9133 227.335 54.7 228.215 54.7C229.068 54.7 229.815 54.9133 230.455 55.34C231.108 55.7533 231.542 56.3133 231.755 57.02H231.535L231.755 54.9H234.155C234.115 55.3133 234.075 55.7333 234.035 56.16C234.008 56.5867 233.995 57.0067 233.995 57.42V65H231.515L231.495 62.92H231.735C231.522 63.6133 231.088 64.1667 230.435 64.58C229.782 64.9933 229.042 65.2 228.215 65.2ZM228.915 63.28C229.702 63.28 230.335 63.0067 230.815 62.46C231.295 61.9 231.535 61.06 231.535 59.94C231.535 58.82 231.295 57.9867 230.815 57.44C230.335 56.8933 229.702 56.62 228.915 56.62C228.128 56.62 227.495 56.8933 227.015 57.44C226.535 57.9867 226.295 58.82 226.295 59.94C226.295 61.06 226.528 61.9 226.995 62.46C227.475 63.0067 228.115 63.28 228.915 63.28ZM241.037 65.2C239.837 65.2 238.931 64.8867 238.317 64.26C237.704 63.6333 237.397 62.6933 237.397 61.44V56.78H235.457V54.9H237.397V52.32L239.897 51.68V54.9H242.597V56.78H239.897V61.28C239.897 61.9733 240.031 62.46 240.297 62.74C240.564 63.02 240.931 63.16 241.397 63.16C241.651 63.16 241.864 63.14 242.037 63.1C242.224 63.06 242.404 63.0067 242.577 62.94V64.92C242.351 65.0133 242.097 65.08 241.817 65.12C241.551 65.1733 241.291 65.2 241.037 65.2ZM244.296 65V54.9H246.796V65H244.296ZM244.156 53V50.56H246.936V53H244.156ZM254.07 65.2C253.03 65.2 252.13 64.9867 251.37 64.56C250.61 64.1333 250.017 63.5267 249.59 62.74C249.177 61.9533 248.97 61.02 248.97 59.94C248.97 58.86 249.177 57.9333 249.59 57.16C250.017 56.3733 250.61 55.7667 251.37 55.34C252.13 54.9133 253.03 54.7 254.07 54.7C255.11 54.7 256.01 54.9133 256.77 55.34C257.544 55.7667 258.137 56.3733 258.55 57.16C258.977 57.9333 259.19 58.86 259.19 59.94C259.19 61.02 258.977 61.9533 258.55 62.74C258.137 63.5267 257.544 64.1333 256.77 64.56C256.01 64.9867 255.11 65.2 254.07 65.2ZM254.07 63.28C254.857 63.28 255.484 63.0067 255.95 62.46C256.417 61.9 256.65 61.06 256.65 59.94C256.65 58.82 256.417 57.9867 255.95 57.44C255.484 56.8933 254.857 56.62 254.07 56.62C253.284 56.62 252.657 56.8933 252.19 57.44C251.724 57.9867 251.49 58.82 251.49 59.94C251.49 61.06 251.724 61.9 252.19 62.46C252.657 63.0067 253.284 63.28 254.07 63.28ZM261.346 65V57.42C261.346 57.0067 261.333 56.5867 261.306 56.16C261.28 55.7333 261.24 55.3133 261.186 54.9H263.606L263.806 56.9H263.566C263.886 56.1933 264.36 55.6533 264.986 55.28C265.613 54.8933 266.34 54.7 267.166 54.7C268.353 54.7 269.246 55.0333 269.846 55.7C270.446 56.3667 270.746 57.4067 270.746 58.82V65H268.246V58.94C268.246 58.1267 268.086 57.5467 267.766 57.2C267.46 56.84 266.993 56.66 266.366 56.66C265.593 56.66 264.98 56.9 264.526 57.38C264.073 57.86 263.846 58.5 263.846 59.3V65H261.346ZM285.645 65.2C284.179 65.2 282.919 64.9067 281.865 64.32C280.825 63.72 280.025 62.88 279.465 61.8C278.905 60.7067 278.625 59.42 278.625 57.94C278.625 56.46 278.905 55.18 279.465 54.1C280.025 53.02 280.825 52.1867 281.865 51.6C282.919 51 284.179 50.7 285.645 50.7C286.632 50.7 287.519 50.84 288.305 51.12C289.105 51.4 289.792 51.8133 290.365 52.36L289.525 54.4C288.899 53.8933 288.292 53.5333 287.705 53.32C287.132 53.0933 286.472 52.98 285.725 52.98C284.299 52.98 283.205 53.4133 282.445 54.28C281.699 55.1333 281.325 56.3533 281.325 57.94C281.325 59.5267 281.699 60.7533 282.445 61.62C283.205 62.4867 284.299 62.92 285.725 62.92C286.472 62.92 287.132 62.8133 287.705 62.6C288.292 62.3733 288.899 62 289.525 61.48L290.365 63.52C289.792 64.0533 289.105 64.4667 288.305 64.76C287.519 65.0533 286.632 65.2 285.645 65.2ZM296.434 65.2C295.394 65.2 294.494 64.9867 293.734 64.56C292.974 64.1333 292.38 63.5267 291.954 62.74C291.54 61.9533 291.334 61.02 291.334 59.94C291.334 58.86 291.54 57.9333 291.954 57.16C292.38 56.3733 292.974 55.7667 293.734 55.34C294.494 54.9133 295.394 54.7 296.434 54.7C297.474 54.7 298.374 54.9133 299.134 55.34C299.907 55.7667 300.5 56.3733 300.914 57.16C301.34 57.9333 301.554 58.86 301.554 59.94C301.554 61.02 301.34 61.9533 300.914 62.74C300.5 63.5267 299.907 64.1333 299.134 64.56C298.374 64.9867 297.474 65.2 296.434 65.2ZM296.434 63.28C297.22 63.28 297.847 63.0067 298.314 62.46C298.78 61.9 299.014 61.06 299.014 59.94C299.014 58.82 298.78 57.9867 298.314 57.44C297.847 56.8933 297.22 56.62 296.434 56.62C295.647 56.62 295.02 56.8933 294.554 57.44C294.087 57.9867 293.854 58.82 293.854 59.94C293.854 61.06 294.087 61.9 294.554 62.46C295.02 63.0067 295.647 63.28 296.434 63.28ZM307.63 65.2C306.75 65.2 305.97 64.9933 305.29 64.58C304.623 64.1533 304.103 63.5467 303.73 62.76C303.356 61.9733 303.17 61.0333 303.17 59.94C303.17 58.8467 303.356 57.9133 303.73 57.14C304.103 56.3533 304.623 55.7533 305.29 55.34C305.97 54.9133 306.75 54.7 307.63 54.7C308.47 54.7 309.21 54.9067 309.85 55.32C310.503 55.72 310.936 56.2667 311.15 56.96H310.89V50.28H313.39V65H310.93V62.86H311.17C310.956 63.58 310.523 64.1533 309.87 64.58C309.23 64.9933 308.483 65.2 307.63 65.2ZM308.33 63.28C309.116 63.28 309.75 63.0067 310.23 62.46C310.71 61.9 310.95 61.06 310.95 59.94C310.95 58.82 310.71 57.9867 310.23 57.44C309.75 56.8933 309.116 56.62 308.33 56.62C307.543 56.62 306.903 56.8933 306.41 57.44C305.93 57.9867 305.69 58.82 305.69 59.94C305.69 61.06 305.93 61.9 306.41 62.46C306.903 63.0067 307.543 63.28 308.33 63.28ZM320.992 65.2C319.299 65.2 317.972 64.7333 317.012 63.8C316.052 62.8667 315.572 61.5867 315.572 59.96C315.572 58.9067 315.779 57.9867 316.192 57.2C316.605 56.4133 317.179 55.8 317.912 55.36C318.659 54.92 319.525 54.7 320.512 54.7C321.485 54.7 322.299 54.9067 322.952 55.32C323.605 55.7333 324.099 56.3133 324.432 57.06C324.779 57.8067 324.952 58.68 324.952 59.68V60.34H317.592V59.02H323.172L322.832 59.3C322.832 58.3667 322.632 57.6533 322.232 57.16C321.845 56.6667 321.279 56.42 320.532 56.42C319.705 56.42 319.065 56.7133 318.612 57.3C318.172 57.8867 317.952 58.7067 317.952 59.76V60.02C317.952 61.1133 318.219 61.9333 318.752 62.48C319.299 63.0133 320.065 63.28 321.052 63.28C321.625 63.28 322.159 63.2067 322.652 63.06C323.159 62.9 323.639 62.6467 324.092 62.3L324.832 63.98C324.352 64.3667 323.779 64.6667 323.112 64.88C322.445 65.0933 321.739 65.2 320.992 65.2Z" fill="black"/>
<rect x="26.5" y="111.5" width="319" height="39" rx="4.5" stroke="black"/>
<path d="M44.0085 137V134.792H38.9685V133.352L44.3285 125.72H45.9925V133.224H47.6085V134.792H45.9925V137H44.0085ZM44.0085 133.224V128.152H44.3925L40.5045 133.704V133.224H44.0085ZM52.7063 137.16C51.3836 137.16 50.3489 136.877 49.6023 136.312C48.8663 135.747 48.4983 134.963 48.4983 133.96C48.4983 133.171 48.7383 132.515 49.2183 131.992C49.6983 131.469 50.3223 131.16 51.0903 131.064V131.4C50.3969 131.251 49.8369 130.925 49.4103 130.424C48.9943 129.923 48.7863 129.315 48.7863 128.6C48.7863 127.651 49.1329 126.909 49.8263 126.376C50.5303 125.832 51.4903 125.56 52.7063 125.56C53.9329 125.56 54.8929 125.832 55.5863 126.376C56.2903 126.909 56.6423 127.651 56.6423 128.6C56.6423 129.315 56.4396 129.928 56.0343 130.44C55.6396 130.952 55.1009 131.267 54.4183 131.384V131.064C55.1756 131.171 55.7836 131.485 56.2423 132.008C56.7009 132.52 56.9303 133.171 56.9303 133.96C56.9303 134.963 56.5569 135.747 55.8103 136.312C55.0743 136.877 54.0396 137.16 52.7063 137.16ZM52.7063 135.56C53.4849 135.56 54.0663 135.416 54.4503 135.128C54.8343 134.829 55.0263 134.392 55.0263 133.816C55.0263 133.24 54.8343 132.808 54.4503 132.52C54.0663 132.232 53.4849 132.088 52.7063 132.088C51.9383 132.088 51.3569 132.232 50.9623 132.52C50.5783 132.808 50.3863 133.24 50.3863 133.816C50.3863 134.392 50.5783 134.829 50.9623 135.128C51.3569 135.416 51.9383 135.56 52.7063 135.56ZM52.7063 130.488C53.3676 130.488 53.8689 130.339 54.2103 130.04C54.5623 129.741 54.7383 129.331 54.7383 128.808C54.7383 128.296 54.5623 127.896 54.2103 127.608C53.8689 127.309 53.3676 127.16 52.7063 127.16C52.0556 127.16 51.5543 127.309 51.2023 127.608C50.8609 127.896 50.6903 128.296 50.6903 128.808C50.6903 129.331 50.8609 129.741 51.2023 130.04C51.5543 130.339 52.0556 130.488 52.7063 130.488ZM62.38 137.16C61.8893 137.16 61.3987 137.107 60.908 137C60.428 136.893 59.9747 136.744 59.548 136.552C59.132 136.36 58.7747 136.131 58.476 135.864L59.148 134.312C59.6493 134.685 60.1613 134.968 60.684 135.16C61.2173 135.341 61.772 135.432 62.348 135.432C63.0413 135.432 63.58 135.261 63.964 134.92C64.3587 134.568 64.556 134.099 64.556 133.512C64.556 132.915 64.3693 132.435 63.996 132.072C63.6227 131.699 63.1107 131.512 62.46 131.512C62.0013 131.512 61.58 131.603 61.196 131.784C60.8227 131.955 60.4867 132.221 60.188 132.584H58.828V125.72H65.836V127.416H60.78V131H60.284C60.5613 130.627 60.9293 130.339 61.388 130.136C61.8573 129.933 62.38 129.832 62.956 129.832C63.6813 129.832 64.3107 129.981 64.844 130.28C65.3773 130.579 65.7933 131 66.092 131.544C66.3907 132.077 66.54 132.707 66.54 133.432C66.54 134.168 66.3693 134.819 66.028 135.384C65.6973 135.939 65.2173 136.376 64.588 136.696C63.9693 137.005 63.2333 137.16 62.38 137.16ZM72.2938 137.16C70.8751 137.16 69.7764 136.669 68.9978 135.688C68.2298 134.707 67.8458 133.331 67.8458 131.56C67.8458 130.28 68.0431 129.197 68.4378 128.312C68.8324 127.416 69.3924 126.733 70.1178 126.264C70.8538 125.795 71.7338 125.56 72.7578 125.56C73.3658 125.56 73.9684 125.672 74.5658 125.896C75.1631 126.109 75.6751 126.419 76.1018 126.824L75.4138 128.36C75.0191 127.997 74.5924 127.731 74.1338 127.56C73.6751 127.379 73.2111 127.288 72.7418 127.288C71.7818 127.288 71.0511 127.613 70.5498 128.264C70.0484 128.915 69.7978 129.885 69.7978 131.176V132.376H69.6058C69.6911 131.832 69.8724 131.368 70.1498 130.984C70.4271 130.589 70.7844 130.291 71.2218 130.088C71.6591 129.875 72.1444 129.768 72.6778 129.768C73.3391 129.768 73.9258 129.923 74.4378 130.232C74.9498 130.541 75.3498 130.968 75.6378 131.512C75.9364 132.056 76.0858 132.68 76.0858 133.384C76.0858 134.109 75.9204 134.76 75.5898 135.336C75.2698 135.901 74.8271 136.349 74.2618 136.68C73.6964 137 73.0404 137.16 72.2938 137.16ZM72.1818 135.528C72.5764 135.528 72.9231 135.443 73.2218 135.272C73.5204 135.101 73.7498 134.861 73.9098 134.552C74.0804 134.232 74.1658 133.869 74.1658 133.464C74.1658 133.048 74.0804 132.685 73.9098 132.376C73.7498 132.067 73.5204 131.827 73.2218 131.656C72.9231 131.475 72.5764 131.384 72.1818 131.384C71.7871 131.384 71.4404 131.475 71.1418 131.656C70.8431 131.827 70.6084 132.067 70.4378 132.376C70.2671 132.685 70.1818 133.048 70.1818 133.464C70.1818 133.869 70.2671 134.232 70.4378 134.552C70.6084 134.861 70.8431 135.101 71.1418 135.272C71.4404 135.443 71.7871 135.528 72.1818 135.528Z" fill="black"/>
<defs>
<linearGradient id="paint0_linear_595_43320" x1="186.085" y1="192" x2="186.085" y2="227.232" gradientUnits="userSpaceOnUse">
<stop stop-color="#0198FE"/>
<stop offset="1" stop-color="#0247FF"/>
</linearGradient>
</defs>
</svg>
