<svg width="27" height="24" viewBox="0 0 27 24" fill="none" xmlns="http://www.w3.org/2000/svg">
<path d="M12.711 3.50718L13.5 4.52062L14.289 3.50718C15.4663 1.99512 17.3641 1 19.494 1C23.1194 1 26 3.828 26 7.25157C26 8.68195 25.7627 10.0013 25.3503 11.2264L25.3503 11.2264L25.348 11.2331C24.3579 14.244 22.3221 16.6878 20.1009 18.5222C17.8767 20.359 15.5295 21.5322 14.0262 22.0237L14.0262 22.0236L14.0158 22.0271C13.9224 22.0588 13.7353 22.0909 13.5 22.0909C13.2647 22.0909 13.0776 22.0588 12.9842 22.0271L12.9842 22.0271L12.9738 22.0237C11.4705 21.5322 9.12331 20.359 6.89908 18.5222C4.67791 16.6878 2.64208 14.244 1.65195 11.2331L1.65198 11.2331L1.64973 11.2264C1.23727 10.0013 1 8.68195 1 7.25157C1 3.828 3.88059 1 7.506 1C9.63588 1 11.5337 1.99512 12.711 3.50718Z" fill="#3760CB" stroke="#040C50" stroke-width="2"/>
</svg>
