<svg width="16" height="14" viewBox="0 0 16 14" fill="none" xmlns="http://www.w3.org/2000/svg">
<path d="M7.1259 2.27409L7.84763 3.24284L8.56935 2.27409C9.19125 1.43934 10.1853 0.9 11.2904 0.9C13.166 0.9 14.7015 2.4359 14.7015 4.35269C14.7015 5.18183 14.57 5.94538 14.3417 6.65408L14.3416 6.65408L14.3398 6.65992C13.7912 8.40318 12.6608 9.82547 11.4166 10.8993C10.1684 11.9766 8.85701 12.6583 8.03737 12.9384L8.03735 12.9383L8.02783 12.9417C8.03088 12.9406 8.01487 12.9462 7.97693 12.9516C7.94055 12.9568 7.89596 12.9601 7.84763 12.9601C7.79929 12.9601 7.75471 12.9568 7.71833 12.9516C7.68693 12.9471 7.67055 12.9425 7.66756 12.9417L7.66757 12.9417L7.65789 12.9384C6.83825 12.6583 5.52686 11.9766 4.27861 10.8993C3.03444 9.82547 1.90401 8.40318 1.35545 6.65992L1.35547 6.65991L1.35359 6.65408C1.12527 5.94538 0.99375 5.18183 0.99375 4.35269C0.99375 2.4359 2.52928 0.9 4.40491 0.9C5.50996 0.9 6.504 1.43934 7.1259 2.27409Z" fill="#040C50" stroke="#D9D9D9" stroke-width="1.8"/>
</svg>
