<svg width="50" height="47" viewBox="0 0 50 47" fill="none" xmlns="http://www.w3.org/2000/svg">
<path d="M41.7201 7.19629L41.7934 7.26625L41.8881 7.3022L41.9164 7.31296C45.8183 11.0236 48.2408 15.8998 48.7762 21.1096C49.3148 26.3511 47.9102 31.6093 44.7999 35.9783C41.6891 40.3479 37.0655 43.5556 31.7223 45.0422C26.3789 46.5288 20.6562 46.1992 15.5424 44.1112L15.5392 44.1099C14.9693 43.8818 14.3478 43.7991 13.7355 43.8689L13.7169 43.8711L13.6985 43.8746L3.30401 45.8569H2.86335V45.8567L2.85126 45.857C2.5859 45.8634 2.32243 45.8187 2.07698 45.7262C1.83201 45.6338 1.61095 45.4961 1.42643 45.3225C1.20188 45.1079 1.03918 44.8461 0.950262 44.5617C0.861232 44.2769 0.84826 43.9763 0.912184 43.6861L0.912293 43.6856L3.05902 33.8919L3.06099 33.8829L3.06263 33.8738C3.17267 33.2657 3.08088 32.641 2.80211 32.087C0.611857 27.2489 0.26777 21.8393 1.82804 16.7876C3.38952 11.732 6.76247 7.3458 11.3723 4.3896C15.9825 1.43311 21.5385 0.0941481 27.0817 0.607239C32.6248 1.12032 37.8013 3.45259 41.7201 7.19629ZM13.4376 25.5512C13.9202 25.8573 14.4849 26.0192 15.0607 26.0192C15.8321 26.0192 16.5768 25.7286 17.1298 25.2037C17.6837 24.678 18.0001 23.9592 18.0001 23.2039C18.0001 22.6411 17.8242 22.0932 17.4978 21.6298C17.1718 21.1666 16.7112 20.8095 16.1771 20.5995C15.6433 20.3896 15.0572 20.3351 14.492 20.4418C13.9267 20.5485 13.4041 20.8125 12.9915 21.2041C12.5786 21.5959 12.2942 22.0985 12.1787 22.6496C12.0631 23.2011 12.1227 23.7723 12.3486 24.2899C12.5744 24.8072 12.9548 25.2451 13.4376 25.5512ZM23.1954 25.5512C23.678 25.8573 24.2428 26.0192 24.8185 26.0192C25.5899 26.0192 26.3347 25.7286 26.8877 25.2037C27.4416 24.678 27.758 23.9592 27.758 23.2039C27.758 22.6411 27.582 22.0932 27.2557 21.6298C26.9296 21.1666 26.469 20.8095 25.935 20.5995C25.4011 20.3896 24.815 20.3351 24.2498 20.4418C23.6846 20.5485 23.162 20.8125 22.7494 21.2041C22.3365 21.5959 22.0521 22.0985 21.9366 22.6496C21.821 23.201 21.8806 23.7723 22.1065 24.2899C22.3322 24.8072 22.7126 25.2451 23.1954 25.5512ZM32.9533 25.5512C33.4359 25.8573 34.0006 26.0192 34.5764 26.0192C35.3478 26.0192 36.0925 25.7286 36.6455 25.2037C37.1994 24.678 37.5158 23.9592 37.5158 23.2039C37.5158 22.6411 37.3399 22.0932 37.0135 21.6298C36.6875 21.1666 36.2269 20.8095 35.6928 20.5995C35.159 20.3896 34.5729 20.3351 34.0077 20.4418C33.4424 20.5485 32.9198 20.8125 32.5072 21.2041C32.0943 21.5959 31.8099 22.0985 31.6944 22.6496C31.5788 23.201 31.6384 23.7723 31.8643 24.2899C32.0901 24.8072 32.4705 25.2451 32.9533 25.5512Z" fill="#02227E" stroke="#D9D9D9"/>
</svg>
