<svg width="52" height="48" viewBox="0 0 52 48" fill="none" xmlns="http://www.w3.org/2000/svg">
<path d="M50.8265 23.8576C50.8265 36.7277 39.6847 47.2153 25.8713 47.2153C12.0578 47.2153 0.916016 36.7277 0.916016 23.8576C0.916016 10.9876 12.0578 0.5 25.8713 0.5C39.6847 0.5 50.8265 10.9876 50.8265 23.8576Z" fill="#02227E" stroke="#D9D9D9"/>
<path opacity="0.2" d="M32.9599 28.5845L32.9784 28.5903L32.9972 28.5946C34.8547 29.021 36.1137 29.8347 36.9146 30.5417C37.316 30.896 37.6038 31.2249 37.7948 31.4675C37.8902 31.5887 37.9619 31.6889 38.0124 31.7616C38.0404 31.8018 38.0556 31.8244 38.0759 31.8538C38.0773 31.8558 38.0787 31.8578 38.0801 31.8599C38.0832 31.8725 38.0873 31.8936 38.0907 31.9254C38.0961 31.9755 38.0974 32.0286 38.0977 32.0874C37.7551 33.8915 36.9603 35.0579 36.2519 35.7815C35.8931 36.1479 35.5537 36.4034 35.3013 36.5707C35.1752 36.6543 35.0703 36.7162 34.9939 36.7598C34.968 36.7746 34.9492 36.7851 34.9313 36.7951C34.9197 36.8016 34.9085 36.8079 34.8961 36.8149C34.885 36.8212 34.8712 36.8291 34.8578 36.8371C34.8335 36.8471 34.8245 36.8484 34.8221 36.8487L34.8217 36.8488C34.8126 36.8502 34.8015 36.8512 34.7705 36.8517C34.7497 36.8421 34.7194 36.8289 34.6868 36.8175C34.6644 36.8096 34.636 36.8007 34.6028 36.7933C34.4063 36.7101 34.1552 36.6366 33.8653 36.5684L33.8431 36.5627C31.9761 36.0787 28.2897 35.1232 24.39 32.3502C20.4903 29.5771 16.3533 24.9685 13.6426 17.1384V16.8717C13.65 16.8525 13.6582 16.8317 13.6678 16.8082C13.6966 16.738 13.7385 16.6436 13.7995 16.5312C13.9214 16.3067 14.1233 16.0035 14.4561 15.6791C15.1136 15.0383 16.3165 14.2815 18.5124 13.92C18.6291 13.9204 18.7191 13.9246 18.8524 13.9634C19.0517 14.0542 19.9556 14.4749 20.8752 15.2473C21.8729 16.0854 22.8329 17.2898 22.9834 18.8813C22.9813 18.9368 22.9701 19.0059 22.9491 19.0699C22.9281 19.1337 22.9077 19.1621 22.9035 19.1679C22.9026 19.1691 22.9024 19.1693 22.9032 19.1686L22.898 19.1735L22.8929 19.1785C22.1956 19.8705 21.5591 20.6397 21.1035 21.2996C20.8763 21.6287 20.6869 21.941 20.5573 22.2103C20.4927 22.3446 20.4377 22.4789 20.4017 22.6064C20.3701 22.7184 20.3396 22.8706 20.3629 23.0291C20.3847 23.2155 20.4655 23.4306 20.5599 23.6359C20.6641 23.8625 20.8094 24.129 20.992 24.423C21.3575 25.012 21.8848 25.7316 22.5639 26.4925C23.9209 28.0129 25.904 29.7202 28.4479 30.8738L28.5965 30.9413L28.7563 30.908C28.9965 30.858 29.2794 30.7431 29.5668 30.6042C29.8618 30.4616 30.1914 30.2788 30.5329 30.0734C31.2087 29.6669 31.9508 29.1599 32.5955 28.6701C32.752 28.5784 32.9078 28.5682 32.9599 28.5845Z" fill="#231F20" stroke="#D9D9D9"/>
<path d="M32.9599 27.0943L32.9784 27.1L32.9972 27.1044C34.8547 27.5307 36.1137 28.3445 36.9146 29.0515C37.316 29.4057 37.6038 29.7347 37.7948 29.9772C37.8902 30.0984 37.9619 30.1987 38.0124 30.2713C38.0404 30.3116 38.0556 30.3342 38.0759 30.3635C38.0773 30.3655 38.0787 30.3676 38.0801 30.3697C38.0832 30.3823 38.0873 30.4034 38.0907 30.4351C38.0961 30.4853 38.0974 30.5384 38.0977 30.5971C37.7551 32.4012 36.9603 33.5677 36.2519 34.2912C35.8931 34.6577 35.5537 34.9132 35.3013 35.0805C35.1752 35.1641 35.0703 35.226 34.9939 35.2696C34.968 35.2843 34.9492 35.2949 34.9313 35.3049C34.9197 35.3114 34.9085 35.3176 34.8961 35.3247C34.885 35.331 34.8712 35.3388 34.8578 35.3469C34.8335 35.3569 34.8245 35.3581 34.8221 35.3585L34.8217 35.3585C34.8126 35.36 34.8015 35.3609 34.7705 35.3614C34.7497 35.3519 34.7194 35.3387 34.6868 35.3273C34.6644 35.3194 34.636 35.3105 34.6028 35.3031C34.4063 35.2199 34.1552 35.1463 33.8653 35.0782L33.8431 35.0724C31.9761 34.5885 28.2897 33.6329 24.39 30.8599C20.4903 28.0869 16.3533 23.4782 13.6426 15.6481V15.3814C13.65 15.3622 13.6582 15.3414 13.6678 15.3179C13.6966 15.2477 13.7385 15.1534 13.7995 15.041C13.9214 14.8165 14.1233 14.5133 14.4561 14.1889C15.1136 13.548 16.3165 12.7913 18.5124 12.4297C18.6291 12.4302 18.7191 12.4344 18.8524 12.4732C19.0517 12.5639 19.9556 12.9846 20.8752 13.757C21.8729 14.5951 22.8329 15.7996 22.9834 17.391C22.9813 17.4465 22.9701 17.5157 22.9491 17.5797C22.9281 17.6434 22.9077 17.6718 22.9035 17.6777C22.9026 17.6789 22.9024 17.6791 22.9032 17.6784L22.898 17.6833L22.8929 17.6883C22.1956 18.3803 21.5591 19.1495 21.1035 19.8094C20.8763 20.1385 20.6869 20.4508 20.5573 20.7201C20.4927 20.8543 20.4377 20.9886 20.4017 21.1162C20.3701 21.2282 20.3396 21.3804 20.3629 21.5388C20.3847 21.7253 20.4655 21.9403 20.5599 22.1456C20.6641 22.3723 20.8094 22.6387 20.992 22.9328C21.3575 23.5217 21.8848 24.2414 22.5639 25.0022C23.9209 26.5227 25.904 28.23 28.4479 29.3836L28.5965 29.451L28.7563 29.4177C28.9965 29.3677 29.2794 29.2529 29.5668 29.114C29.8618 28.9714 30.1914 28.7886 30.5329 28.5832C31.2087 28.1767 31.9508 27.6696 32.5955 27.1799C32.752 27.0881 32.9078 27.078 32.9599 27.0943Z" fill="white" stroke="#D9D9D9"/>
</svg>
