<svg width="11" height="10" viewBox="0 0 11 10" fill="none" xmlns="http://www.w3.org/2000/svg">
<path d="M5.7558 1.29637L6.47264 3.1207C6.67563 3.63728 7.1741 3.97699 7.72913 3.97699H9.62646C10.0827 3.97699 10.2493 4.57776 9.85821 4.81273L8.63598 5.54703C8.07092 5.8865 7.83366 6.58442 8.07473 7.19795L8.60693 8.55239C8.7641 8.95237 8.32474 9.32401 7.95636 9.1027L6.03221 7.9467C5.60436 7.68965 5.06959 7.68965 4.64174 7.9467L2.71759 9.1027C2.34921 9.32401 1.90985 8.95237 2.06702 8.55239L2.59922 7.19795C2.8403 6.58442 2.60303 5.8865 2.03797 5.54703L0.815742 4.81273C0.424636 4.57776 0.591222 3.97699 1.04749 3.97699H2.94483C3.49985 3.97699 3.99833 3.63728 4.20131 3.1207L4.91815 1.29637C5.06769 0.915798 5.60626 0.915798 5.7558 1.29637Z" fill="#E1AB3F" stroke="#01195C" stroke-width="0.9"/>
</svg>
